<svg width="32" height="32" fill="none" xmlns="http://www.w3.org/2000/svg"><path d="M16 32c8.837 0 16-7.164 16-16 0-8.837-7.163-16-16-16C7.165 0 .002 7.163.002 16c0 8.836 7.163 16 16 16z" fill="#1976D2"/><path d="M25.8 11.499a7.627 7.627 0 01-2.196.601 3.835 3.835 0 001.682-2.115 7.655 7.655 0 01-2.429.928 3.825 3.825 0 00-6.517 3.489 10.856 10.856 0 01-7.883-3.997A3.824 3.824 0 009.64 15.51a3.798 3.798 0 01-1.732-.479v.049a3.827 3.827 0 003.068 3.75 3.813 3.813 0 01-1.727.066 3.829 3.829 0 003.573 2.655 7.673 7.673 0 01-5.662 1.584 10.818 10.818 0 005.862 1.718c7.034 0 10.881-5.827 10.881-10.881 0-.166-.004-.331-.011-.495a7.754 7.754 0 001.909-1.98z" fill="#fff"/></svg>