<svg width="1096" height="786" fill="none" xmlns="http://www.w3.org/2000/svg"><g opacity=".05" fill="#0D47A1"><path d="M134.977 68.704C3.454 242.922 37.867 521.373 249.066 651.405c160.676 98.435 322.015 27.331 358.789 123.406a98.45 98.45 0 006.584-11.802c-48.907-96.489-200.307-21.493-361.149-118.437C45.238 518.64 8.258 244.496 137.586 70.609l-2.609-1.905z"/><path d="M435.419 629.25c10.063 8.282 23.397 23.314 25.84 36.069a26.091 26.091 0 01.497 27.042 7.164 7.164 0 01-.455 1.201c-25.882-8.366-31.97-38.265-25.882-64.312zm-35.655-2.941c16.565 16.358 32.757 46.381 19.795 65.223-24.64-9.731-28.16-40.376-19.795-65.223zm-35.325-6.915c14.825 17.227 27.953 48.286 13.666 65.554-23.149-11.388-24.185-41.825-13.666-65.554zm-34.453-10.933c14.949 21.989 22.031 50.978 7.62 65.472-21.41-12.838-20.458-42.696-7.62-65.472zm-33.255-14.743c11.015 19.505 18.304 50.729 1.78 64.892-20.126-14.536-15.819-44.476-1.78-64.892zm-31.639-18.387c9.234 19.629 13.583 51.226-3.852 63.857-16.937-13.625-13.458-43.068 3.852-63.857zm-29.653-21.823c7.62 20.375 8.862 51.682-9.11 62.118-16.441-17.724-7.951-45.015 9.11-62.118zm-27.165-25.178c4.928 20.954 4.928 51.143-14.163 60.378-14.37-18.18-4.928-44.393 14.163-60.378zm-24.348-28.076c3.355 21.037 0 50.729-18.925 57.976-13.003-19.174-.165-44.6 18.925-57.976zm-21.285-30.645c2.112 20.002-4.141 49.694-23.397 55.491-10.27-18.345 1.408-42.819 23.397-55.491zm-17.765-33.047c-.746 20.499-7.744 48.534-27.622 52.593-8.986-21.203 6.875-42.944 27.622-52.593zm-14.079-34.951c-1.615 19.753-12.175 47.084-31.473 49.445-5.715-17.724 5.839-40.086 31.473-49.445zm-10.106-36.483c-3.064 19.132-15.819 45.262-34.992 46.091-5.384-19.339 11.802-39.797 34.992-46.091zm-6.253-37.644c-4.141 18.387-19.257 43.233-38.182 42.612-3.23-21.244 16.855-38.678 38.182-42.612zm-2.027-38.348c-5.549 17.435-22.321 41.163-40.998 39.01-2.277-20.167 19.67-36.815 40.998-39.01zm2.194-38.511c-7.081 17.103-25.344 38.679-43.482 35.283-.58-15.737 16.854-34.703 43.482-35.283zm6.417-38.182c-8.282 16.564-28.284 36.11-45.553 31.39.663-15.778 19.547-32.923 45.553-31.39zm10.685-37.518c-9.483 15.405-30.686 33.377-47.54 27.414 2.153-15.612 22.362-30.81 47.54-27.414zm14.864-36.029c-11.057 15.323-33.377 30.355-49.197 23.605 3.479-15.695 24.847-28.988 49.197-23.605zm18.926-34.372c-11.471 13.459-34.869 27.663-50.481 19.381 4.597-14.991 26.711-26.752 50.481-19.381zm22.653-32.548c-12.424 12.424-36.732 24.599-51.558 15.322 7.289-16.937 31.929-22.942 51.558-15.322zm223.5 713.561c-8.573-28.698 6.791-56.858 35.779-62.407 6.585 8.655 9.69 19.049 2.402 33.129a45.806 45.806 0 01-6.833 9.815 51.225 51.225 0 01-9.028 8.282 89.576 89.576 0 01-22.32 11.181zm-50.771-9.691c-4.556-27 11.098-53.462 42.447-56.817 5.383 9.152 7.164 19.629-1.698 32.674a50.442 50.442 0 01-17.642 15.736 82.803 82.803 0 01-11.181 5.053 73.188 73.188 0 01-11.926 3.354zm-49.699-15.114a48.072 48.072 0 0114.245-37.271c11.388-11.305 21.576-13.169 34.165-13.169 4.141 9.484 4.596 19.878-5.674 31.639a47.067 47.067 0 01-8.737 7.744 60.729 60.729 0 01-10.395 5.507 76.16 76.16 0 01-23.604 5.55zm-47.703-20.292a47.913 47.913 0 0136.235-43.317 41.657 41.657 0 0117.227-.289c8.076 27.414-22.321 44.31-53.462 43.606zm-44.849-25.179c5.798-26.213 31.307-44.02 57.645-36.401 4.431 27.663-26.959 40.377-57.645 36.401zm-41.743-29.733c9.318-25.344 35.738-38.554 60.917-28.988.911 27.373-31.225 36.235-60.917 28.988zm-38.056-34c11.512-22.113 39.092-33.998 63.111-20.912-2.319 26.089-35.159 31.887-63.111 20.912zm-34.124-37.642a46.226 46.226 0 0129.475-19.826 46.22 46.22 0 0134.837 6.947c-5.342 24.847-37.85 26.586-64.312 12.879zm-29.816-41.122c17.061-18.552 46.422-21.575 64.602-4.845-8.78 24.35-40.998 20.54-64.602 4.845zm-25.176-43.813c18.345-15.281 47.54-15.861 64.022 3.023-8.324 16.357-34.744 21.368-64.022-3.023zm-20.129-46.216a46.385 46.385 0 0162.324 10.808c-11.016 16.192-39.548 14.577-62.325-10.808zm-14.991-47.953a46.295 46.295 0 0159.715 18.262c-14.08 15.902-37.85 5.715-53.007-10.146a87.086 87.086 0 01-6.708-8.116zm-9.857-49.073c21.659-6.418 47.127 2.982 56.196 25.261-15.612 13.708-38.513 0-50.688-16.564a92.018 92.018 0 01-5.508-8.697zM.597 336.097c25.178-3.851 47.292 12.423 51.972 31.638-13.21 8.614-37.395 2.361-51.972-31.638zm1.033-49.362c24.227-.58 44.518 17.393 47.127 37.27-14.121 6.668-37.022-3.23-47.126-37.27zm6.255-49.196c22.196 2.692 41.411 21.7 41.618 42.405-18.966 6.212-36.897-14.991-41.618-42.405zm11.512-47.955c21.99 5.922 37.726 27.373 35.448 46.795-14.784 2.774-33.957-12.713-35.448-46.795zm16.525-46.256c19.836 8.282 33.13 30.479 28.988 50.315-19.422 1.035-30.934-24.598-28.988-50.315zm21.33-43.98c16.854 10.188 28.366 31.39 22.113 53.007-14.618-1.284-28.367-21.203-22.113-53.007zM83.42 57.98c14.37 11.967 23.646 34.122 14.784 54.828-17.931-4.141-22.776-30.893-14.784-54.829zm29.902-38.182c12.961 14.328 18.552 37.229 7.826 55.74-16.813-6.585-18.096-33.13-7.826-55.74zM201.774.996c-8.779 22.652-30.355 51.889-54.373 53.835-2.112-25.468 26.338-48.286 54.373-53.835zm759.277 67.708c131.519 174.218 97.069 452.669-114.088 582.701-160.677 98.435-322.016 27.331-358.789 123.406a98.458 98.458 0 01-6.585-11.802c48.907-96.489 200.308-21.493 361.15-118.437C1050.79 518.64 1087.77 244.496 958.443 70.609l2.608-1.905z"/><path d="M660.571 629.25c-10.063 8.282-23.397 23.314-25.84 36.069a26.088 26.088 0 00-.539 27.249c.116.413.268.815.456 1.201 26.006-8.573 32.052-38.472 25.923-64.519zm35.742-2.941c-16.565 16.358-32.757 46.381-19.795 65.223 24.598-9.731 28.077-40.376 19.795-65.223zm35.278-6.915c-14.825 17.227-27.952 48.286-13.665 65.554 23.149-11.388 24.184-41.825 13.665-65.554zm34.456-10.933c-14.95 21.989-22.031 50.978-7.62 65.472 21.41-12.838 20.457-42.696 7.62-65.472zm33.252-14.743c-11.016 19.505-18.304 50.729-1.781 64.892 20.126-14.536 15.819-44.476 1.781-64.892zm31.639-18.387c-9.234 19.629-13.583 51.226 3.852 63.857 16.937-13.625 13.458-43.068-3.852-63.857zm29.651-21.823c-7.619 20.375-8.862 51.682 9.111 62.118 16.44-17.724 7.951-45.015-9.111-62.118zm27.167-25.178c-4.928 20.954-4.928 51.143 14.163 60.378 14.37-18.18 4.928-44.393-14.163-60.378zm24.349-28.076c-3.354 21.037 0 50.729 18.925 57.976 13.004-19.174.166-44.6-18.925-57.976zm21.286-30.645c-2.112 20.002 4.141 49.694 23.398 55.491 10.311-18.345-1.408-42.819-23.398-55.491zm17.765-33.047c.745 20.499 7.744 48.534 27.621 52.593 8.821-21.203-6.874-42.944-27.621-52.593zm14.08-34.951c1.615 19.753 12.175 47.084 31.473 49.445 5.711-17.724-5.839-40.086-31.473-49.445zm10.186-36.483c3.065 19.132 15.82 45.262 34.998 46.091 5.3-19.339-11.807-39.797-34.998-46.091zm6.172-37.644c4.141 18.387 19.256 43.233 38.186 42.612 3.23-21.244-17.02-38.678-38.186-42.612zm2.029-38.348c5.549 17.435 22.317 41.163 40.997 39.01 2.28-20.167-19.67-36.815-40.997-39.01zm-2.194-38.511c7.081 17.103 25.341 38.679 43.481 35.283.58-15.737-16.85-34.703-43.481-35.283zm-6.423-38.182c8.283 16.564 28.284 36.11 45.554 31.39-.66-15.778-19.55-32.923-45.554-31.39zm-10.678-37.518c9.483 15.405 30.686 33.377 47.542 27.414-2.16-15.612-22.364-30.81-47.542-27.414zm-14.872-36.029c11.057 15.323 33.378 30.355 49.155 23.605-3.437-15.695-24.846-28.988-49.155-23.605zm-18.923-34.372c11.43 13.459 34.869 27.663 50.481 19.381-4.597-14.991-26.711-26.752-50.481-19.381zm-22.652-32.548c12.423 12.424 36.732 24.599 51.557 15.322-7.288-16.937-31.928-22.942-51.557-15.322zM684.382 785.537c8.573-28.698-6.791-56.858-35.779-62.407-6.585 8.655-9.69 19.049-2.402 33.129a45.806 45.806 0 006.833 9.815 51.225 51.225 0 009.028 8.282 89.576 89.576 0 0022.32 11.181zm50.979-9.691c4.555-27-11.098-53.462-42.447-56.817-5.383 9.152-7.164 19.629 1.698 32.674a50.438 50.438 0 0017.641 15.736 82.859 82.859 0 0011.181 5.053 73.228 73.228 0 0011.927 3.354zm49.693-15.114a48.072 48.072 0 00-14.245-37.271c-11.388-11.305-21.576-13.169-34.165-13.169-4.141 9.484-4.596 19.878 5.674 31.639a47.067 47.067 0 008.737 7.744 60.729 60.729 0 0010.395 5.507 76.16 76.16 0 0023.604 5.55zm47.498-20.293a47.913 47.913 0 00-36.235-43.316 41.671 41.671 0 00-17.186-.414c-8.282 27.538 22.238 44.434 53.421 43.73zm44.85-25.178c-5.797-26.213-31.307-44.02-57.644-36.401-4.431 27.663 26.958 40.377 57.644 36.401zm41.743-29.733c-9.317-25.344-35.738-38.554-60.916-28.988-.911 27.373 31.224 36.235 60.916 28.988zm38.057-34c-11.512-22.113-39.093-33.998-63.111-20.912 2.319 26.089 35.158 31.887 63.111 20.912zm34.126-37.642a46.217 46.217 0 00-64.312-12.879c5.342 24.847 37.85 26.586 64.312 12.879zm29.812-41.122c-17.06-18.552-46.421-21.575-64.601-4.845 8.945 24.35 40.997 20.54 64.601 4.845zm25.18-43.813c-18.35-15.281-47.54-15.861-64.022 3.023 8.324 16.357 34.742 21.368 64.022-3.023zm20.12-46.215a46.367 46.367 0 00-33.17-6.774 46.362 46.362 0 00-28.94 17.582c10.85 16.192 39.34 14.577 62.11-10.808zm15-47.954a46.308 46.308 0 00-59.72 18.262c14.08 15.944 37.85 5.715 53.22-10.146a95.983 95.983 0 006.5-8.116zm9.69-49.073c-21.66-6.418-47.13 2.982-56.2 25.261 15.61 13.708 38.52 0 50.69-16.564a90.9 90.9 0 005.51-8.697zm4.3-49.612c-25.17-3.851-47.29 12.423-51.97 31.638 13.13 8.614 37.4 2.361 51.97-31.638zm-1.03-49.361c-24.23-.373-44.68 17.6-47.13 37.27 14.12 6.668 37.02-3.23 47.13-37.27zm-6.26-49.197c-22.19 2.692-41.41 21.7-41.62 42.405 18.97 6.212 36.9-14.991 41.62-42.405zm-11.51-47.955c-21.99 5.922-37.72 27.373-35.45 46.795 14.79 2.774 33.96-12.713 35.45-46.795zm-16.52-46.256c-19.84 8.282-33.13 30.479-28.99 50.315 19.42 1.035 30.94-24.598 28.99-50.315zm-21.37-43.98c-16.81 10.188-28.32 31.39-22.07 53.007 14.62-1.284 28.37-21.203 22.07-53.007zm-25.92-41.368c-14.578 11.967-23.895 34.122-14.992 54.787 17.932-4.1 22.772-30.852 14.992-54.788zm-30.106-38.182c-13.087 14.328-18.553 37.229-7.827 55.74 16.813-6.585 18.097-33.13 7.827-55.74zM894.256.996c8.779 22.652 30.354 51.889 54.373 53.835 2.112-25.468-26.338-48.286-54.373-53.835z"/></g></svg>