<svg width="1192" height="1280" fill="none" xmlns="http://www.w3.org/2000/svg"><g opacity=".1" stroke="#0D47A1" stroke-miterlimit="10" clip-path="url(#clip0)"><path d="M589.481 176.247c204.343 0 370.004 165.501 370.004 369.662 0 204.161-165.661 369.645-370.004 369.645-204.342 0-370.02-165.435-370.02-369.645"/><path d="M219.461 542.723c0 62.232 6.312 125.224 40.63 180.193 39.937 63.965 89.226 116.095 150.642 153.995 52.776 32.486 117.811 47.326 182.615 42.06 107.235-8.732 209.431-45.89 277.738-122.83 60.376-68.191 90.217-154.408 90.25-252.147 0-83.031-20.01-158.337-64.87-219.958-43.985-60.416-108.26-101.024-178.219-127.436-40.664-15.335-83.69-26.593-128.7-23.027"/><path d="M219.461 539.537c0 60.681-3.602 126.66 36.632 184.22 46.133 66.029 94.017 119.017 155.054 160.648 52.477 35.573 121.23 48.598 186.051 37.967 105.352-17.217 212.439-44.916 281.34-124.217 61.136-70.782 84.583-156.141 84.632-256.076 0-85.606-14.259-161.77-60.276-224.283-45.175-61.39-113.697-96.402-183.656-123.473-41.49-16.045-84.516-30.572-129.608-23.441"/><path d="M219.461 536.351c0 59.113-13.566 128.096 32.617 188.182 52.263 68.076 98.759 121.939 159.482 167.301 52.18 38.659 124.469 49.967 189.504 33.905 103.303-25.503 215.38-43.991 284.926-125.652 61.995-73.292 78.965-157.793 78.965-259.939.082-88.148-8.526-165.072-55.717-228.608-46.347-62.348-119.099-91.763-189.075-119.496-42.316-16.754-85.342-34.549-130.533-23.852"/><path d="M219.461 533.166c0 57.56-23.579 129.548 28.618 192.275 58.343 70.139 103.369 125.009 163.894 173.953 51.767 41.862 127.542 51.502 192.957 29.828 101.056-33.476 218.536-42.918 288.495-127.105 62.987-75.784 73.33-159.575 73.43-263.917.115-90.789-2.793-168.505-51.123-232.949-47.537-63.322-124.519-87.158-194.511-115.55-43.142-17.481-86.169-38.528-131.442-24.249"/><path d="M219.461 529.98c0 56.008-33.608 131.034 24.603 196.319 64.44 72.219 108.078 127.931 168.322 180.589 51.453 44.966 130.533 53.186 196.411 25.751 98.726-41.119 221.543-41.895 292.081-128.475 63.829-78.36 67.745-161.308 67.745-267.846.148-93.298 2.941-171.906-46.563-237.274-48.727-64.378-129.922-82.536-199.93-111.556-43.969-18.158-86.995-42.506-132.368-24.661"/><path d="M219.461 526.81c0 54.474-43.654 132.503 20.604 200.331 70.439 74.283 112.788 130.869 172.734 187.241 51.123 48.069 133.425 55.068 199.931 21.674 96.363-48.432 224.533-40.937 295.649-129.895 64.689-80.885 62.061-163.041 62.243-271.757.165-95.858 8.675-175.307-42.002-241.616-49.9-65.253-135.325-77.98-205.35-107.577-44.795-18.934-87.821-46.485-133.276-25.075"/><path d="M219.461 523.624c0 52.823-53.734 134.006 16.523 204.359 76.519 76.478 117.612 133.791 177.228 193.811 50.809 51.172 136.316 57.099 203.235 17.58 94.001-55.447 227.525-39.947 299.235-131.298 65.515-83.46 56.427-164.758 56.625-275.67.199-98.416 14.408-178.69-37.408-245.957-51.007-66.21-140.662-73.308-210.704-103.516-45.621-19.66-88.631-50.446-134.201-25.471"/><path d="M219.461 520.438c0 51.338-63.829 135.524 12.591 208.387 82.434 78.624 122.271 136.729 181.573 200.546 50.478 54.259 139.257 59.31 206.771 13.503C712.15 880.658 850.944 903.9 923.2 810.156c66.357-86.036 50.809-166.475 51.041-279.599.214-100.974 20.141-182.09-32.849-250.265-52.279-67.201-146.131-68.852-216.206-99.671-46.446-20.402-89.456-54.473-135.11-25.883"/><path d="M219.461 517.253c0 49.785-73.925 137.009 8.576 212.414 88.432 80.786 126.931 139.651 186.001 207.198 50.165 57.346 142.248 61.655 210.225 9.426 89.539-68.786 233.506-37.967 306.39-134.121 67.199-88.611 45.174-168.208 45.422-283.527.264-103.55 25.895-185.492-28.271-254.607-53.453-68.158-151.535-64.279-221.626-95.742-47.256-21.145-90.283-58.402-136.036-26.296"/><path d="M219.461 514.067c0 48.217-84.021 138.66 4.577 216.442 94.397 82.965 131.64 142.572 190.413 213.85 49.851 60.431 145.305 64.111 213.678 5.349 87.457-75.19 236.497-37.059 309.975-135.541 68.026-91.169 39.54-169.925 39.821-287.439.248-106.108 31.645-188.892-23.694-258.948-54.642-69.116-156.971-59.74-227.062-91.681-48.066-21.889-91.026-62.381-136.944-26.692"/><path d="M219.461 510.881c0 46.666-94.182 140.146.562 220.47 100.378 85.144 136.366 145.494 194.858 220.503 49.569 63.516 148.444 66.676 217.098 1.271 85.508-81.463 239.487-36.101 313.561-137.01 68.87-93.744 33.922-171.675 34.219-291.352.314-108.683 37.361-192.292-19.117-263.273-55.815-70.089-162.324-55.216-232.481-87.719-48.893-22.664-91.936-66.359-137.87-27.105"/><path d="M219.461 507.695c0 45.114-104.262 141.714-3.454 224.498 106.344 87.257 141.092 148.333 199.287 227.155 49.206 66.602 151.716 69.332 220.551-2.806 83.657-87.653 242.462-35.144 317.147-138.364 69.678-96.335 28.271-173.325 28.618-295.297.33-111.242 43.09-195.676-14.557-267.598-57.005-71.063-167.694-50.677-237.934-83.741-49.735-23.423-92.778-70.337-138.795-27.517"/><path d="M219.461 504.509c0 43.563-114.39 143.282-7.452 228.542 112.358 89.518 145.817 151.305 203.698 233.791 48.892 69.678 155.07 72.018 224.005-6.9 81.922-93.761 245.436-34.186 320.715-139.766 70.523-98.895 22.654-175.108 23.017-299.209.38-113.801 48.826-199.06-9.914-271.94-58.194-72.02-173.097-46.22-243.32-79.762-50.545-24.183-93.604-74.283-139.721-27.931"/><path d="M219.461 501.323c0 42.011-124.519 144.867-11.467 232.57 118.256 91.73 150.543 154.226 208.192 240.444 48.578 72.763 158.524 74.773 227.459-10.978 80.203-99.835 248.343-33.311 324.234-141.186 71.331-101.469 17.019-176.825 17.416-303.121.396-116.376 54.525-202.461-5.403-276.265-59.368-72.994-178.451-41.647-248.741-75.8-51.354-24.959-94.43-78.277-140.629-28.327"/><path d="M219.461 498.137c0 40.46-134.648 146.452-15.466 236.598 124.189 93.942 155.318 157.132 212.538 247.096 48.281 75.849 162.076 77.579 230.912-15.055 78.733-105.91 251.384-32.288 327.886-142.589 72.139-103.995 11.385-178.558 11.814-307.033.413-118.935 60.295-205.861-.826-280.622-60.558-73.953-183.854-37.142-254.176-71.823-52.164-25.735-95.24-82.255-141.555-28.739"/><path d="M219.461 494.951c0 38.924-144.776 148.037-19.53 240.626 130.153 96.17 160.01 160.119 216.966 253.748 47.917 78.925 165.711 80.345 234.365-19.132 77.279-111.968 254.358-31.363 331.455-144.009 72.983-106.636 5.767-180.274 6.213-310.962.462-121.509 66.09-209.261 3.751-284.947-61.748-74.926-189.224-32.634-259.596-67.844-52.974-26.511-96.066-86.234-142.463-29.152"/><path d="M219.461 491.782c0 37.323-154.905 149.621-23.48 244.636 136.086 98.4 164.737 162.959 221.411 260.401 47.67 82.011 169.413 83.151 237.819-23.209 75.891-118.026 257.316-30.39 335.041-145.428 73.788-109.228.132-181.992.611-314.891.479-124.052 71.757-212.646 8.262-289.256-62.921-75.933-194.594-28.062-265.016-63.882-53.783-27.287-96.892-90.212-143.388-29.548"/><path d="M219.461 488.596c0 35.771-165.05 151.222-27.495 248.681C334 837.888 361.445 903.141 417.772 1004.33c47.372 85.08 173.196 85.97 241.239-27.286 74.586-124.101 260.29-29.449 338.61-146.914 74.599-111.803-5.502-183.709-4.957-318.804.512-126.626 77.506-216.046 12.906-293.596-64.112-76.858-199.932-23.655-270.453-59.905-54.527-28.062-97.718-94.19-144.297-29.96"/><path d="M219.461 485.41c0 34.22-175.146 152.84-31.493 252.709 147.981 102.79 174.204 168.819 230.217 273.691 47.075 88.16 177.046 88.77 244.725-31.366 73.33-130.192 263.248-28.508 342.2-148.251 75.41-114.395-11.141-185.442-10.596-322.732.529-129.202 83.226-219.446 17.466-297.938-65.284-77.815-205.334-19.165-275.938-55.926-55.386-28.871-98.544-98.169-145.222-30.373"/><path d="M219.461 482.224c0 32.668-185.324 154.442-35.508 256.737 153.93 105.084 178.946 171.674 234.629 280.339 46.777 91.24 180.946 91.58 248.162-35.455 72.157-136.333 266.238-27.551 345.816-149.655 76.22-116.986-16.773-187.158-16.211-326.726.578-131.761 88.981-222.847 22.041-302.263-66.472-78.805-210.687-14.692-281.29-51.965-56.179-29.713-99.371-102.13-146.131-30.769"/><path d="M219.461 479.038c0 31.117-195.47 156.059-39.507 260.814 159.862 107.297 183.688 174.596 239.058 286.998 46.479 94.32 184.894 94.37 251.615-39.621 71.05-142.424 269.179-26.61 349.363-151.074 77.03-119.562-22.385-188.892-21.791-330.556.595-134.336 94.711-226.248 26.621-306.605-67.747-79.763-216.059-10.218-286.729-47.986-56.988-30.473-100.196-106.109-147.056-31.182"/><path d="M219.461 475.853c0 29.564-205.615 157.676-43.522 264.791 165.81 109.575 188.364 177.502 243.486 293.646 46.265 97.39 188.893 97.16 255.068-43.611 69.86-148.565 272.137-25.669 352.957-152.477 77.84-122.153-28.094-190.625-27.4-334.502.61-136.877 100.43-229.631 31.18-310.929-68.837-80.72-221.412-5.728-292.148-44.008-57.831-31.265-101.022-110.087-147.965-31.595"/><path d="M219.461 472.667c0 28.062-215.744 159.294-47.521 268.819C343.682 853.322 365.162 921.91 419.838 1041.78c45.885 100.48 192.924 99.94 258.522-47.684 68.769-154.755 275.094-24.761 356.52-153.897 78.65-124.745-33.64-192.342-33.05-338.397.65-139.453 106.18-233.032 35.76-315.287-70.008-81.694-226.747-1.271-297.566-40.047-58.575-32.073-101.832-114.064-148.89-31.991"/><path d="M219.461 469.497c0 26.412-225.888 160.912-51.536 272.848C345.616 856.426 365.84 925.673 420.251 1049.38c45.588 103.51 196.99 102.61 261.975-51.867 67.745-160.946 278.036-23.787 360.104-155.317 79.45-127.336-39.27-194.058-38.6-342.326.68-141.961 111.92-236.432 40.34-319.595-71.217-82.668-232.12 3.186-302.988-36.068-59.368-32.883-102.675-118.043-149.816-32.404"/><path d="M219.461 466.295c0 24.893-236.034 162.546-55.534 276.891C347.549 859.513 366.584 929.42 420.681 1056.82c45.273 106.57 201.07 105.4 265.412-55.89 66.671-167.169 280.993-22.846 363.677-156.72 80.25-129.928-44.91-195.775-44.2-346.238.69-144.603 117.64-239.767 44.91-323.953-72.389-83.626-237.456 7.659-308.407-32.09-60.161-33.708-103.501-122.021-150.741-32.817"/><path d="M219.461 463.109c0 23.341-246.196 164.18-59.484 280.919C349.548 862.599 367.641 933.069 421.16 1064.27c45.125 109.62 205.069 108.19 268.799-59.94 65.663-173.408 283.951-21.905 367.261-158.139 80.96-132.519-50.54-197.508-49.8-350.167.73-147.145 123.38-243.217 49.49-328.262-73.581-84.599-242.895 12.1-313.845-28.062-60.938-34.516-104.328-125.983-151.65-33.229"/><path d="M219.461 459.923c0 21.79-256.324 165.798-63.548 284.947 195.502 120.8 212.389 191.962 265.594 326.89 44.893 112.71 209.332 110.85 272.319-64.01 64.688-179.667 286.892-20.967 370.844-159.545 81.84-135.111-56.18-199.225-55.42-354.095.78-149.704 129.13-246.601 54.07-332.587-74.754-85.557-248.165 16.507-319.264-24.15-61.648-35.342-105.154-129.961-152.526-33.625"/><path d="M219.461 456.754c0 20.221-266.47 167.416-67.563 288.875 201.45 123.177 217.131 194.967 270.022 333.631 44.612 115.79 213.513 113.62 275.772-68.1 63.713-185.933 289.833-20.036 374.418-160.958 82.61-137.703-61.8-200.958-61.01-358.007.8-152.279 134.85-250.002 58.63-336.928-76.008-86.531-253.501 21.013-324.683-20.172-62.507-36.168-105.979-133.94-153.484-34.038"/><path d="M219.461 453.568c0 18.67-276.615 169.05-71.579 292.986 207.366 125.355 221.874 197.789 274.451 340.196 44.282 118.85 217.693 116.31 279.242-72.17 62.788-192.242 292.807-19.081 378.015-162.364 83.44-140.311-67.43-202.691-66.62-361.936.83-154.837 140.6-253.402 63.22-341.253-77.132-87.488-258.854 25.454-330.118-16.21-63.284-36.993-106.806-137.918-154.41-34.45"/><path d="M219.461 450.382c0 17.101-286.76 170.684-75.577 297.014 213.331 127.633 226.599 200.711 278.862 346.844 43.985 121.96 221.89 119 282.662-76.24 61.814-198.567 295.452-18.325 381.582-163.786 83.96-143.068-73.04-204.409-72.2-365.849.84-157.413 146.33-256.802 67.74-345.594-78.3-88.462-264.186 29.894-335.533-12.232-64.06-37.835-107.632-141.962-155.318-34.847"/><path d="M219.461 447.196c0 15.55-296.906 172.335-79.592 301.042C359.148 878.133 371.21 951.87 423.159 1101.72c43.687 125.04 226.103 121.66 286.116-80.32 60.888-204.905 298.425-17.37 385.175-165.205 84.76-145.643-78.69-206.126-77.81-369.761.88-159.955 152.01-260.187 72.34-349.953-79.48-89.42-269.512 34.352-340.958-8.253-64.838-38.677-108.442-145.874-156.244-35.26"/><path d="M219.461 444.01c0 13.932-307.034 173.969-83.591 305.086 225.211 132.14 236.067 206.538 287.702 360.134 43.39 128.13 230.317 124.34 289.569-84.4 59.963-211.29 301.379-16.42 388.759-166.622 85.57-148.218-84.27-207.842-83.43-373.689.91-162.53 157.8-263.587 76.94-354.244-80.87-90.658-274.868 38.792-346.397-4.292-65.597-39.502-109.268-149.836-157.152-35.672"/><path d="M219.461 440.824c0 12.447-317.245 175.604-87.573 309.114 231.127 134.418 240.776 209.46 292.097 366.792 43.076 131.21 234.63 126.97 293.023-88.48 59.053-217.632 304.352-15.48 392.322-168.028 86.4-150.809-89.95-209.641-89.01-377.618.93-165.072 163.58-266.987 81.5-358.585-82.09-91.599-280.188 43.215-351.816-.314C683.631 83.361 639.91-30.109 591.927 87.637"/><path d="M219.461 437.638c0 10.895-327.573 177.667-91.605 313.142 236.86 137.108 245.568 212.381 296.542 373.44 42.779 134.32 238.793 129.62 296.476-92.57 58.145-223.987 307.336-14.51 395.916-169.43 87.19-153.385-95.59-211.292-94.63-381.531.96-167.663 169.26-270.388 86.07-362.927-83.2-92.54-285.507 47.656-357.234 3.665-67.134-41.268-110.921-157.793-158.987-36.481"/><path d="M219.461 434.453c0 9.343-337.685 179.251-95.62 317.169 242.891 139.32 250.277 215.303 300.97 380.098 42.481 137.39 243.056 132.25 299.929-96.65 57.237-230.477 310.27-13.57 399.48-170.853 88.02-155.96-101.2-212.943-100.21-385.443.99-170.238 175-273.788 90.64-367.251-84.35-93.464-290.804 52.08-362.663 7.626-67.894-42.044-111.746-161.77-159.895-36.894"/><path d="M219.461 431.267c0 7.791-347.797 180.836-99.618 321.196 248.806 141.533 255.002 218.225 305.381 386.747 42.168 140.48 247.27 134.86 303.449-100.73 56.278-236.792 313.177-12.69 402.997-172.249 88.83-158.469-106.84-214.759-105.74-389.388 1.02-172.781 180.74-277.172 95.22-371.577-85.53-94.404-296.163 56.521-368.089 11.555-68.654-42.919-112.572-165.749-160.82-37.29"/><path d="M219.461 428.081c0 6.223-357.909 182.421-103.634 325.191 254.788 143.761 259.745 221.18 309.81 393.428 41.87 143.62 251.566 137.49 306.836-104.8 55.452-243.216 316.207-11.67 406.657-173.672 89.63-161.126-112.48-216.475-111.44-393.3 1.04-175.356 186.47-280.622 99.8-375.918-86.66-95.296-301.496 60.945-373.421 15.566-69.398-43.727-113.415-169.71-161.746-37.686"/><path d="M219.461 424.928c0 4.671-368.021 184.005-107.632 329.269C372.582 900.104 376.316 978.199 426.051 1154.2c41.572 146.65 255.845 140.08 310.272-108.95 54.527-249.637 319.197-10.71 410.237-175.09 90.47-163.702-118.11-218.192-117.03-397.213 1.09-177.914 192.21-283.923 104.37-380.243-87.83-96.32-306.815 65.369-378.922 19.528-70.174-44.57-114.242-173.672-162.671-38.098"/><path d="M219.461 421.726c0 3.103-378.084 185.59-111.647 333.346C374.548 903.158 377.043 981.963 426.48 1161.69c41.259 149.67 260.092 142.69 313.759-112.96 53.668-256.072 322.101-9.73 413.771-176.457 91.28-166.294-123.74-219.926-122.63-401.125 1.11-180.49 197.95-287.357 108.94-384.617-89.01-97.26-312.045 69.66-384.351 23.506-70.835-45.593-115.051-177.65-163.579-38.512"/><path d="M219.461 418.54c0 1.551-388.295 187.175-115.662 337.307C376.432 905.98 377.77 985.726 426.893 1169.19c40.945 152.8 264.884 145.38 317.246-117.06 53.353-262.459 325.111-8.81 417.391-177.893 92.28-169.083-129.36-221.642-128.22-405.053 1.04-183.048 203.58-290.758 113.4-388.926s-317.411 74.15-389.782 27.484C685.3 61.357 641.051-73.837 592.423 68.835"/><path d="M219.46 415.354S-178.881 604.113 99.8 756.722c278.68 152.609 278.696 232.752 327.506 419.958 40.647 155.9 268.65 147.89 320.616-121.18 51.965-269.065 328.088-7.86 420.978-179.315 92.89-171.46-134.99-223.359-133.84-408.982 1.16-185.624 209.42-294.092 118.09-393.185-91.32-99.093-322.777 78.64-395.199 31.446C685.53 58.27 641.248-80.192 592.538 66.144"/></g><defs><clipPath id="clip0"><path fill="#fff" transform="rotate(-90 640 640)" d="M0 0h1280v1192H0z"/></clipPath></defs></svg>