<svg width="1711" height="1591" fill="none" xmlns="http://www.w3.org/2000/svg"><g opacity=".3" stroke="#fff" stroke-miterlimit="10"><path d="M235.527 804.086c0-272.743 221.228-493.856 494.134-493.856 272.909 0 494.109 221.113 494.109 493.856 0 272.744-221.14 493.874-494.109 493.874"/><path d="M725.402 1297.96c83.187 0 167.389-8.42 240.867-54.23 85.501-53.3 155.191-119.09 205.851-201.06 43.42-70.444 63.26-157.249 56.22-243.745-11.67-143.131-61.34-279.535-164.19-370.706-91.151-80.586-206.399-120.415-337.049-120.459-110.989 0-211.652 26.707-294.022 86.584-80.76 58.708-135.041 144.498-170.345 237.875-20.499 54.275-35.548 111.703-30.782 171.779"/><path d="M721.144 1297.96c81.112 0 169.308 4.81 246.25-48.89 88.266-61.57 159.096-125.49 214.746-206.96 47.55-70.039 64.96-161.806 50.75-248.324-23.02-140.616-60.04-283.548-166.05-375.514-94.614-81.6-208.714-112.894-342.298-112.96-114.432 0-216.242 19.032-299.804 80.453-82.061 60.296-128.862 151.754-165.049 245.13-21.448 55.378-40.866 112.807-31.333 172.992"/><path d="M716.885 1297.96c79.016 0 171.228 18.11 251.546-43.53 90.999-69.76 162.999-131.82 223.629-212.87 51.68-69.643 66.8-166.129 45.33-252.934-34.09-137.882-58.81-287.475-167.97-380.3-97.966-82.747-210.919-105.396-347.46-105.396-117.83-.111-220.655 11.38-305.585 74.366-83.341 61.861-122.662 158.965-159.732 252.364-22.396 56.481-46.183 113.909-31.884 174.227"/><path d="M712.627 1297.96c76.942 0 173.169 31.47 257.018-38.19 93.755-77.88 167.105-137.97 232.525-218.76 55.96-69.093 68.84-170.233 39.87-257.545-44.75-134.882-57.37-291.687-169.9-385.063-101.304-84.07-213.308-97.876-352.784-98.008-121.36-.155-225.244 3.727-311.387 68.235-84.643 63.449-116.506 166.199-154.459 259.62-23.367 57.583-51.5 115.012-32.414 175.44"/><path d="M708.368 1297.96c74.868 0 175.155 44.86 262.424-32.83 96.538-86.02 171.008-144.26 241.398-224.67 60.1-68.675 71.09-174.226 34.42-262.156-54.96-131.772-56-295.7-171.74-389.849-104.74-85.194-215.619-90.421-358.029-90.421-124.714-.199-229.79-3.926-317.169 62.148-86.056 65.038-110.328 173.411-149.119 266.854-24.272 58.686-56.818 116.114-32.966 176.675"/><path d="M704.132 1297.96c72.816 0 177.119 58.27 267.786-27.5 99.292-94.01 174.932-150.54 250.292-230.55 64.25-68.236 73.61-178.087 28.97-266.854-64.74-128.619-54.72-299.693-173.63-394.613-108.126-86.342-217.945-82.835-363.268-83.078-128.135-.22-234.336-11.578-322.972 56.062-87.225 66.603-104.238 180.622-143.801 274.087-25.309 59.789-62.136 117.217-33.517 177.888"/><path d="M699.873 1297.96c70.609 0 179.127 71.72 273.17-22.05 102.227-102.13 178.837-156.98 259.067-236.55 68.41-67.818 76.33-181.948 23.5-271.266-74.11-125.466-53.4-303.685-175.51-399.399-111.558-87.444-220.231-75.315-368.488-75.579-131.555-.265-238.859-19.231-328.776 49.93-88.504 68.081-97.992 187.746-138.372 281.233-26.28 60.891-67.432 118.298-34.047 179.123"/><path d="M695.614 1297.96c68.623 0 181.157 85.2 278.554-16.8 105.102-110.03 182.772-163.2 268.072-242.35 72.53-67.378 79.28-185.875 18.05-275.987-83.16-122.466-52.1-307.72-177.41-404.163-115.001-88.569-222.526-67.816-373.74-68.124-134.975-.287-243.404-26.884-334.535 43.843-89.828 69.779-92.035 195.046-133.231 288.577-27.273 61.994-72.816 119.401-34.598 180.336"/><path d="M691.356 1297.96c66.549 0 183.143 98.67 283.938-11.44 107.986-118.04 186.676-169.42 276.966-248.26 76.65-66.961 82.41-189.868 12.6-280.598-91.95-119.511-50.75-311.668-179.28-408.948-118.45-89.694-224.85-60.296-378.999-60.626-138.417-.353-247.95-34.559-340.338 37.734-91.108 71.345-85.923 202.258-127.98 295.811-28.265 63.074-78.067 120.503-35.15 181.571"/><path d="M687.097 1297.96c64.453 0 185.35 112.15 289.322-6.11 110.901-125.99 190.581-175.7 285.861-254.15 80.78-66.533 85.7-193.939 7.15-285.199-100.51-116.732-49.54-315.659-181.18-413.733-121.871-90.797-227.145-52.775-384.229-53.15-141.836-.331-252.495-42.234-346.141 31.625-92.388 72.933-79.854 209.513-122.551 303.067-29.259 64.155-83.385 121.495-35.68 182.783"/><path d="M682.838 1297.96c62.379 0 187.336 125.71 294.706-.75 113.816-133.97 194.486-182.01 294.746-260.08 84.91-66.161 89.13-198.133 1.7-289.767-108.89-114.13-48.25-319.651-183.14-418.52-125.309-91.921-229.48-45.277-389.455-45.674-145.279-.419-257.04-49.864-351.922 25.517-93.69 74.499-73.809 216.659-117.256 310.3-30.296 65.258-88.703 122.709-36.231 184.019"/><path d="M678.579 1297.96c60.305 0 189.432 139.16 300.09 4.61 116.641-141.94 198.281-188.32 303.641-265.99 89.04-65.678 92.68-202.501-3.75-294.378-117.17-111.66-46.98-323.621-184.95-423.305-128.776-93.002-231.689-37.735-394.731-38.198-148.699-.441-261.564-57.517-357.703 19.43-94.992 76.086-67.741 223.826-111.938 317.578-31.311 66.383-94.021 123.834-36.783 185.254"/><path d="M674.321 1297.96c58.231 0 191.528 152.68 305.496 9.95 119.663-149.97 202.253-194.63 312.513-271.88 93.14-65.26 96.27-206.979-9.22-298.989-125.33-109.343-45.7-327.59-186.83-428.068-132.196-94.127-234.072-30.236-399.96-30.722-152.119-.507-266.087-65.169-363.506 13.233-96.272 77.674-61.784 231.038-106.621 324.768-32.326 67.463-99.294 124.936-37.334 186.489"/><path d="M670.062 1297.96c56.157 0 193.647 166.2 310.881 15.31 122.617-157.84 206.157-200.93 321.407-277.88 97.26-64.84 99.95-211.588-14.68-303.597-133.45-107.051-44.52-331.472-188.72-432.767-135.638-95.207-236.367-22.715-405.189-23.245-155.562-.529-270.633-72.778-369.288 7.212-97.573 79.24-55.671 238.184-101.324 332.002-33.363 68.544-104.635 126.038-37.865 187.701"/><path d="M665.804 1297.96c54.082 0 195.764 179.72 316.264 20.65 125.572-165.76 210.042-207.31 330.302-283.68 101.39-64.447 103.7-216.333-20.13-308.21-141.57-105.087-43.16-335.53-190.6-437.64-139.012-96.288-238.682-15.195-410.417-15.769-158.982-.551-275.178-80.475-375.113 1.103-98.853 80.828-49.647 245.395-96.007 339.257-34.4 69.625-109.952 127.12-38.415 188.937"/><path d="M661.545 1297.96c52.03 0 197.883 193.24 321.648 26.07 128.557-173.72 214.037-213.57 339.187-289.59 105.5-63.957 107.4-221.18-25.57-312.814-149.67-103.147-41.93-339.5-192.5-442.404-142.543-97.413-240.977-7.697-415.669-8.293-162.424-.617-279.724-88.216-380.894-5.006-100.155 82.416-43.623 252.563-90.689 346.491-35.437 70.705-115.27 128.222-38.967 190.15"/><path d="M657.308 1297.96c49.89 0 200.002 206.76 327.01 31.34 131.532-181.63 217.832-219.88 348.082-295.52 109.62-63.627 111.14-226.122-31.02-317.425-157.77-101.295-40.63-343.448-194.4-447.19-146.007-98.493-243.272-.176-420.921-.816-165.822-.64-284.247-95.781-386.653-11.027-101.501 83.982-37.511 259.73-85.393 353.725-36.474 71.786-120.588 129.325-39.497 191.385"/><path d="M653.05 1297.96c47.815 0 202.141 220.3 332.416 36.7 134.484-189.57 221.714-226.21 356.974-301.39 113.73-63.228 114.92-231.169-36.47-321.988-165.89-99.552-39.37-347.417-196.39-451.953-149.446-99.574-245.563 7.344-426.146 6.616-169.265-.683-288.793-103.455-392.457-17.224-102.737 85.57-31.619 266.854-80.075 360.981-37.511 72.778-125.906 130.427-40.049 192.597"/><path d="M648.791 1297.96c45.742 0 204.304 233.78 337.8 42.04 137.399-197.52 225.659-232.52 365.849-307.28 117.85-62.832 118.66-236.309-41.93-326.642-174.03-97.876-38.11-351.365-198.17-456.739-152.912-100.655-247.881 14.864-431.4 14.136-172.706-.706-293.338-111.086-398.259-23.311-104.017 87.136-25.618 274.066-74.758 368.303-38.593 73.925-131.224 131.53-40.601 193.832"/><path d="M644.533 1297.96c43.667 0 206.444 247.36 343.184 47.4 140.473-205.46 229.483-238.85 374.733-313.17 121.96-62.434 122.42-241.513-47.39-331.229-182.24-96.31-36.83-355.357-200.05-461.569-156.376-101.735-250.176 22.385-436.739 21.635-176.127-.772-297.884-118.761-404.041-29.42-105.341 88.723-19.638 281.211-69.462 375.448-39.718 74.984-136.519 132.633-41.13 195.046"/><path d="M640.274 1297.96c41.593 0 208.607 260.9 348.634 52.74 143.422-213.38 233.382-245.18 383.632-319.08 126.08-62.041 126.15-246.787-52.96-335.842-190.38-94.832-35.57-359.282-201.94-466.31-159.822-102.816-252.497 29.883-441.863 29.089-179.569-.794-302.429-126.414-409.844-35.529-106.62 90.422-13.658 288.379-64.144 382.704-40.733 76.064-141.837 133.735-41.682 196.281"/><path d="M636.015 1297.96c39.519 0 210.77 274.44 353.952 58.09 146.473-221.31 237.273-251.41 392.523-324.98 130.19-61.755 129.88-252.126-58.3-340.452-198.59-93.245-34.31-363.23-203.82-471.096-163.28-103.897-254.808 37.491-447.13 36.565-182.967-.816-306.953-134.044-415.625-41.616-107.901 91.877-7.657 295.524-58.827 389.938-41.792 77.189-147.155 134.838-42.233 197.494"/><path d="M631.757 1297.96c37.511 0 212.931 287.96 359.336 63.43 149.497-229.23 241.177-257.9 401.417-330.88 134.31-61.24 133.58-257.499-63.75-345.053-206.86-91.789-33.1-367.178-205.72-475.86-166.745-104.977-257.103 44.902-452.338 44.108-186.409-.86-311.498-141.719-421.45-47.725-109.202 93.443-1.699 302.648-53.531 397.171-42.873 78.182-152.472 135.919-42.763 198.729"/><path d="M627.52 1297.96c35.305 0 215.094 301.5 364.72 68.79 152.49-237.17 245.06-264.16 410.42-336.79 138.37-60.844 137.16-262.925-69.33-349.663-215.14-90.422-31.8-371.104-207.62-480.646-170.209-106.036-259.398 52.423-457.59 51.518-189.763-.904-316.043-149.372-427.209-53.834-110.504 95.053 4.258 309.815-48.213 404.405-43.955 79.24-157.79 137.044-43.315 199.964"/><path d="M623.239 1297.96c33.275 0 217.279 315.05 370.126 74.13 155.495-245.09 248.945-270.5 419.245-342.7 142.45-60.428 140.89-268.376-74.71-354.254-223.46-88.988-30.54-375.051-209.49-485.41-173.681-107.116-261.7 59.943-462.827 58.995-193.293-.926-320.501-157.025-433.035-59.943-111.783 96.619 10.239 316.939-42.895 411.639-45.058 80.299-163.108 138.146-43.866 201.199"/><path d="M618.98 1297.96c31.201 0 219.463 328.61 375.51 79.4 158.5-253.03 252.69-277.18 428.07-348.61 146.54-60.229 144.62-273.713-80.12-358.775-231.8-87.643-29.28-378.999-211.39-490.195-177.138-108.065-264.01 67.463-468.071 66.471-196.692-.971-325.113-164.678-438.794-66.052-113.086 98.207 16.174 324.194-37.511 418.894-46.139 81.336-168.404 139.25-44.418 202.412"/><path d="M614.722 1297.96c29.126 0 221.625 342.13 380.894 84.82 161.474-260.94 256.604-283.48 436.964-354.49 150.66-59.924 148.17-279.406-85.57-363.475-240.16-86.342-28.02-382.925-213.26-494.981C953.14 60.6 867.437 244.817 660.419 243.803c-200.111-1.037-329.636-172.352-444.575-72.161-114.365 99.773 22.066 331.23-32.281 426.128-47.243 82.284-173.722 140.352-44.948 203.581"/><path d="M610.485 1297.96c27.03 0 223.788 355.67 386.146 90.18 164.649-268.88 260.619-289.81 445.969-360.4 154.79-59.55 151.87-284.986-91.02-368.086-248.55-85.04-26.79-386.85-215.16-499.744-184.075-110.27-268.629 82.482-478.56 81.423-203.554-1.059-334.182-179.983-450.378-78.248-115.668 101.449 28.089 338.353-26.964 433.362-48.346 83.431-179.04 141.455-45.499 204.86"/><path d="M606.227 1297.96c24.956 0 225.972 369.21 391.64 95.54 167.563-276.78 264.393-296.14 454.743-366.32 158.88-59.1 155.48-290.558-96.47-372.709-256.97-83.805-25.5-390.819-217.03-504.552-187.559-111.373-270.944 90.002-483.81 88.922-206.974-1.103-338.726-187.658-456.159-84.379C82.194 257.41 233.166 499.961 177.473 595.08c-49.449 84.467-184.357 142.557-46.051 206.095"/><path d="M601.968 1297.96c22.86 0 228.157 382.75 397.024 100.88 170.608-284.74 268.298-302.45 463.638-372.21 163.02-58.705 159.07-296.161-101.92-377.276-265.42-82.504-24.49-394.348-218.93-509.315-191.244-112.057-273.239 97.501-489.039 96.376-210.417-1.125-343.273-195.31-461.963-90.422-118.248 104.514 39.961 352.622-16.35 447.852-50.574 85.503-189.763 143.66-46.58 207.308"/><path d="M597.71 1297.96c20.785 0 230.363 396.29 402.41 106.24 173.63-292.68 272.2-308.78 472.51-378.12 167.14-58.309 162.62-301.786-107.37-381.886-273.9-81.269-23.22-398.318-220.83-514.102C949.742 16.955 868.894 235.113 650.159 233.944c-213.814-1.168-347.796-202.897-467.788-96.552-119.528 106.08 45.919 359.723-11.032 455.085-51.7 86.54-194.993 144.741-47.132 208.543"/><path d="M593.451 1297.96c18.623 0 232.548 409.81 407.809 111.58 176.64-300.6 276.09-315.09 481.41-384.01 171.27-57.914 166.19-307.411-112.82-386.497-282.44-80.034-21.96-402.265-222.73-518.887C948.992 5.928 869.291 232.622 647.6 231.497c-217.257-1.213-352.342-210.616-473.525-102.684-121.184 107.933 51.854 366.869-5.737 462.341-52.803 87.555-200.288 145.843-47.684 209.756"/><path d="M589.192 1297.96c16.637 0 234.733 423.44 413.198 116.89 179.68-308.49 279.99-321.37 490.29-389.87 175.4-57.496 169.73-313.168-118.27-391.107-290.91-78.821-20.69-406.236-224.6-523.651C948.219-5.098 869.578 230.284 645.04 229.027c-220.655-1.235-356.887-218.335-479.328-108.771-122.441 109.565 57.767 373.971-.42 469.575-53.927 88.591-205.606 146.946-48.213 210.991"/><path d="M584.933 1297.96c14.564 0 237.491 437.23 418.587 122.27 183.27-316.14 283.89-327.77 499.18-395.8 179.55-57.1 173.26-318.727-123.74-395.718-299.41-77.608-19.4-410.205-226.48-528.437-205.033-116.38-282.439 127.583-510 126.304C418.361 225.3 281.048.657 157.349 111.699c-123.7 111.042 63.703 381.072 4.898 476.808-55.163 89.606-210.924 148.049-48.764 212.204"/><path d="M580.675 1297.96c12.489 0 239.609 450.72 423.965 127.63 186.23-324.19 287.8-334.05 508.08-401.71 183.65-56.705 176.79-324.419-129.19-400.329-308.08-76.395-18.14-414.131-228.38-533.2C946.675-27.131 870.505 225.432 639.921 224.108 412.36 222.785 273.943-9.466 149.008 103.12c-124.934 112.586 69.617 388.151 10.195 484.064-56.201 90.62-216.242 149.152-49.317 213.417"/><path d="M576.416 1297.96c10.415 0 241.727 464.22 429.354 132.97 189.18-332.09 291.7-340.36 516.97-407.6 187.77-56.287 180.27-330.044-134.65-405.027-316.53-75.116-16.96-418.012-230.25-537.898C946.012-38.158 870.769 223.006 637.339 221.55 406.379 220.182 266.837-19.7 140.645 94.452 14.452 208.604 216.197 489.749 156.091 585.75c-57.37 91.635-221.56 150.254-49.846 214.652"/><path d="M572.158 1297.96c8.318 0 243.845 477.72 434.692 138.33 192.17-340.08 295.65-346.69 525.91-413.52 191.96-55.882 183.78-335.769-140.1-409.54-325.11-74.013-15.6-422.048-232.15-542.772C945.13-49.185 871.145 220.58 634.779 219.191c-234.401-1.39-375.113-248.88-502.497-133.207-127.383 115.674 81.466 402.42 20.808 498.421-58.451 92.627-226.855 151.379-50.375 215.887"/><path d="M567.943 1297.96c6.245 0 245.964 491.21 440.137 143.66 195.04-348.03 299.43-353.02 534.69-419.4 196.03-55.486 187.25-341.482-145.63-414.128-333.7-72.779-14.32-426.04-234.05-547.558C944.269-60.212 871.431 218.176 632.131 216.743 394.31 215.287 252.605-39.812 123.854 77.428c-128.752 117.239 87.379 409.521 26.103 505.765C90.38 676.856-82.193 735.674 99.03 800.315"/><path d="M563.663 1297.96c4.148 0 248.082 504.64 445.587 149.02 197.95-356.02 303.29-359.35 543.54-425.33 200.07-55.07 190.73-347.154-150.99-418.785-342.3-71.632-13.02-429.922-235.88-552.278C943.63-71.239 871.939 215.75 629.727 214.273 388.463 212.795 245.611-49.935 115.601 68.87c-130.01 118.805 93.116 416.491 31.421 512.999-60.944 94.546-237.468 153.563-51.478 218.335"/><path d="M559.404 1297.96c2.074 0 250.2 518.27 450.886 154.38 200.68-363.89 307.28-365.68 552.52-431.24 204.26-54.653 194.33-353.551-156.47-423.44-350.84-71.213-11.78-433.935-237.8-557.107C942.526-82.62 872.27 213.214 627.101 211.692 382.417 210.303 238.439-60.036 107.216 60.335c-131.223 120.371 99.118 423.658 36.739 520.255-62.004 95.604-242.72 154.665-52.008 219.57"/><path d="M555.144 1297.97s252.319 531.67 456.316 159.71c203.99-371.96 311.12-371.98 561.37-437.13 208.38-54.255 197.68-358.579-161.99-427.939-359.66-69.36-10.5-437.905-239.69-561.893C941.952-93.269 872.578 210.9 624.452 209.356 376.326 207.812 231.333-70.157 98.875 51.736c-132.46 121.893 105.119 430.826 42.034 527.488-63.085 96.663-248.17 155.768-52.56 220.783"/></g></svg>