<svg width="1440" height="1483" fill="none" xmlns="http://www.w3.org/2000/svg"><g opacity=".1" stroke="#0D47A1" stroke-miterlimit="10" clip-path="url(#clip0)"><path d="M250.362 627.604c52.888-197.379 255.626-314.561 452.83-261.721 197.205 52.841 314.178 255.688 261.286 453.068-52.887 197.379-255.566 314.599-452.818 261.739"/><path d="M508.582 1079.87c60.112 16.1 122.59 26.31 184.569 7.39 72.122-22.02 135.232-56.14 187.737-105.653 45.038-42.569 76.205-101.548 87.891-165.506 19.32-105.842 9.879-214.173-46.76-300.066-50.242-75.967-125.797-127.106-220.198-152.435-80.202-21.49-158.12-21.653-229.253 5.73-69.741 26.85-125.601 78.425-169.219 139.164-25.337 35.309-47.348 73.956-55.553 118.354"/><path d="M505.505 1079.04c58.613 15.71 121.412 36.26 187.424 12.3 75.719-27.47 139.295-60.01 195.305-108.193 47.943-41.482 78.318-104.522 84.826-169.885 10.637-106.218 11.598-216.825-47.167-303.904-52.548-77.372-128.93-122.112-225.446-148.025-82.69-22.156-159.949-28.096-232.242.174-70.99 27.746-122.544 84.871-166.8 145.44-26.236 35.923-51.404 73.724-56.186 119.125"/><path d="M502.428 1078.22c57.098 15.3 120.22 46.26 190.211 17.2 79.283-32.86 143.345-63.84 202.877-110.749 50.848-40.396 80.48-107.296 81.798-174.272 2.102-106.384 13.251-219.427-47.627-307.739-54.749-78.852-131.978-117.113-230.644-143.551-85.124-22.894-161.654-34.488-235.239-5.35-72.219 28.632-119.462 91.291-164.36 151.705-27.136 36.537-55.46 73.492-56.825 119.912"/><path d="M499.351 1077.39c55.599 14.9 119.031 56.31 193.131 22.13 82.849-38.21 147.503-67.5 210.444-113.291 53.834-39.169 82.758-109.867 78.753-178.663-6.181-106.277 15.105-222.198-48.106-311.562-56.9-80.455-135.158-112.133-235.919-139.234-87.666-23.61-163.487-40.915-238.244-10.911-73.467 29.529-116.416 97.718-161.956 157.977-28.051 37.147-59.517 73.26-57.442 120.687"/><path d="M496.273 1076.57c54.1 14.5 117.871 66.38 195.998 27.05 86.437-43.56 151.544-71.29 218-115.851 56.751-38.062 85.159-112.32 75.709-183.054-14.166-106.004 16.87-224.837-48.502-315.38C878.309 407.4 799.2 382.149 696.293 354.575c-90.081-24.291-165.287-47.333-241.241-16.435-74.795 30.404-113.349 104.133-159.5 164.245-28.919 37.771-63.573 73.029-58.08 121.474"/><path d="M493.212 1075.75c52.617 14.1 116.689 76.46 198.838 31.95 89.982-48.82 155.601-75.08 225.567-118.39 59.663-36.94 87.723-114.626 72.681-187.509-21.841-105.615 18.572-227.478-48.949-319.195-61.386-83.418-141.423-102.144-246.388-130.458-92.548-24.969-167.088-53.751-244.254-21.964-75.944 31.311-110.347 110.532-157.06 170.511-29.882 38.367-67.63 72.797-58.714 122.245"/><path d="M490.134 1074.92c51.023 13.68 115.532 86.59 201.672 36.94 93.677-54.12 159.673-78.98 233.077-121.031 62.579-35.833 90.437-116.893 69.582-191.76-29.229-105.148 20.305-230.111-49.376-323.021-63.66-84.884-144.54-97.147-251.621-126.045-95.011-25.663-168.873-60.165-247.258-27.524-77.156 32.133-107.217 116.895-154.524 176.732-30.797 38.978-71.666 72.554-59.337 123.036"/><path d="M487.057 1074.1c49.588 13.29 114.386 96.73 204.545 41.77 97.28-59.27 163.716-82.71 240.707-123.479 65.475-34.715 93.331-119.162 66.559-196.231-36.348-104.729 22.022-232.779-49.824-326.836-65.929-86.364-147.652-92.164-256.861-121.666-97.479-26.342-170.673-66.584-250.24-33.045-78.442 33.105-104.327 123.332-152.232 183.042-31.729 39.584-75.771 72.31-59.971 123.808"/><path d="M483.98 1073.28c48.089 12.88 113.208 106.86 207.396 46.69 100.921-64.51 167.744-86.46 248.279-126.038 68.375-33.613 96.365-121.444 63.515-200.622-43.268-104.291 23.76-235.376-50.252-330.663-68.199-87.844-150.785-87.17-262.11-117.257-99.953-27.056-172.47-73.018-253.249-38.589-79.67 33.991-101.308 129.734-149.84 189.294-32.656 40.174-79.779 72.091-60.608 124.595"/><path d="M480.902 1072.45c46.575 12.48 112.19 117.05 210.252 51.6 104.57-69.71 171.786-90.26 255.846-128.577 71.28-32.511 99.54-123.76 60.47-205.013-49.992-103.938 25.41-238.03-50.694-334.494-70.456-89.304-153.901-82.172-267.339-112.859-102.428-27.702-174.266-79.452-256.257-44.134-80.903 34.892-98.331 136.161-147.325 195.597-33.583 40.763-83.814 71.779-61.226 125.369"/><path d="M477.825 1071.63c45.076 12.07 110.995 127.24 213.103 56.52 108.223-74.93 175.831-94.07 263.423-131.153 74.189-31.44 102.819-126.13 57.419-209.372-56.559-103.678 27.11-240.67-51.188-338.337-72.725-90.785-157.045-77.199-272.567-108.461-104.899-28.432-176.071-85.855-259.251-49.674-82.147 35.773-95.347 142.502-144.9 201.857-34.547 41.36-87.893 71.627-61.865 126.156"/><path d="M474.748 1070.8c43.576 11.68 109.9 137.39 215.954 61.44 111.807-80.13 179.796-97.89 270.994-133.702 77.074-30.29 106.234-128.603 54.374-213.763-63.016-103.493 28.81-243.296-51.566-342.151-75.02-92.237-160.103-72.168-277.829-104.071-107.366-29.111-177.855-92.269-262.247-55.199-83.396 36.67-92.353 148.864-142.47 208.153-35.497 41.978-91.953 71.412-62.502 126.944"/><path d="M471.671 1069.98c42.078 11.27 108.793 147.57 218.826 66.35 115.548-85.36 183.889-101.69 278.545-136.25 79.958-29.194 109.698-131.147 51.308-218.16-69.359-103.397 30.51-245.92-51.992-345.961-77.273-93.714-163.279-67.203-283.057-99.674-109.824-29.82-179.64-98.682-265.239-60.807-84.629 37.572-89.446 155.237-140.021 214.386-36.441 42.563-95.978 71.189-63.141 127.731"/><path d="M468.593 1069.15c40.579 10.88 107.703 157.77 221.677 71.27 119.212-90.48 187.935-105.49 286.135-138.86 82.855-28.095 113.255-133.773 48.265-222.554-75.673-103.31 32.1-248.503-52.454-349.728-79.551-95.162-166.395-62.205-288.286-95.276-112.308-30.503-181.449-105.069-268.249-66.283-85.873 38.453-86.415 161.591-137.597 220.646-37.4 43.144-100.05 70.953-63.758 128.506"/><path d="M465.516 1068.33c39.08 10.47 106.612 167.96 224.532 76.17 122.884-95.64 191.977-109.35 293.686-141.34 85.766-27.004 116.886-136.473 45.226-226.94-81.927-103.462 33.87-251.175-52.871-353.619-81.78-96.598-169.527-57.211-293.514-90.877-114.774-31.182-183.241-111.52-271.273-71.833-87.106 39.354-83.461 167.976-135.162 226.927-38.358 43.725-104.102 70.705-64.396 129.292"/><path d="M462.439 1067.5c37.597 10.08 105.521 178.16 227.371 81.15 126.58-100.83 196.077-113.12 301.257-143.9 88.633-25.86 120.493-139.273 42.183-231.333-88.156-103.625 35.53-253.808-53.319-357.433-84.114-98.096-172.64-52.229-298.759-86.484-117.249-31.896-185.025-118.002-274.267-77.373-88.354 40.251-80.497 174.33-132.721 233.191-39.318 44.307-108.159 70.474-65.03 130.064"/><path d="M459.377 1066.68c36.051 9.66 104.431 188.35 230.224 86 130.268-105.98 200.043-116.95 308.833-146.47 91.556-24.821 124.156-142.121 39.136-235.723-94.365-103.852 37.24-256.413-53.76-361.264-86.407-99.548-175.756-47.231-304.003-82.09-119.701-32.57-186.827-124.352-277.261-82.845-89.631 41.123-77.471 180.7-130.297 239.451-40.277 44.888-112.216 70.242-65.653 130.855"/><path d="M456.3 1065.86c34.552 9.26 103.351 198.56 233.091 90.92 133.944-111.15 204.076-120.78 316.399-148.99 94.44-23.742 127.86-145.048 36.08-240.085-100.57-104.164 38.92-259.043-54.272-365.096-88.685-100.997-178.872-42.233-309.223-77.724-122.179-33.269-188.623-130.786-280.253-88.454-90.831 42.034-74.594 186.996-127.861 245.732-41.219 45.406-116.272 70.01-66.287 131.626"/><path d="M453.223 1065.03c33.053 8.86 102.301 208.74 235.946 95.83 137.588-116.34 208.154-124.57 323.951-151.54 97.34-22.649 131.57-148.034 33.04-244.501-106.775-104.528 40.6-261.656-54.631-368.906-90.979-102.45-182.005-37.239-314.476-73.299-124.663-33.95-190.429-137.188-283.266-93.982-92.06 42.919-71.656 193.377-125.439 252.061-42.222 46.026-120.328 69.778-66.924 132.413"/><path d="M450.145 1064.21c31.555 8.45 101.213 218.98 238.798 100.75 141.344-121.49 212.14-128.42 331.517-154.08 100.23-21.571 135.29-151.078 29.98-248.884-113.013-104.984 42.29-264.297-55.053-372.764-93.273-103.903-185.122-32.241-319.789-68.906-127.121-34.661-192.225-143.623-286.259-99.522-93.324 43.811-68.721 199.705-122.997 258.256-43.241 46.575-124.369 69.552-67.543 133.188"/><path d="M447.068 1063.38c30.056 8.06 100.15 229.2 241.701 105.67 145.016-126.65 216.189-132.24 339.091-156.63 103.13-20.487 139.01-154.173 26.85-253.299-119.18-105.491 43.97-266.894-55.501-376.563-95.551-105.351-188.25-27.262-324.934-64.502-129.604-35.344-194.025-150.041-289.268-105.067-94.578 44.792-65.789 206.05-120.561 264.537-44.184 47.16-128.426 69.32-68.181 133.975"/><path d="M443.991 1062.56c28.557 7.65 99.087 239.42 244.504 110.57 148.756-131.8 220.206-136 346.655-159.19 106.05-19.477 142.74-157.305 23.9-257.66-125.426-105.931 45.64-269.508-55.94-380.39-97.839-106.804-191.395-22.205-330.189-60.113-132.056-36.017-195.815-156.439-292.265-110.592-95.786 45.599-62.838 212.384-118.122 270.802-45.167 47.769-132.482 69.088-68.814 134.746"/><path d="M440.913 1061.74c27.106 7.26 98.028 249.62 247.361 115.47 152.475-136.94 224.285-139.94 354.226-161.72 108.93-18.32 146.46-160.491 20.85-262.061-131.686-106.48 47.28-272.129-56.38-384.204-100.139-108.257-194.496-17.287-335.421-55.663-134.534-36.716-197.611-162.874-295.29-116.141-97.03 46.48-59.914 218.693-115.698 277.063-46.14 48.277-136.534 68.84-69.436 135.537"/><path d="M437.852 1060.92c25.511 6.83 96.965 259.83 250.212 120.39 156.183-142.11 228.306-143.72 361.876-164.26 111.79-17.241 150.1-163.719 17.71-266.471-137.929-107.092 48.98-274.719-56.82-388.035-102.44-109.694-197.615-12.289-340.655-51.317C533.226 273.83 470.764 141.935 371.908 189.55c-98.283 47.393-56.999 225.033-113.257 283.327-47.128 48.834-140.595 68.625-70.075 136.324"/><path d="M434.758 1060.09c24.045 6.44 95.918 270.06 253.084 125.3 159.887-147.25 232.339-147.55 369.398-166.83 114.66-16.15 153.85-166.937 14.71-270.831-144.217-107.666 50.66-277.332-57.25-391.846-104.734-111.146-200.732-7.291-345.884-46.92-139.496-38.096-201.148-175.692-301.291-127.225-99.512 48.278-54.06 231.347-110.818 289.592-48.13 49.387-144.652 68.393-70.713 137.111"/><path d="M431.681 1059.26c22.546 6.04 94.866 280.3 255.952 130.17 163.595-152.43 236.346-151.66 376.927-169.4 117.57-15.22 157.58-170.083 11.67-275.156-150.5-108.307 52.34-279.945-57.69-395.676-107.051-112.504-203.862-2.297-351.127-42.526C525.47 267.885 464.417 124.548 363.145 173.91c-100.76 49.175-51.178 237.747-108.334 295.885-49.113 49.928-148.692 68.166-71.347 137.883"/><path d="M428.604 1058.44c21.047 5.64 93.807 290.5 258.79 135.13 167.283-157.58 240.392-155.47 384.496-171.94 120.49-14.19 161.25-173.509 8.65-279.606-156.804-108.985 54-282.543-58.13-399.503-109.324-114.02-206.975 2.701-356.371-38.116-144.402-39.497-204.777-188.554-307.261-138.302-101.989 50.06-48.285 243.979-105.958 302.132-50.094 50.401-152.749 67.935-71.956 138.626"/><path d="M425.542 1057.62c19.533 5.23 92.744 300.72 261.546 140.02 171.119-162.7 244.521-159.27 392.142-174.47 123.4-13.12 165.01-176.828 5.61-283.997-163.114-109.666 55.65-285.144-58.57-403.317-111.632-115.441-210.109 7.679-361.602-33.735-146.885-40.178-206.582-194.956-310.275-143.83-103.254 51.021-45.312 250.3-103.518 308.397-51.113 51.017-156.805 67.703-72.602 139.445"/><path d="M422.465 1056.79c18.034 4.83 91.697 310.95 264.477 144.97 174.755-167.85 248.475-163.12 399.638-177.05 126.26-12.01 168.69-180.169 2.56-288.403-169.439-110.405 57.35-287.769-58.99-407.16-113.935-116.914-213.239 12.673-366.848-29.325-149.348-40.872-208.378-201.39-313.263-149.386-104.47 51.859-42.409 256.62-101.098 314.673-52.112 51.553-160.862 67.471-73.241 140.232"/><path d="M419.388 1055.97c16.519 4.42 90.649 321.16 267.332 149.87 178.499-173.03 252.52-166.93 407.21-179.59 129.18-10.92 172.37-183.526-.49-292.761-175.805-111.1 58.76-290.127-59.45-410.975-116.46-118.123-216.346 17.655-372.067-24.943-151.831-41.555-210.179-207.809-316.285-154.883-105.714 52.74-39.502 262.925-98.659 320.938-53.125 52.085-164.981 67.222-73.858 141.006"/><path d="M416.31 1055.14c15.02 4.03 89.618 331.4 270.184 154.8 182.223-178.19 256.57-170.76 414.766-182.15 132.08-9.84 176.03-186.912-3.54-297.156-182.162-111.846 60.46-292.751-59.88-414.806-118.746-119.571-219.471 22.653-377.304-20.544C506.258 253.038 448.559 81.109 341.23 134.836c-106.942 53.625-36.573 269.217-96.218 327.202-54.139 52.617-168.97 66.992-74.497 141.794"/><path d="M413.233 1054.32c13.458 3.6 88.575 341.6 273.056 159.7 185.926-183.33 260.598-174.56 422.331-184.69 134.99-8.74 179.7-190.285-6.58-301.542-188.575-112.606 62.14-295.365-60.33-418.636-121.02-121.02-222.57 27.603-382.549-16.136-156.756-42.943-213.764-220.64-322.262-165.995-108.498 54.645-33.67 275.537-93.798 333.478-55.134 53.138-173.011 66.765-75.131 142.565"/><path d="M410.156 1053.49c12.022 3.23 87.511 351.89 275.915 164.6 189.658-188.46 264.64-178.36 429.889-187.21 137.9-7.65 183.38-193.776-9.62-305.942-194.932-113.369 63.82-297.994-60.76-422.447-123.309-122.489-225.78 32.628-387.789-11.758-159.208-43.617-215.553-227.107-325.276-171.524-109.722 55.583-30.773 281.822-91.358 339.743-56.148 53.67-177.067 66.533-75.753 143.356"/><path d="M407.079 1052.67c10.523 2.82 86.83 362.39 278.762 169.53 193.74-193.3 268.702-182.23 437.469-189.78 140.81-6.56 187-197.114-12.69-310.337-201.3-114.135 65.53-300.615-61.18-426.273-125.594-123.921-228.835 37.643-393.024-7.344-161.703-44.32-217.366-233.477-328.285-177.069-110.918 56.409-27.861 288.111-88.918 346.008-57.237 54.165-181.124 66.301-76.387 144.127"/><path d="M404.001 1051.85c9.025 2.41 85.744 372.57 281.613 174.45 197.439-198.56 272.744-186.03 445.036-192.34 143.71-5.48 190.66-200.547-15.72-314.727-207.811-114.937 67.19-303.212-61.64-430.089-127.864-125.385-231.88 42.643-398.245-2.961-164.181-45.019-219.167-239.896-331.277-182.609-112.111 57.286-24.961 294.378-86.499 352.284-58.183 54.698-185.18 66.069-77.02 144.898"/><path d="M400.924 1051.02c7.526 2.02 84.658 382.75 284.469 179.36 201.106-203.7 276.788-189.84 452.607-194.88 146.6-4.37 194.27-203.941-18.76-319.181-214.157-115.648 68.8-305.795-62.08-433.851-130.074-126.817-235.088 47.615-403.485 1.364-166.628-45.709-220.947-246.326-334.27-188.15-113.323 58.176-22.057 300.699-84.106 358.536-59.226 55.206-189.237 65.838-77.643 145.689"/><path d="M397.846 1050.2c6.011 1.61 83.572 392.92 287.289 184.26 204.806-208.89 280.87-193.64 460.215-197.42 149.55-3.28 197.91-207.411-21.82-323.508-220.58-116.511 70.56-308.45-62.51-437.745C928.587 147.5 822.814 328.4 652.283 281.629 483.172 235.238 429.484 28.888 315.004 87.934c-114.479 59.047-19.165 306.999-81.613 364.729-60.199 55.716-193.282 65.627-78.265 146.481"/><path d="M394.801 1049.38c4.512 1.21 82.485 403.11 290.192 189.19 208.423-214.11 284.824-197.5 467.697-199.99 152.41-2.2 201.53-210.873-24.93-327.899-227.018-117.28 72.27-311.092-62.95-441.576-134.707-129.752-241.323 57.611-413.965 10.239-171.57-47.101-224.501-259.15-340.272-199.234-115.772 59.915-16.27 313.283-79.211 371.069-61.213 56.247-197.322 65.399-78.903 147.267"/><path d="M391.708 1048.55c2.997.8 81.411 413.24 293.091 194.12 212.076-219.32 288.842-201.33 475.241-202.57 155.25-1.11 205.14-214.295-27.9-332.3-233.461-118.116 73.96-313.649-63.36-445.347-137.001-131.204-244.455 62.605-419.194 14.638C475.533 229.307 423.253 11.514 306.269 72.319c-116.984 60.805-13.475 319.438-76.771 377.334-62.372 56.621-201.374 65.151-79.536 148.038"/><path d="M388.63 1047.73c1.499.4 80.299 423.51 295.879 199.02 215.58-224.49 292.955-205.14 482.881-205.11 158.2 0 208.98-218.227-30.96-336.727-239.709-119.466 75.63-316.314-63.8-449.213-139.441-132.9-247.575 67.587-424.441 19.015C471.647 226.333 420.03 2.816 301.865 64.519c-118.164 61.703-10.528 325.787-74.335 383.614-63.343 57.182-205.383 64.933-80.159 148.83"/><path d="M385.553 1046.9s79.229 433.63 298.766 203.94c219.537-229.69 296.953-208.96 490.411-207.65 161.11 1.08 212.38-221.225-34.07-341.059-246.444-119.835 77.33-318.939-64.25-453.045-141.571-134.105-250.683 72.585-429.682 23.425-178.999-49.16-229.87-278.396-349.222-215.83-119.353 62.564-7.582 332.135-71.912 389.874-64.33 57.739-209.535 64.675-80.792 149.6"/></g><defs><clipPath id="clip0"><path fill="#fff" transform="rotate(-165 679.569 664.717)" d="M0 0h1280v1192H0z"/></clipPath></defs></svg>