<svg width="1317" height="1955" fill="none" xmlns="http://www.w3.org/2000/svg"><g opacity=".1" stroke="#0D47A1" stroke-miterlimit="10"><path d="M-110.328 678.272C24.137 487.232 287.875 441.26 478.745 575.605s236.571 398.116 102.107 589.155c-134.464 191.04-398.151 237.07-589.068 102.7"/><path d="M-11.195 1265.36c58.181 40.95 121.225 76.5 195.199 80.59 86.081 4.75 167.251-7.03 243.098-39.51 65.099-27.96 121.769-78.99 159.489-143.04 62.401-106.01 94.91-226 67.927-340.489-24.023-101.318-84.991-185.95-176.345-250.296-77.626-54.638-161.197-85.484-248.326-84.093-85.427 1.365-165.687 34.735-236.414 82.76-41.095 27.926-79.933 60.743-106.217 105.169"/><path d="M-14.173 1263.26c56.73 39.93 116.044 86.72 196.333 86.98 92.087.32 173.135-9.58 252.22-39.25 67.789-25.65 125.208-81.36 157.923-148.96 53.229-109.82 97.8-228.162 69.001-344.761-25.945-103.733-90.319-181.822-183.715-247.629-80.033-56.332-160.623-93.119-249.347-91.233-87.12 1.837-164.942 42.859-236.287 90.45-42.302 28.23-84.195 58.897-107.2 105.746"/><path d="M-17.152 1261.17c55.264 38.89 110.83 96.97 197.395 93.33 98.035-4.06 178.987-12.09 261.354-39.01 70.479-23.34 128.619-83.48 156.399-154.86 44.133-113.36 100.599-230.303 70.018-349.057-27.726-106.188-95.559-177.657-191.056-244.872-82.356-58.082-159.936-100.652-250.389-98.343-88.787 2.304-164.161 50.963-236.135 98.134-43.509 28.536-88.458 57.052-108.195 106.34"/><path d="M-20.13 1259.07c53.813 37.88 105.6 107.29 198.59 99.77 103.966-8.39 184.892-14.38 270.477-38.76 73.201-20.85 132.077-85.35 154.859-160.77 35.201-116.5 103.679-232.55 71.009-353.352-29.404-108.755-100.934-173.562-198.418-242.315-84.803-59.851-159.373-108.272-251.425-105.494-90.481 2.775-163.422 59.06-236.023 105.813-44.732 28.83-92.721 55.206-109.164 106.928"/><path d="M-23.109 1256.97c52.363 36.86 100.389 117.65 199.73 106.19 109.921-12.73 190.722-16.86 279.594-38.53 75.896-18.52 135.619-87.04 153.32-166.68 26.523-119.36 106.615-234.694 72.087-357.612-31.257-111.237-106.229-169.481-205.831-239.587-87.127-61.532-158.78-115.869-252.468-112.603-92.251 3.192-162.656 67.153-235.854 113.508-45.909 29.158-96.985 53.361-110.159 107.522"/><path d="M-26.072 1254.89c50.928 35.84 95.152 128 200.849 112.56 115.797-16.97 196.567-19.33 288.716-38.28 78.58-16.16 139.281-88.5 151.824-172.65 18.131-121.96 109.478-236.858 73.109-361.881-33.053-113.702-111.59-165.308-213.109-237.017-89.509-63.232-158.186-123.467-253.526-119.723-93.841 3.713-161.952 75.202-235.702 121.193-47.177 29.419-101.247 51.515-111.142 108.1"/><path d="M-29.05 1252.79c49.384 34.76 89.923 138.42 201.928 119.03 121.851-21.21 202.474-21.92 297.816-38.16 81.275-13.83 143.082-89.87 150.172-178.43 10.017-124.37 112.371-239.005 74.156-366.159-34.917-116.169-116.902-161.17-220.464-234.339-91.878-64.946-157.576-131.054-254.561-126.875-95.465 4.119-161.097 83.266-235.428 128.871-48.4 29.713-105.484 49.665-112.122 108.704"/><path d="M-32.029 1250.69c47.996 33.79 84.7 148.86 203.106 125.36 127.75-25.33 208.288-24.34 306.972-37.79 83.944-11.49 147.086-91.16 148.687-184.42 2.211-126.72 115.272-241.19 75.177-370.429-36.769-118.652-122.204-157.047-227.811-231.703-94.26-66.645-156.983-138.652-255.589-133.973-97.228 4.656-160.528 91.312-235.453 136.545-49.638 29.997-109.793 47.787-113.105 109.282"/><path d="M-35.007 1248.6c46.545 32.76 79.445 159.27 204.229 131.76 133.719-29.52 214.085-26.78 316.106-37.55 86.623-9.17 151.245-92.42 147.147-190.34-5.388-128.97 118.16-243.289 76.225-374.701-38.623-121.134-127.532-152.92-235.181-229.035-96.635-68.387-156.378-146.266-256.636-141.11-98.895 5.123-159.809 99.372-235.346 144.197-50.866 30.266-114.01 45.975-114.1 109.877"/><path d="M-37.986 1246.5c45.08 31.73 74.346 169.8 205.364 138.15 139.681-33.66 219.915-29.25 325.228-37.3 89.302-6.84 155.556-93.65 145.607-196.25-12.745-131.24 120.977-245.483 77.258-378.983C675 648.527 582.626 623.335 472.946 545.743c-99.037-70.054-155.773-153.879-257.682-148.244C114.691 403.103 56.121 504.94-19.863 549.45c-52.093 30.534-118.218 44.052-115.069 110.465"/><path d="M-40.964 1244.41c43.628 30.7 69.048 180.27 206.487 144.55 145.654-37.82 225.757-31.75 334.372-37.08 92.003-4.54 160.014-94.91 144.046-202.13-19.893-133.54 123.84-247.65 78.243-383.303-42.323-126.072-138.177-144.681-249.867-223.711-101.402-71.811-155.191-161.462-258.714-155.37-102.256 6.061-158.437 115.423-234.99 159.625-53.362 30.796-122.535 42.284-116.063 111.059"/><path d="M-43.943 1242.31c42.178 29.69 63.882 190.73 207.611 150.95 151.554-42 231.521-34.29 343.505-36.83 94.65-2.18 164.651-96.22 142.507-208.04-26.898-135.89 126.692-249.807 79.337-387.552-44.214-128.534-143.439-140.485-257.242-221.07-103.783-73.51-154.582-169.049-259.757-162.48C108.07 383.82 54.292 500.719-22.84 544.629c-54.626 31.084-126.809 40.454-117.058 111.652"/><path d="M-46.921 1240.21c40.727 28.67 58.682 201.23 208.76 157.36 157.627-46.14 237.408-36.76 352.612-36.6 97.314.14 169.374-97.58 140.953-213.96-33.75-138.29 129.544-251.955 80.373-391.809-46.051-131.006-148.802-136.406-264.585-218.408-106.142-75.24-153.972-176.636-260.76-169.677C104.805 374.13 53.317 498.531-24.252 542.111c-55.869 31.34-131.041 38.63-118.052 112.245"/><path d="M-49.9 1238.12c39.276 27.64 53.5 211.74 209.884 163.76 163.576-50.2 243.25-39.26 361.789-36.42 99.993 2.46 174.224-99 139.413-219.88-40.56-140.68 132.275-254.096 81.362-396.031-47.926-133.458-154.115-132.268-271.929-215.746-108.538-76.95-153.4-184.203-261.835-176.74-107.309 7.47-156.363 139.428-234.546 182.668-57.127 31.587-135.319 36.774-119.021 112.834"/><path d="M-52.878 1236.02c37.825 26.62 48.315 222.25 211.018 170.15 169.547-54.29 249.108-41.81 370.868-36.11 102.683 4.78 179.185-100.47 137.873-225.78-47.206-143.3 135.233-256.269 82.454-400.373-49.755-135.876-159.443-128.141-279.273-213.083-110.92-78.649-152.785-191.832-262.897-183.887C98.178 354.89 51.459 494.382-27.239 537.305c-58.385 31.834-139.572 34.913-120.016 113.428"/><path d="M-55.856 1233.92c36.39 25.62 43.131 232.77 212.109 176.6 175.555-58.4 254.988-44.23 380.001-35.87 105.314 7.14 184.154-102.05 136.333-231.69-53.827-145.93 138.055-258.441 83.475-404.644-51.669-138.402-164.744-124.018-286.631-210.432-113.295-80.39-152.147-199.491-263.929-191.011-110.68 8.424-155.026 155.431-234.25 198.053-59.644 32.08-143.835 33.067-121 114.006"/><path d="M-58.82 1231.84c34.893 24.56 37.949 243.27 213.261 182.93 181.542-62.48 260.753-46.78 389.145-35.65 108.037 9.4 189.213-103.67 134.794-237.61-60.404-148.613 140.912-260.559 84.508-408.924-53.56-140.864-170.058-119.88-293.99-207.78-115.661-82.078-151.582-207.017-264.989-198.064C91.515 335.6 49.624 490.202-30.205 532.469c-60.9 32.326-148.097 31.222-121.978 114.61"/><path d="M-61.798 1229.74c33.442 23.54 32.77 253.82 214.399 189.35 187.525-66.59 266.59-49.31 398.257-35.38 110.712 11.7 194.342-105.35 133.233-243.49-66.942-151.393 143.748-262.724 85.467-413.241-55.434-143.317-175.37-115.743-301.312-205.15-118.046-83.803-150.977-214.63-265.992-205.261C88.213 325.93 48.578 487.918-31.717 529.995c-62.116 32.511-152.361 29.376-122.963 115.188"/><path d="M-64.777 1227.64c31.992 22.52 27.639 264.32 215.534 195.74 193.476-70.71 272.462-51.78 407.364-35.14 113.402 14.01 199.499-107.1 131.715-249.43-73.463-154.225 146.574-264.868 86.576-417.471C719.088 575.56 595.714 609.723 467.72 518.872c-120.443-85.513-150.394-222.213-267.05-212.381C84.962 316.319 47.636 485.846-33.192 527.664c-63.437 32.782-156.623 27.531-123.957 115.782"/><path d="M-67.755 1225.55c30.541 21.49 22.438 274.89 216.657 202.14 199.535-74.76 278.252-54.33 416.486-34.88 116.077 16.3 204.689-108.91 130.15-255.34-79.976-157.175 149.437-267.04 87.645-421.784-59.214-148.24-186.01-107.477-316.123-199.843C344.257 428.6 317.27 286.017 198.978 296.337 81.561 306.626 46.603 483.641-34.702 525.122c-64.747 32.969-160.871 25.696-124.926 116.371"/><path d="M-70.734 1223.45c29.09 20.48 17.275 285.44 217.838 208.56 205.507-78.85 284.104-56.84 425.62-34.64 118.767 18.61 209.895-110.76 128.533-261.31-86.4-160.142 152.251-269.164 88.656-426.033-61.09-150.692-191.328-103.365-323.379-197.142-125.199-88.953-149.197-237.424-269.129-226.642C78.255 297.092 45.679 481.512-36.134 522.728c-65.989 33.227-165.134 23.852-125.92 116.965"/><path d="M-73.712 1221.36c27.64 19.45 12.11 295.98 218.915 214.93 211.55-82.92 289.897-59.3 434.752-34.41 121.497 20.83 215.135-112.66 127.071-267.16-92.923-163.075 155.078-271.314 89.704-430.313-62.98-153.154-196.7-99.176-330.754-194.501-127.564-90.642-148.597-244.995-270.171-233.751C75.043 287.393 44.755 479.383-37.581 520.324c-67.284 33.493-169.396 22.006-126.904 117.543"/><path d="M-76.69 1219.26c26.235 18.46 6.957 306.52 220.049 221.32 217.568-86.97 295.825-61.92 443.875-34.15 124.132 23.22 220.38-114.61 125.531-273.08-99.428-166.125 157.873-273.478 90.725-434.58-64.869-155.616-201.958-95.116-338.114-191.781-129.95-92.367-147.993-252.609-271.234-240.899C71.698 277.784 43.746 477.241-39.106 517.934c-68.529 33.656-173.648 20.145-127.883 118.147"/><path d="M-79.654 1217.17c24.692 17.38 1.795 317.07 221.173 227.73 223.581-91.06 301.629-64.4 453.086-33.86 126.775 25.49 225.554-116.65 123.899-279.05-105.889-169.247 160.719-275.593 91.757-438.872-66.771-158.064-207.27-90.978-345.44-189.177-132.275-94.049-147.399-260.207-272.25-248.012C68.423 268.11 42.808 475.033-40.524 515.457c-69.808 33.866-177.922 18.315-128.878 118.741"/><path d="M-82.647 1215.07c23.272 16.38-3.354 327.63 222.322 234.12 229.583-95.12 307.466-66.92 462.172-33.66 129.425 27.8 230.849-118.62 122.396-284.91-112.414-172.334 163.544-277.736 92.793-443.128-68.66-160.526-212.582-86.841-352.783-186.515-134.733-95.802-146.744-267.761-273.312-255.158C65.125 258.466 41.848 472.856-42.001 513.031c-71.102 34.064-182.186 16.47-129.873 119.334"/><path d="M-85.626 1212.97c21.822 15.36-8.513 338.2 223.49 240.47 235.596-99.21 313.383-69.75 471.259-33.46 132.181 29.95 236.088-120.52 120.843-290.74-118.911-175.495 166.371-279.879 93.826-447.412-70.616-162.895-217.911-82.713-360.142-183.863-137.088-97.506-146.197-275.392-274.329-262.273C61.813 248.811 40.803 470.734-43.433 510.638c-72.368 34.257-186.432 14.635-130.856 119.912"/><path d="M-88.605 1210.87c20.371 14.34-13.665 348.74 224.581 246.92 241.583-103.29 319.225-72.25 480.381-33.2 134.916 32.2 241.378-122.76 119.348-296.71-125.402-178.707 169.185-282.015 94.873-451.693-72.462-165.42-223.223-78.576-367.512-181.196-139.447-99.236-145.576-282.995-275.36-269.398C58.531 239.179 39.84 468.462-44.956 508.18c-73.608 34.378-190.696 12.789-131.804 120.47"/><path d="M-91.568 1208.79c18.905 13.3-18.828 359.29 225.612 253.25 247.719-107.28 325.154-74.7 489.592-32.9 137.616 34.49 246.721-124.85 117.808-302.63-131.908-181.919 171.985-284.153 95.895-455.96-74.375-167.851-228.541-74.464-374.845-178.549C320.65 391.055 317.501 201.424 186.076 215.483 55.164 229.601 38.911 466.307-46.434 505.754c-74.944 34.639-194.958 10.944-132.819 121.094"/><path d="M-94.546 1206.69c17.454 12.29-23.977 369.85 226.812 259.71 253.649-111.37 330.914-77.27 498.648-32.72 140.254 36.81 251.987-126.98 116.279-308.55-138.411-185.205 174.837-286.305 96.954-460.253-76.27-170.34-233.869-70.336-382.215-175.882-144.214-102.66-144.389-298.19-277.438-283.658C51.947 219.876 37.957 464.088-47.889 503.297c-76.228 34.822-199.221 9.099-133.815 121.688"/><path d="M-97.525 1204.59c15.989 11.26-29.124 380.41 227.947 266.11 259.704-115.46 336.755-79.78 507.77-32.47 142.96 39.13 257.265-129.14 114.718-314.44-144.963-188.449 177.287-288.273 97.975-464.519-78.509-172.633-239.17-66.214-389.547-173.235-146.61-104.371-143.795-305.788-278.518-290.748C48.59 210.283 36.923 461.951-49.41 500.933c-77.525 34.994-203.546 7.21-134.783 122.277"/><path d="M-100.503 1202.5c14.537 10.23-34.258 390.98 229.07 272.5 265.732-119.52 342.607-82.28 516.888-32.24 145.65 41.44 262.522-131.33 113.179-320.34-151.499-191.762 180.139-290.43 99.007-468.813-80.384-175.084-244.483-62.076-396.89-170.572-148.966-106.075-143.219-313.329-279.57-297.91C45.284 200.587 35.949 459.695-50.896 498.454c-78.824 35.166-207.737 5.393-135.778 122.871"/><path d="M-103.482 1200.4c13.026 9.17-39.394 401.53 230.22 278.91 271.735-123.6 348.433-84.79 526.011-31.99 148.339 43.75 267.794-133.51 111.639-326.26-158.08-195.097 182.965-292.572 100.039-473.094-82.259-177.536-249.763-57.985-404.26-167.906-151.351-107.8-142.592-320.973-280.559-305.029C41.64 190.976 35.005 457.528-52.342 496.05c-80.096 35.334-211.984 3.558-136.762 123.448"/><path d="M-106.46 1198.31c11.636 8.19-44.586 412.14 231.365 285.28 277.757-127.63 354.263-87.28 535.122-31.73 151.019 46.08 273.101-135.8 110.1-332.17-164.604-198.414 185.801-294.729 101.076-477.35-84.139-180.013-255.186-53.855-411.608-165.27-153.717-109.488-141.966-328.617-281.618-312.149C38.326 181.39 34.009 455.303-53.82 493.625c-81.393 35.505-216.247 1.712-137.741 124.052"/><path d="M-109.438 1196.21c10.185 7.17-49.453 423.16 232.477 291.7 284.045-131.22 360.148-89.83 544.266-31.5 153.725 48.39 278.311-137.96 108.545-338.09-171.143-201.754 188.669-296.876 102.124-481.633-86.024-182.449-260.437-49.673-418.963-162.592-156.118-111.224-141.404-336.169-282.664-319.284C35.087 171.695 33.029 453.089-55.297 491.198c-82.758 35.608-220.51-.133-138.725 124.631"/><path d="M-112.417 1194.11c8.735 6.15-54.625 433.66 233.601 298.11 290.081-135.41 365.978-92.31 553.399-31.27 156.4 50.69 283.585-140.2 107.006-344-177.807-205.169 191.484-299.003 103.145-485.9-87.888-184.916-265.677-45.507-426.295-159.945-158.504-112.95-140.811-343.767-283.696-326.409C31.858 162.053 32.071 450.843-56.775 488.773c-83.983 35.808-224.772-1.979-139.708 125.209"/><path d="M-115.395 1192.02c7.284 5.12-59.799 444.15 234.735 304.49 296.042-139.48 371.819-94.8 562.521-31.01 159.079 53.01 288.797-142.43 105.51-349.98C603.024 907.088 981.587 814.376 891.52 625.408c-89.7-187.324-271.081-41.434-433.625-157.366-160.859-114.653-140.191-351.369-284.728-333.534C28.63 152.343 31.124 448.583-58.244 486.237c-85.301 35.943-229.035-3.824-140.687 125.813"/><path d="M-118.374 1189.92c5.818 4.1-64.971 454.65 235.828 310.87 302.061-143.6 377.702-97.29 571.686-30.75 161.815 55.36 294.076-144.71 103.926-355.82-190.894-211.889 197.163-303.302 105.225-494.464-91.652-189.83-276.394-37.297-441.023-154.627-163.256-116.363-139.655-358.984-285.775-340.67C25.373 142.774 30.073 446.435-59.68 483.817c-86.547 36.106-233.293-5.643-141.667 126.418"/><path d="M-121.322 1187.85c4.368 3.07-70.143 465.14 237.009 317.29 307.993-147.77 383.461-99.87 580.731-30.55 164.459 57.63 299.316-147.01 102.315-361.77C601.226 897.577 998.758 807.358 904.99 614.075c-93.517-192.296-281.707-33.158-448.367-151.964C291.008 344.018 317.666 95.579 169.817 114.316 21.967 133.054 29.032 444.177-61.273 481.425c-87.845 36.278-237.541-7.477-142.661 127.012"/><path d="M-124.316 1185.74c2.902 2.04-75.283 475.59 238.179 323.73 313.965-151.92 389.282-102.4 589.844-30.35 167.077 59.91 304.553-149.27 100.859-367.67-204.091-218.676 202.854-307.539 107.303-502.951-95.407-194.759-287.035-29.032-455.71-149.302C288.147 339.394 317.764 85.044 168.264 104.26 18.763 123.475 28.056 441.826-62.673 479.054c-89.237 36.222-241.793-9.339-143.645 127.589"/><path d="M-127.294 1183.64c1.451 1.02-80.521 486.19 239.24 330.09 319.761-156.09 395.196-104.86 599.039-30.07 169.803 62.28 310.215-151.97 99.326-373.61C600.041 887.456 1016 800.3 918.652 602.763c-97.351-197.537-292.337-24.909-463.058-146.666C285.147 334.672 317.728 74.439 166.607 94.154 15.485 113.87 27.063 439.695-64.188 476.648c-90.499 36.442-246.009-11.151-144.624 128.194"/><path d="M-130.273 1181.55s-85.65 496.62 240.405 336.5 400.991-107.4 608.131-29.84c172.492 64.58 315.037-153.85 97.685-379.49-217.356-225.633 208.542-311.892 109.374-511.565-99.171-199.673-297.649-20.771-470.428-143.999C282.116 329.928 317.749 63.851 165.013 84.024 12.277 104.196 26.133 437.54-65.644 474.19c-91.777 36.652-250.365-13.062-145.608 128.772"/></g></svg>