<svg width="2731" height="2823" fill="none" xmlns="http://www.w3.org/2000/svg"><g opacity=".1" stroke="#0D47A1" stroke-miterlimit="10"><path d="M552.382 1546.09c134.464-191.04 398.202-237.02 589.068-102.67 190.88 134.34 236.58 398.12 102.11 589.16-134.46 191.04-398.15 237.07-589.066 102.69"/><path d="M651.515 2133.17c58.181 40.95 121.225 76.5 195.199 80.59 86.08 4.75 167.246-7.02 243.096-39.5 65.1-27.96 121.77-79 159.49-143.05 62.4-106 94.91-226 67.93-340.49-24.02-101.31-84.99-185.94-176.35-250.29-77.62-54.64-161.194-85.49-248.324-84.09-85.426 1.36-165.686 34.73-236.414 82.76-41.094 27.92-79.932 60.74-106.217 105.16"/><path d="M648.537 2131.08c56.73 39.93 116.044 86.71 196.332 86.97 92.088.32 173.131-9.58 252.221-39.25 67.79-25.65 125.21-81.36 157.92-148.95 53.23-109.83 97.8-228.17 69-344.77-25.94-103.73-90.31-181.82-183.71-247.63-80.03-56.33-160.624-93.11-249.348-91.23-87.12 1.84-164.942 42.86-236.287 90.45-42.302 28.23-84.196 58.9-107.201 105.75"/><path d="M645.558 2128.98c55.264 38.9 110.83 96.97 197.395 93.34 98.034-4.07 178.987-12.09 261.357-39.01 70.48-23.35 128.62-83.49 156.4-154.86 44.13-113.36 100.59-230.31 70.01-349.06-27.72-106.19-95.56-177.66-191.05-244.88-82.36-58.08-159.939-100.65-250.391-98.34-88.788 2.31-164.162 50.96-236.135 98.14-43.509 28.53-88.458 57.05-108.195 106.34"/><path d="M642.58 2126.88c53.813 37.88 105.599 107.29 198.59 99.77 103.965-8.39 184.89-14.38 270.48-38.76 73.2-20.85 132.07-85.34 154.86-160.76 35.2-116.51 103.68-232.56 71-353.36-29.4-108.75-100.93-173.56-198.41-242.31-84.81-59.85-159.376-108.27-251.428-105.5-90.481 2.78-163.422 59.06-236.023 105.82-44.732 28.83-92.722 55.2-109.164 106.92"/><path d="M639.601 2124.79c52.363 36.85 100.389 117.64 199.729 106.18 109.922-12.72 190.72-16.86 279.59-38.53 75.9-18.51 135.62-87.04 153.32-166.68 26.53-119.36 106.62-234.69 72.09-357.61-31.26-111.24-106.23-169.48-205.83-239.58-87.13-61.54-158.779-115.87-252.467-112.61-92.251 3.19-162.656 67.16-235.855 113.51-45.908 29.16-96.984 53.36-110.158 107.52"/><path d="M636.638 2122.7c50.928 35.85 95.151 128.01 200.848 112.56 115.798-16.97 196.564-19.33 288.714-38.27 78.58-16.17 139.28-88.51 151.83-172.66 18.13-121.96 109.47-236.85 73.11-361.88-33.06-113.7-111.59-165.3-213.11-237.01-89.51-63.24-158.189-123.47-253.529-119.73-93.841 3.72-161.952 75.21-235.702 121.2-47.177 29.42-101.247 51.51-111.142 108.1"/><path d="M633.66 2120.61c49.384 34.75 89.923 138.41 201.928 119.02 121.851-21.21 202.472-21.91 297.812-38.15 81.28-13.83 143.09-89.87 150.18-178.44 10.01-124.37 112.37-239 74.15-366.15-34.92-116.17-116.9-161.17-220.46-234.34-91.88-64.95-157.579-131.06-254.564-126.88-95.464 4.12-161.096 83.27-235.428 128.87-48.4 29.72-105.483 49.67-112.121 108.71"/><path d="M630.681 2118.51c47.995 33.78 84.7 148.85 203.106 125.35 127.75-25.33 208.283-24.34 306.973-37.78 83.94-11.49 147.08-91.17 148.69-184.43 2.21-126.72 115.27-241.19 75.17-370.42-36.77-118.66-122.2-157.05-227.81-231.71-94.26-66.64-156.981-138.65-255.587-133.97-97.228 4.65-160.529 91.31-235.453 136.54-49.638 30-109.793 47.79-113.105 109.29"/><path d="M627.703 2116.41c46.544 32.76 79.445 159.27 204.229 131.76 133.719-29.51 214.088-26.77 316.108-37.55 86.62-9.16 151.24-92.42 147.14-190.34-5.38-128.97 118.16-243.28 76.23-374.7-38.62-121.13-127.53-152.92-235.18-229.03-96.64-68.39-156.38-146.27-256.637-141.11-98.895 5.12-159.809 99.37-235.346 144.2-50.866 30.26-114.01 45.97-114.1 109.87"/><path d="M624.724 2114.32c45.079 31.72 74.346 169.79 205.364 138.14 139.681-33.65 219.912-29.25 325.232-37.29 89.3-6.84 155.55-93.66 145.6-196.25-12.74-131.24 120.98-245.49 77.26-378.99-40.47-123.59-132.84-148.78-242.52-226.37-99.04-70.06-155.778-153.88-257.687-148.25-100.572 5.61-159.142 107.44-235.126 151.95-52.093 30.54-118.219 44.06-115.069 110.47"/><path d="M621.746 2112.22c43.628 30.71 69.047 180.27 206.487 144.55 145.654-37.82 225.757-31.75 334.367-37.07 92.01-4.55 160.02-94.91 144.05-202.13-19.89-133.55 123.84-247.66 78.24-383.31-42.32-126.07-138.17-144.68-249.86-223.71-101.41-71.81-155.194-161.46-258.718-155.37-102.255 6.06-158.436 115.42-234.989 159.63-53.362 30.79-122.536 42.28-116.063 111.05"/><path d="M618.767 2110.12c42.177 29.69 63.881 190.73 207.611 150.96 151.554-42 231.522-34.3 343.502-36.84 94.65-2.17 164.65-96.22 142.51-208.04-26.9-135.89 126.69-249.8 79.34-387.55-44.22-128.53-143.44-140.48-257.25-221.07-103.78-73.51-154.577-169.05-259.752-162.48-103.948 6.53-157.726 123.43-234.858 167.34-54.626 31.09-126.809 40.46-117.058 111.66"/><path d="M615.789 2108.03c40.726 28.66 58.682 201.22 208.76 157.35 157.626-46.14 237.411-36.76 352.611-36.59 97.31.14 169.38-97.59 140.95-213.97-33.75-138.28 129.55-251.95 80.38-391.8-46.05-131.01-148.81-136.41-264.59-218.41-106.14-75.24-153.971-176.64-260.759-169.68-105.626 7.01-157.115 131.41-234.683 174.99-55.869 31.35-131.041 38.64-118.053 112.25"/><path d="M612.81 2105.93c39.276 27.64 53.499 211.74 209.884 163.76 163.576-50.2 243.246-39.26 361.786-36.42 100 2.47 174.23-99 139.42-219.87-40.56-140.68 132.27-254.1 81.36-396.04-47.93-133.45-154.12-132.26-271.93-215.74-108.54-76.95-153.402-184.21-261.836-176.74-107.309 7.47-156.363 139.43-234.546 182.67-57.127 31.58-135.32 36.77-119.021 112.83"/><path d="M609.832 2103.83c37.825 26.63 48.315 222.26 211.018 170.15 169.547-54.28 249.11-41.81 370.87-36.1 102.68 4.77 179.18-100.48 137.87-225.79-47.21-143.3 135.23-256.26 82.45-400.37-49.75-135.88-159.44-128.14-279.27-213.08-110.92-78.65-152.783-191.83-262.895-183.89-108.987 7.95-155.706 147.45-234.404 190.37-58.385 31.83-139.572 34.91-120.016 113.43"/><path d="M606.853 2101.74c36.39 25.61 43.132 232.76 212.109 176.6 175.556-58.4 254.988-44.23 379.998-35.87 105.32 7.13 184.16-102.06 136.34-231.7-53.83-145.93 138.05-258.44 83.47-404.64-51.67-138.4-164.74-124.02-286.63-210.43-113.29-80.39-152.147-199.49-263.928-191.01-110.681 8.42-155.026 155.43-234.251 198.05-59.643 32.08-143.835 33.07-121 114.01"/><path d="M603.89 2099.65c34.893 24.56 37.948 243.28 213.261 182.93 181.542-62.47 260.749-46.78 389.149-35.64 108.03 9.39 189.21-103.67 134.79-237.61-60.4-148.62 140.91-260.56 84.51-408.93-53.56-140.86-170.06-119.88-293.99-207.78-115.66-82.08-151.585-207.02-264.992-198.06-112.393 8.85-154.284 163.46-234.113 205.72-60.901 32.33-148.097 31.23-121.979 114.61"/><path d="M600.911 2097.56c33.443 23.53 32.77 253.81 214.4 189.34 187.529-66.58 266.589-49.3 398.259-35.38 110.71 11.7 194.34-105.35 133.23-243.49-66.94-151.39 143.75-262.72 85.47-413.24-55.44-143.31-175.37-115.74-301.31-205.15-118.05-83.8-150.982-214.63-265.997-205.26-114.04 9.36-153.676 171.35-233.971 213.43-62.116 32.51-152.36 29.38-122.963 115.19"/><path d="M597.933 2095.46c31.992 22.52 27.638 264.32 215.534 195.73 193.473-70.71 272.463-51.77 407.363-35.13 113.4 14 199.5-107.1 131.72-249.43-73.47-154.23 146.57-264.87 86.57-417.48-57.32-145.78-180.7-111.61-308.69-202.46-120.44-85.52-150.395-222.22-267.051-212.39-115.707 9.83-153.033 179.36-233.861 221.18-63.438 32.78-156.623 27.53-123.958 115.78"/><path d="M594.955 2093.36c30.541 21.5 22.437 274.89 216.657 202.14 199.538-74.76 278.248-54.33 416.488-34.88 116.07 16.3 204.69-108.9 130.15-255.34-79.98-157.17 149.43-267.04 87.64-421.78-59.21-148.24-186.01-107.48-316.12-199.84-122.8-87.25-149.79-229.83-268.083-219.51-117.416 10.29-152.374 187.31-233.68 228.79-64.747 32.97-160.871 25.69-124.926 116.37"/><path d="M591.976 2091.27c29.091 20.47 17.274 285.43 217.838 208.56 205.506-78.85 284.106-56.84 425.616-34.65 118.77 18.61 209.9-110.76 128.54-261.3-86.4-160.15 152.25-269.17 88.65-426.04-61.09-150.69-191.33-103.36-323.38-197.14-125.2-88.95-149.193-237.42-269.126-226.64-119.148 10.85-151.725 195.27-233.538 236.48-65.989 33.23-165.134 23.85-125.921 116.97"/><path d="M588.997 2089.17c27.64 19.45 12.111 295.99 218.916 214.93 211.547-82.91 289.897-59.3 434.757-34.41 121.49 20.84 215.13-112.66 127.07-267.16-92.93-163.07 155.07-271.31 89.7-430.31-62.98-153.15-196.7-99.18-330.75-194.5-127.57-90.64-148.602-245-270.175-233.75-120.762 11.24-151.051 203.23-233.386 244.17-67.284 33.49-169.396 22-126.904 117.54"/><path d="M586.019 2087.07c26.235 18.47 6.958 306.52 220.05 221.32 217.571-86.97 295.821-61.92 443.871-34.15 124.14 23.22 220.38-114.61 125.53-273.07-99.42-166.13 157.88-273.48 90.73-434.59-64.87-155.61-201.96-95.11-338.11-191.78-129.955-92.36-147.997-252.61-271.238-240.9-122.444 11.7-150.396 211.16-233.248 251.85-68.53 33.65-173.649 20.14-127.884 118.14"/><path d="M583.056 2084.99c24.692 17.38 1.795 317.07 221.173 227.72 223.581-91.05 301.631-64.39 453.081-33.86 126.78 25.5 225.56-116.65 123.9-279.05-105.89-169.24 160.72-275.59 91.76-438.87-66.77-158.06-207.27-90.98-345.44-189.17-132.274-94.05-147.399-260.21-272.249-248.02-124.149 12.18-149.763 219.11-233.095 259.53-69.808 33.87-177.923 18.32-128.878 118.74"/><path d="M580.062 2082.88c23.272 16.38-3.353 327.63 222.323 234.12 229.585-95.12 307.465-66.91 462.175-33.65 129.42 27.8 230.85-118.63 122.39-284.92-112.41-172.33 163.55-277.73 92.8-443.12-68.66-160.53-212.59-86.84-352.79-186.52-134.73-95.8-146.741-267.76-273.31-255.16-125.815 12.65-149.092 227.04-232.942 267.22-71.101 34.06-182.185 16.47-129.873 119.33"/><path d="M577.084 2080.78c21.821 15.36-8.513 338.21 223.489 240.47 235.597-99.21 313.387-69.75 471.257-33.45 132.18 29.95 236.09-120.53 120.85-290.74-118.92-175.5 166.37-279.88 93.82-447.42-70.61-162.89-217.91-82.71-360.14-183.86-137.088-97.51-146.197-275.39-274.329-262.27-127.509 13.12-148.519 235.04-232.754 274.94-72.369 34.26-186.433 14.64-130.857 119.91"/><path d="M574.105 2078.69c20.371 14.34-13.665 348.74 224.581 246.91 241.584-103.28 319.224-72.24 480.384-33.19 134.91 32.19 241.37-122.77 119.34-296.72-125.4-178.7 169.19-282.01 94.88-451.69-72.46-165.42-223.23-78.57-367.51-181.19-139.451-99.24-145.58-283-275.364-269.4-129.176 13.58-147.866 242.87-232.663 282.58-73.607 34.38-190.695 12.79-131.803 120.47"/><path d="M571.142 2076.6c18.905 13.31-18.829 359.29 225.612 253.26 247.716-107.29 325.156-74.7 489.596-32.91 137.61 34.49 246.72-124.85 117.8-302.63-131.9-181.91 171.99-284.15 95.9-455.96-74.38-167.85-228.54-74.46-374.85-178.55-141.84-100.94-144.99-290.57-276.414-276.51-130.913 14.12-147.165 250.82-232.51 290.27-74.944 34.64-194.958 10.94-132.819 121.09"/><path d="M568.164 2074.51c17.454 12.28-23.977 369.84 226.812 259.71 253.644-111.38 330.914-77.28 498.644-32.72 140.26 36.81 251.99-126.99 116.28-308.56-138.41-185.2 174.84-286.3 96.96-460.25-76.27-170.34-233.87-70.34-382.22-175.88-144.212-102.66-144.387-298.19-277.436-283.66-132.548 14.54-146.537 258.75-232.383 297.96-76.228 34.82-199.222 9.1-133.815 121.69"/><path d="M565.185 2072.41c15.988 11.25-29.125 380.41 227.946 266.1 259.709-115.45 336.759-79.77 507.769-32.47 142.96 39.13 257.27-129.14 114.72-314.43-144.96-188.45 177.29-288.28 97.97-464.52-78.5-172.64-239.17-66.22-389.54-173.24-146.613-104.37-143.797-305.79-278.52-290.75-134.23 15-145.897 266.67-232.23 305.65-77.526 34.99-203.546 7.21-134.783 122.27"/><path d="M562.206 2070.31c14.538 10.24-34.257 390.98 229.07 272.51 265.734-119.53 342.604-82.29 516.884-32.24 145.65 41.43 262.53-131.33 113.18-320.35-151.5-191.76 180.14-290.43 99.01-468.81-80.38-175.08-244.48-62.07-396.89-170.57-148.965-106.08-143.219-313.33-279.57-297.91-135.896 15.46-145.231 274.57-232.077 313.33-78.823 35.16-207.736 5.39-135.777 122.87"/><path d="M559.228 2068.22c13.025 9.16-39.395 401.52 230.22 278.9 271.732-123.6 348.432-84.79 526.012-31.99 148.34 43.75 267.79-133.51 111.64-326.26-158.08-195.09 182.96-292.57 100.04-473.09-82.26-177.54-249.77-57.98-404.26-167.91-151.354-107.8-142.595-320.97-280.563-305.02-137.967 15.94-144.603 282.49-231.95 321.01-80.095 35.34-211.984 3.56-136.761 123.45"/><path d="M556.25 2066.12c11.636 8.19-44.587 412.15 231.364 285.28 277.756-127.63 354.266-87.27 535.126-31.72 151.02 46.07 273.1-135.81 110.1-332.17-164.61-198.42 185.8-294.73 101.07-477.36-84.14-180.01-255.18-53.85-411.61-165.27-153.713-109.48-141.961-328.61-281.613-312.14-139.652 16.46-143.968 290.38-231.797 328.7-81.394 35.5-216.247 1.71-137.741 124.05"/><path d="M553.271 2064.02c10.186 7.17-49.453 423.16 232.477 291.7 284.042-131.22 360.152-89.83 544.262-31.5 153.73 48.4 278.32-137.96 108.55-338.09-171.14-201.75 188.67-296.87 102.12-481.63-86.02-182.45-260.43-49.67-418.96-162.59-156.117-111.22-141.404-336.17-282.663-319.29-141.26 16.89-143.318 298.28-231.645 336.39-82.758 35.61-220.509-.13-138.724 124.63"/><path d="M550.293 2061.93c8.735 6.15-54.626 433.65 233.6 298.1 290.087-135.4 365.977-92.31 553.397-31.26 156.4 50.69 283.59-140.21 107.01-344.01-177.81-205.16 191.48-299 103.14-485.9-87.88-184.91-265.67-45.5-426.29-159.94-158.505-112.95-140.812-343.767-283.697-326.41-142.885 17.36-142.672 306.15-231.518 344.08-83.983 35.81-224.772-1.98-139.708 125.21"/><path d="M547.314 2059.83c7.285 5.13-59.798 444.15 234.735 304.49 296.041-139.47 371.821-94.8 562.521-31.01 159.08 53.02 288.8-142.43 105.51-349.97-184.35-208.44 194.22-301.15 104.15-490.12-89.7-187.32-271.08-41.43-433.63-157.36-160.854-114.66-140.186-351.373-284.723-333.54-144.537 17.84-142.043 314.08-231.411 351.73-85.301 35.94-229.035-3.82-140.688 125.81"/><path d="M544.336 2057.73c5.818 4.1-64.971 454.65 235.827 310.88 302.057-143.6 377.707-97.29 571.687-30.75 161.81 55.36 294.08-144.72 103.93-355.83-190.9-211.88 197.16-303.3 105.22-494.46-91.65-189.83-276.39-37.3-441.02-154.63-163.258-116.36-139.657-358.981-285.777-340.666-146.12 18.316-141.419 321.976-231.173 359.356-86.547 36.11-233.294-5.64-141.667 126.42"/><path d="M541.388 2055.66c4.367 3.07-70.143 465.15 237.008 317.3 307.994-147.77 383.464-99.87 580.734-30.56 164.46 57.64 299.31-147.01 102.31-361.76-197.5-215.25 200.03-305.47 106.26-498.75-93.52-192.3-281.71-33.16-448.37-151.96-165.612-118.1-138.955-366.537-286.804-347.799-147.849 18.739-140.784 329.859-231.089 367.109-87.845 36.28-237.541-7.48-142.662 127.01"/><path d="M538.394 2053.55c2.902 2.04-75.283 475.6 238.178 323.73 313.968-151.92 389.288-102.4 589.848-30.35 167.07 59.92 304.55-149.26 100.86-367.66-204.1-218.68 202.85-307.54 107.3-502.96-95.41-194.76-287.04-29.03-455.71-149.3-168.013-119.8-138.396-374.151-287.897-354.936-149.5 19.216-140.207 337.566-230.937 374.796-89.236 36.22-241.793-9.34-143.645 127.59"/><path d="M535.416 2051.46c1.45 1.02-80.522 486.18 239.239 330.09 319.765-156.09 395.195-104.87 599.035-30.07 169.81 62.27 310.22-151.98 99.33-373.62-210.27-222.59 205.69-309.75 108.34-507.28-97.35-197.54-292.33-24.91-463.06-146.67-170.443-121.42-137.862-381.656-288.983-361.942-151.122 19.715-139.544 345.542-230.795 382.492-90.499 36.44-246.01-11.15-144.625 128.2"/><path d="M532.437 2049.36s-85.651 496.62 240.405 336.5c326.058-160.11 400.988-107.39 608.128-29.84 172.5 64.59 315.04-153.84 97.69-379.48-217.36-225.64 208.54-311.9 109.37-511.57-99.17-199.67-297.65-20.77-470.43-144-172.775-123.23-137.141-389.305-289.877-369.132-152.736 20.172-138.88 353.512-230.657 390.172-91.778 36.65-250.365-13.07-145.608 128.77"/></g><g opacity=".1" stroke="#0D47A1" stroke-miterlimit="10"><path d="M2180.56 1216.3c-146.81 146.81-384.73 146.92-531.4.25-146.68-146.68-146.55-384.59.25-531.397 146.81-146.808 384.7-146.982 531.41-.27"/><path d="M2183.11 687.172c-44.71-44.71-94.5-85.431-158.65-100.267-74.65-17.263-147.51-19.304-218.86-2.409-61.26 14.576-118.64 50.639-161.42 100.98-70.77 83.315-117.49 183.433-111.29 287.784 5.61 92.37 46.12 175.75 116.31 245.99 59.66 59.65 128.13 99.38 204.63 111.42 75.01 11.81 150.36-5.2 219.6-36.48 40.23-18.2 79.23-41.02 109.01-75.92"/><path d="M2185.4 689.461c-43.6-43.595-88.41-93.585-158.67-106.033-80.58-14.294-153.05-17.961-226.81-4.019-63.26 12.145-122.02 52.183-160.95 106.39-63.32 88.058-120.35 184.893-112.88 291.368 6.93 94.773 51.41 172.943 123.17 244.773 61.5 61.51 126.47 105.98 204.44 117.83 76.56 11.65 150.94-12.42 220.65-43.23 41.34-18.28 82.69-38.76 109.96-76.28"/><path d="M2187.69 691.75c-42.47-42.469-82.29-101.775-158.63-111.764-86.46-11.361-158.56-16.653-234.78-5.617-65.26 9.713-125.32 53.525-160.5 111.788-55.9 92.54-123.14 186.343-114.43 294.976 8.11 97.197 56.63 170.097 130.02 243.477 63.27 63.39 124.72 112.47 204.27 124.22 78.09 11.49 151.49-19.64 221.69-49.99 42.43-18.37 86.13-36.49 110.91-76.65"/><path d="M2189.97 694.039c-41.35-41.354-76.13-110.013-158.69-117.578-92.31-8.475-164.08-15.547-242.73-7.227-67.26 7.116-128.63 54.63-160.05 117.198-48.56 96.654-126.17 187.84-115.95 298.584 9.19 99.694 61.96 167.324 136.85 242.364 65.14 65.31 123.07 119.05 204.09 130.63 79.64 11.34 152.08-26.84 222.76-56.73 43.55-18.43 89.59-34.23 111.85-77.01"/><path d="M2192.26 696.328c-40.24-40.239-69.99-118.286-158.72-123.368-98.18-5.589-169.55-14.263-250.67-8.813-69.27 4.661-131.99 55.569-159.61 122.608-41.38 100.471-129.06 189.265-117.54 302.144 10.44 102.151 67.22 164.561 143.76 241.101 66.93 67.14 121.39 125.62 203.92 137.02 81.26 11.24 152.64-34.05 223.79-63.5 44.63-18.54 93.03-31.96 112.81-77.38"/><path d="M2194.54 698.605c-39.14-39.136-63.83-126.559-158.73-129.123-103.97-2.762-175.05-12.991-258.62-10.423-71.26 2.194-135.42 56.295-159.21 128.067-34.43 104.026-131.9 190.725-119.08 305.728 11.63 104.586 72.55 161.726 150.52 239.956 68.75 68.99 119.72 132.18 203.76 143.41 82.73 11.03 153.25-41.2 224.82-70.24 45.79-18.58 96.49-29.7 113.77-77.74"/><path d="M2196.83 700.893c-37.95-37.95-57.67-134.878-158.69-134.948-109.92.029-180.62-11.623-266.57-11.914-73.27-.261-138.96 56.913-158.64 133.382-27.7 107.369-134.76 192.162-120.65 309.312 12.89 107.025 77.83 158.905 157.37 238.735 70.56 70.85 118.02 138.73 203.58 149.83 84.21 10.92 153.72-48.39 225.74-77.01 46.91-18.65 99.92-27.43 114.72-78.12"/><path d="M2199.12 703.182c-36.88-36.882-51.51-143.223-158.76-140.667-115.71 2.737-186.08-10.387-274.53-13.631-75.25-2.716-142.66 57.438-158.25 138.852-21.22 110.617-137.64 193.635-122.2 312.894 14.14 109.49 83.1 156.11 164.21 237.55 72.39 72.69 116.35 145.29 203.4 156.2 85.83 10.72 154.45-55.52 226.93-83.73 48.03-18.71 103.41-25.13 115.67-78.47"/><path d="M2201.41 705.471c-35.77-35.768-45.33-151.543-158.77-146.446-121.57 5.493-191.52-9.138-282.49-15.228-77.24-5.16-146.49 57.902-157.81 144.262-14.91 113.746-140.48 195.036-123.76 316.481 15.38 111.94 88.39 153.3 171.06 236.33 74.21 74.58 114.67 151.86 203.23 162.61 87.37 10.56 155.05-62.69 228.01-90.44 49.15-18.76 106.82-22.91 116.63-78.84"/><path d="M2203.7 707.76c-34.65-34.641-39.26-159.983-158.79-152.212-127.43 8.213-197.01-7.854-290.44-16.838-79.23-7.603-150.46 58.33-157.36 149.672-8.81 116.852-143.28 196.532-125.32 320.078 16.63 114.37 93.67 150.49 177.9 235.11 76.05 76.41 112.97 158.44 203.06 169.02 88.91 10.4 155.69-69.85 229-97.26 50.26-18.81 110.21-20.58 117.56-79.21"/><path d="M2205.98 710.049c-33.52-33.527-33.02-168.351-158.79-157.991-133.29 10.945-202.5-6.558-298.41-18.424-81.25-10.022-154.55 58.748-156.89 155.059-2.91 119.958-146.12 197.993-126.84 323.707 17.87 116.83 98.97 147.71 184.73 233.9 77.86 78.31 111.31 164.99 202.88 175.41 90.46 10.26 156.29-76.95 230.05-104 51.41-18.84 113.72-18.37 118.52-79.58"/><path d="M2208.27 712.338c-32.41-32.412-26.9-176.719-158.8-163.769-139.09 13.712-207.94-5.203-306.38-20.022-83.2-12.501-158.8 59.189-156.43 160.469 2.87 123.076-148.95 199.442-128.45 327.254 19.15 119.27 104.22 144.84 191.6 232.71 79.68 80.16 109.62 171.55 202.71 181.8 92.01 10.1 156.88-84.07 231.1-110.78 52.56-18.9 117.19-16.12 119.49-79.95"/><path d="M2210.56 714.627c-31.29-31.297-20.75-185.122-158.84-169.548-145.03 16.409-213.46-3.942-314.31-21.62-85.18-14.932-163.15 59.666-155.97 165.891 8.5 126.218-151.77 200.892-130 330.83 20.38 121.71 109.53 142.08 198.42 231.5 81.49 82.03 107.94 178.09 202.5 188.25 93.55 9.93 157.56-91.16 232.11-117.51 53.69-18.94 120.62-13.88 120.45-80.31"/><path d="M2212.85 716.916c-30.18-30.183-14.62-193.538-158.85-175.326-150.86 19.057-218.96-2.647-322.31-23.171-87.18-17.376-167.62 60.167-155.53 171.302 14.1 129.347-154.49 202.352-131.51 334.379 21.65 124.14 114.81 139.26 205.26 230.28 83.32 83.9 106.28 184.63 202.36 194.6 95.1 9.79 158.13-98.28 233.16-124.25 54.83-18.96 124.08-11.6 121.39-80.68"/><path d="M2215.14 719.204c-29.07-29.067-8.48-201.952-158.87-181.092-156.71 21.73-224.48-1.303-330.22-24.828-89.18-19.807-172.18 60.703-155.08 176.712 19.53 132.655-157.41 203.801-133.12 338.004 22.88 126.55 120.1 136.47 212.09 229.08 85.15 85.74 104.59 191.21 202.21 201.01 96.63 9.63 158.77-105.4 234.21-131.01 55.96-18.98 127.52-9.33 122.34-81.05"/><path d="M2217.43 721.493c-27.97-27.964-2.34-210.368-158.84-186.906-162.6 24.415-230-.078-338.18-26.426-91.13-22.274-176.78 61.334-154.64 182.122 24.93 135.963-160.2 205.274-134.66 341.597 24.17 129.04 125.37 133.65 218.94 227.87 86.96 87.63 102.86 197.82 202.02 207.41 98.19 9.47 159.39-112.5 235.25-137.76 57.1-19.02 130.97-7.07 123.29-81.41"/><path d="M2219.71 723.77c-26.82-26.814 3.79-218.783-158.89-192.625-168.46 27.075-235.43 1.277-346.15-28.012-93.17-24.67-181.45 61.977-154.19 187.533 30.27 139.318-163.03 206.699-136.22 345.184 25.46 131.49 130.65 130.85 225.79 226.67 88.78 89.47 101.22 204.33 201.88 213.75 99.75 9.35 159.96-119.64 236.29-144.5 58.24-19.04 134.42-4.8 124.24-81.79"/><path d="M2222 726.059c-25.7-25.699 9.93-227.222-158.91-198.415-174.33 29.759-240.93 2.597-354.09-29.634-95.16-27.089-186.2 62.668-153.71 192.919 35.57 142.745-165.85 208.16-137.73 348.821 26.73 133.92 135.94 128.03 232.61 225.48 90.6 91.34 99.53 210.9 201.66 220.2 101.27 9.16 160.63-126.64 237.34-151.26 59.33-19.02 137.87-2.54 125.19-82.15"/><path d="M2224.28 728.348c-24.58-24.585 16.03-235.638-158.93-204.182-180.16 32.468-246.44 3.869-362.02-31.231-97.16-29.521-190.98 63.417-153.29 198.353 40.85 146.218-168.65 209.608-139.34 352.352 28.01 136.37 141.23 125.23 239.48 224.26 92.44 93.2 97.86 217.45 201.5 226.6 102.81 9 161.29-133.76 238.42-158.07 60.54-19.05 141.33-.27 126.16-82.51"/><path d="M2226.57 730.637c-23.47-23.47 22.19-244.101-158.94-209.96-186.08 35.092-251.9 5.224-369.97-32.841-99.15-31.941-195.8 64.202-152.82 203.763 46.11 149.787-171.48 211.069-140.93 355.961 29.29 138.81 146.52 122.42 246.38 223.09 94.25 95.08 96.18 224.03 201.33 232.99 104.37 8.86 161.92-140.81 239.42-164.75 61.71-19.02 144.76 1.98 127.09-82.88"/><path d="M2228.86 732.926c-22.35-22.355 28.32-252.552-158.99-215.762-191.94 37.765-257.41 6.532-377.94-34.44-101.16-34.371-200.64 65.036-152.31 209.233 51.28 153.368-174.27 212.507-142.46 359.533 30.56 141.24 151.79 119.63 253.14 221.83 96.09 96.94 94.5 230.59 201.16 239.4 105.97 8.63 162.56-147.88 240.47-171.52 62.83-19.05 148.22 4.25 128.05-83.25"/><path d="M2231.15 735.215c-21.24-21.241 34.44-261.003-158.97-221.505-197.85 40.402-262.85 7.804-385.89-36.037-103.21-36.732-205.52 65.903-151.92 214.583 56.54 156.925-177.08 213.956-144.03 363.124 31.83 143.68 157.13 116.77 260 220.63 97.9 98.78 92.82 237.13 200.98 245.79 107.45 8.54 163.19-154.96 241.51-178.27 64.01-19.09 151.67 6.51 129-83.61"/><path d="M2233.44 737.503c-20.16-20.161 40.55-269.441-158.99-227.271-203.73 43.039-268.44 9.195-393.85-37.647-105.15-39.222-210.4 66.808-151.47 219.994 61.78 160.589-179.85 215.428-145.57 366.701 33.12 146.13 162.36 114.02 266.86 219.38 99.73 100.65 91.14 243.7 200.83 252.2 108.99 8.4 163.81-161.99 242.55-185.01 65.13-19.04 155.11 8.79 129.95-83.99"/><path d="M2235.72 739.78c-18.98-18.975 46.68-277.892-159-233.049-209.62 45.699-273.9 10.479-401.87-39.304-107.12-41.619-215.24 67.807-150.95 225.475 66.96 164.3-182.66 216.841-147.13 370.298 34.41 148.56 167.64 111.2 273.67 218.21 101.51 102.48 89.46 250.27 200.64 258.59 110.55 8.23 164.47-169.05 243.59-191.77 66.27-19.02 158.57 11.05 130.91-84.35"/><path d="M2238.02 742.081c-17.89-17.884 52.79-286.355-159.03-238.828-215.5 48.349-279.4 11.799-409.8-40.866-109.09-44.038-220.17 68.735-150.52 230.838 72.2 167.999-185.46 218.29-148.69 373.875 35.69 151 172.92 108.38 280.51 216.99 103.39 104.39 87.74 256.78 200.47 265.01 112.09 8.07 165.1-176.1 244.63-198.52 67.44-19 162.02 13.31 131.87-84.72"/><path d="M2240.31 744.37c-16.77-16.769 58.92-294.83-159.09-244.559-221.38 51.009-285.01 13.38-417.72-42.429-111.18-46.338-225.05 69.604-150.05 236.178 77.41 171.758-188.27 219.739-150.24 377.47 37.04 153.37 178.21 105.58 287.35 215.79 105.19 106.24 86.09 263.38 200.28 271.39 113.64 7.92 165.81-183.19 245.64-205.31 68.58-18.99 165.46 15.55 132.82-85.08"/><path d="M2242.6 746.659c-15.66-15.654 65.03-303.269-159.07-250.373-227.24 53.67-290.5 14.676-425.66-44.038-113.23-48.723-230.03 70.756-149.66 241.635 82.61 175.552-191.05 221.176-151.8 381.047 38.27 155.87 183.49 102.77 294.21 214.59 106.99 108.11 84.39 269.93 200.1 277.78 115.17 7.76 166.43-190.15 246.72-212.02 69.68-18.9 168.91 17.82 133.74-85.42"/><path d="M2244.87 748.936c-14.53-14.528 71.17-311.72-159-256.08-233.22 56.235-296.06 15.924-433.68-45.696-115.25-51.142-235.03 71.768-149.21 247.046 87.81 179.358-193.83 222.625-153.35 384.634 39.58 158.29 188.77 99.98 301.03 213.38 108.84 109.97 82.73 276.49 199.95 284.18 116.77 7.56 167.02-197.22 247.75-218.77 70.89-18.92 172.37 20.09 134.73-85.81"/><path d="M2247.16 751.225c-13.41-13.413 77.28-320.183-159.07-261.918-239.04 58.92-301.5 17.304-441.58-47.234-117.21-53.574-239.96 72.838-148.77 252.467 93 183.224-196.66 224.074-154.94 388.23 40.86 160.76 194.07 97.18 307.9 212.17 110.64 111.83 81.04 283.06 199.75 290.59 118.27 7.44 167.68-204.26 248.81-225.53 72.05-18.89 175.82 22.35 135.69-86.18"/><path d="M2249.45 753.514c-12.29-12.287 83.39-328.646-159.09-267.684-244.96 61.568-307 18.599-449.53-48.845-119.22-56.017-244.91 73.92-148.3 257.855 98.25 187.066-199.1 225.427-156.48 391.82 42.47 163.1 199.34 94.37 314.72 210.96 112.48 113.7 79.36 289.63 199.61 296.96 119.81 7.3 168.33-211.28 249.85-232.28 73.21-18.84 179.32 24.67 136.63-86.55"/><path d="M2251.74 755.803c-11.17-11.172 89.49-337.121-159.1-273.463-250.86 64.218-312.5 19.907-457.48-50.43-121.23-58.448-249.85 75.038-147.85 263.264 103.46 190.955-201.93 226.877-158.04 395.416 43.74 165.53 204.62 91.56 321.55 209.75 114.29 115.54 77.72 296.14 199.45 303.39 121.34 7.14 168.95-218.31 250.89-239.03 74.37-18.79 182.71 26.89 137.58-86.92"/><path d="M2254.03 758.091c-10.01-10.009 95.6-345.571-159.13-279.24-256.74 66.866-317.99 21.215-465.44-52.04-123.22-60.88-254.79 76.143-147.4 268.675 108.72 194.879-204.72 228.325-159.59 399.004 45.01 167.97 209.87 88.78 328.41 208.54 116.12 117.42 76.01 302.74 199.23 309.77 123.23 7.04 169.61-225.34 251.95-245.77 75.51-18.75 186.15 29.14 138.53-87.28"/><path d="M2256.32 760.38c-8.95-8.942 101.76-354.082-159.17-284.995-262.62 69.479-323.46 22.499-473.37-53.662-125.21-63.323-259.79 77.344-146.95 274.085 113.93 198.781-207.54 229.786-161.15 402.582 46.28 170.42 215.24 85.99 335.25 207.35 117.93 119.25 74.29 309.33 199.07 316.16 124.79 6.84 170.25-232.34 252.98-252.53 76.67-18.7 189.61 31.41 139.49-87.65"/><path d="M2258.6 762.669c-7.82-7.827 107.7-362.984-159.16-290.785-268.67 71.665-329 23.842-481.34-55.248-127.23-65.766-264.68 78.438-146.49 279.507 119.15 202.694-210.37 231.223-162.71 406.167 47.55 172.84 220.47 83.12 342.09 206.12 119.76 121.14 72.65 315.86 198.9 322.58 126.26 6.71 170.88-239.36 254.02-259.29 77.88-18.58 193.05 33.68 140.43-88.01"/><path d="M2260.89 764.958c-6.71-6.713 113.83-371.387-159.17-296.564-274.59 74.409-334.49 25.127-489.3-56.846-129.22-68.185-269.64 79.604-146.04 284.918 124.46 206.702-213.17 232.66-164.26 409.744 48.81 175.29 225.69 80.28 348.91 204.92 121.6 123.02 70.98 322.43 198.73 328.98 127.75 6.54 171.51-246.35 255.07-266.04 78.99-18.57 196.51 35.94 141.38-88.37"/><path d="M2263.18 767.247c-5.59-5.598 119.95-379.791-159.19-302.33-280.43 77.069-339.98 26.422-497.25-58.456-131.22-70.629-274.54 80.757-145.64 290.375 129.69 210.556-215.88 234.122-165.78 413.284 50.03 177.67 231.05 77.53 355.72 203.78 123.4 124.87 69.28 328.99 198.55 335.37 129.26 6.38 172.16-253.38 256.14-272.75 80.16-18.49 199.96 38.2 142.33-88.75"/><path d="M2265.47 769.536c-4.47-4.471 126.08-388.194-159.17-308.085-286.34 79.766-345.52 27.707-505.24-60.078-133.26-73.095-279.51 81.958-145.15 295.739 134.9 214.575-218.79 235.558-167.38 416.928 51.36 180.16 236.33 74.72 362.62 202.5 125.23 126.73 67.65 335.58 198.37 341.78 130.73 6.2 172.83-260.39 257.1-279.47 81.28-18.44 203.41 40.45 143.28-89.13"/><path d="M2267.74 771.801c-3.36-3.356 132.2-396.598-159.24-313.887-292.16 82.51-350.95 29.086-513.12-61.628-135.23-75.492-284.45 83.171-144.64 301.184 140.17 218.524-221.63 237.019-168.94 420.52 52.62 182.61 241.61 71.91 369.45 201.3 127.04 128.6 65.89 342.07 198.2 348.17 132.3 6.09 173.47-267.4 258.2-286.27 82.44-18.4 206.85 42.7 144.24-89.5"/><path d="M2270.04 774.102c-2.23-2.23 138.29-404.966-159.28-319.701-298.02 85.241-356.43 30.417-521.07-63.19-137.18-77.888-289.38 84.347-144.27 306.57 145.42 222.532-224.41 238.409-170.49 424.049 53.9 185.05 246.9 69.1 376.29 200.08 128.87 130.46 64.23 348.66 198.06 354.59 133.82 5.92 174.13-274.23 259.24-293.02 83.64-18.14 210.29 44.97 145.19-89.85"/><path d="M2272.33 776.39c-1.12-1.114 144.49-413.44-159.24-325.431-303.73 88.009-361.99 31.677-529.09-64.836-139.19-80.366-294.74 85.857-143.82 312.017 150.23 226.896-227.24 239.905-172.06 427.68 55.17 187.77 252.17 66.3 383.12 198.89 130.76 132.25 62.63 355.15 197.95 360.89 135.32 5.73 174.77-281.32 260.29-299.78 84.78-18.14 213.7 47.2 146.14-90.24"/><path d="M2274.62 778.679s150.57-421.796-159.29-331.221c-309.85 90.574-367.44 33.009-537.01-66.422-141.2-82.798-299.25 86.761-143.28 317.403 155.98 230.642-230.06 241.354-173.62 431.271 56.45 189.93 257.46 63.49 389.99 197.68 132.52 134.19 60.83 361.74 197.63 367.32 136.81 5.58 175.4-288.4 261.34-306.52 85.94-18.12 217.23 49.54 147.09-90.59"/></g></svg>