<svg width="1545" height="1483" fill="none" xmlns="http://www.w3.org/2000/svg"><g opacity=".1" stroke="#0D47A1" stroke-miterlimit="10" clip-path="url(#clip0)"><path d="M322.811 627.604c52.888-197.38 255.626-314.562 452.83-261.721 197.204 52.841 314.169 255.688 261.289 453.068-52.891 197.379-255.569 314.599-452.821 261.739"/><path d="M581.031 1079.87c60.112 16.1 122.59 26.31 184.569 7.39 72.122-22.02 135.232-56.14 187.737-105.653 45.038-42.569 76.203-101.548 87.893-165.506 19.32-105.842 9.88-214.173-46.762-300.066C944.226 440.067 868.67 388.929 774.27 363.6c-80.202-21.49-158.12-21.653-229.253 5.73-69.741 26.85-125.601 78.425-169.219 139.164-25.338 35.309-47.348 73.956-55.553 118.354"/><path d="M577.954 1079.04c58.613 15.71 121.412 36.26 187.424 12.3 75.719-27.47 139.295-60.01 195.305-108.193 47.947-41.482 78.317-104.522 84.827-169.885 10.64-106.218 11.6-216.825-47.168-303.904-52.548-77.372-128.93-122.112-225.446-148.025-82.69-22.157-159.949-28.096-232.242.174-70.99 27.746-122.544 84.871-166.8 145.44-26.236 35.923-51.404 73.724-56.186 119.125"/><path d="M574.877 1078.22c57.098 15.3 120.22 46.26 190.211 17.2 79.283-32.86 143.345-63.84 202.877-110.749 50.845-40.397 80.475-107.296 81.795-174.272 2.1-106.384 13.25-219.427-47.62-307.739-54.753-78.852-131.982-117.113-230.648-143.551-85.124-22.894-161.654-34.488-235.239-5.35-72.219 28.631-119.462 91.291-164.36 151.705-27.136 36.537-55.46 73.492-56.825 119.911"/><path d="M571.799 1077.39c55.599 14.9 119.032 56.31 193.131 22.13 82.85-38.21 147.503-67.5 210.444-113.292 53.836-39.168 82.756-109.866 78.756-178.662-6.18-106.277 15.1-222.198-48.11-311.563-56.899-80.454-135.157-112.132-235.918-139.233-87.666-23.61-163.486-40.915-238.243-10.911-73.468 29.528-116.416 97.718-161.956 157.976-28.052 37.148-59.517 73.261-57.443 120.688"/><path d="M568.722 1076.57c54.1 14.5 117.871 66.38 195.998 27.05 86.437-43.56 151.544-71.29 218-115.851 56.75-38.062 85.16-112.32 75.71-183.054-14.17-106.004 16.87-224.837-48.5-315.38-59.172-81.935-138.281-107.186-241.188-134.76-90.081-24.291-165.287-47.334-241.241-16.435-74.795 30.404-113.349 104.133-159.5 164.245-28.919 37.77-63.573 73.029-58.08 121.474"/><path d="M565.661 1075.75c52.617 14.1 116.689 76.46 198.838 31.95 89.982-48.82 155.601-75.08 225.567-118.39 59.664-36.94 87.724-114.626 72.684-187.509-21.84-105.615 18.57-227.478-48.95-319.195-61.388-83.418-141.425-102.144-246.39-130.458-92.548-24.969-167.088-53.752-244.254-21.964-75.944 31.311-110.347 110.531-157.06 170.51-29.882 38.368-67.63 72.798-58.714 122.245"/><path d="M562.583 1074.92c51.023 13.68 115.532 86.59 201.672 36.94 93.677-54.12 159.673-78.98 233.077-121.031 62.578-35.833 90.438-116.893 69.578-191.76-29.22-105.148 20.31-230.111-49.37-323.021-63.662-84.884-144.542-97.147-251.623-126.045-95.011-25.663-168.873-60.165-247.258-27.524-77.156 32.132-107.217 116.895-154.524 176.732-30.797 38.978-71.666 72.554-59.337 123.036"/><path d="M559.506 1074.1c49.588 13.29 114.386 96.73 204.545 41.77 97.28-59.27 163.716-82.71 240.709-123.479 65.47-34.715 93.33-119.162 66.56-196.231-36.35-104.729 22.02-232.779-49.83-326.836-65.927-86.364-147.649-92.164-256.859-121.667-97.478-26.341-170.673-66.584-250.239-33.044-78.442 33.105-104.327 123.332-152.233 183.042-31.729 39.584-75.77 72.31-59.97 123.808"/><path d="M556.429 1073.28c48.089 12.88 113.207 106.86 207.396 46.69 100.921-64.51 167.744-86.46 248.275-126.038 68.38-33.613 96.37-121.444 63.52-200.622-43.27-104.291 23.76-235.376-50.25-330.663-68.202-87.844-150.788-87.17-262.114-117.257-99.952-27.056-172.469-73.018-253.248-38.589-79.67 33.991-101.309 129.734-149.84 189.294-32.656 40.174-79.78 72.091-60.609 124.595"/><path d="M553.351 1072.45c46.575 12.48 112.19 117.05 210.252 51.6 104.57-69.71 171.785-90.26 255.847-128.578 71.28-32.51 99.54-123.76 60.47-205.013-49.99-103.937 25.41-238.029-50.7-334.493-70.452-89.304-153.896-82.173-267.334-112.859-102.429-27.702-174.266-79.452-256.257-44.134-80.903 34.892-98.331 136.16-147.325 195.596-33.583 40.763-83.815 71.78-61.227 125.37"/><path d="M550.274 1071.63c45.076 12.07 110.994 127.24 213.103 56.52 108.223-74.93 175.831-94.07 263.423-131.153 74.18-31.44 102.82-126.13 57.42-209.372-56.56-103.678 27.11-240.67-51.19-338.337-72.725-90.785-157.045-77.199-272.567-108.461-104.898-28.432-176.07-85.855-259.25-49.674-82.147 35.773-95.348 142.502-144.901 201.856-34.546 41.361-87.892 71.628-61.864 126.157"/><path d="M547.196 1070.8c43.577 11.68 109.901 137.39 215.955 61.44 111.807-80.13 179.796-97.89 270.999-133.702 77.07-30.291 106.23-128.603 54.37-213.763-63.02-103.493 28.8-243.296-51.57-342.151-75.017-92.238-160.1-72.168-277.826-104.072-107.366-29.11-177.855-92.269-262.247-55.198-83.396 36.67-92.353 148.864-142.47 208.153-35.498 41.977-91.953 71.412-62.502 126.943"/><path d="M544.119 1069.98c42.079 11.27 108.794 147.57 218.826 66.35 115.549-85.36 183.89-101.69 278.545-136.25 79.96-29.194 109.7-131.148 51.31-218.16-69.36-103.397 30.51-245.92-51.99-345.961-77.276-93.714-163.282-67.203-283.06-99.674-109.825-29.821-179.64-98.683-265.239-60.807-84.629 37.572-89.446 155.237-140.021 214.386-36.441 42.563-95.978 71.189-63.141 127.73"/><path d="M541.042 1069.15c40.579 10.88 107.703 157.77 221.677 71.27 119.212-90.48 187.935-105.49 286.131-138.86 82.86-28.095 113.26-133.773 48.27-222.554-75.67-103.31 32.1-248.503-52.46-349.728-79.546-95.162-166.391-62.205-288.281-95.276-112.308-30.503-181.45-105.069-268.249-66.283-85.873 38.452-86.415 161.591-137.597 220.646-37.4 43.144-100.05 70.953-63.759 128.505"/><path d="M537.965 1068.33c39.08 10.47 106.612 167.96 224.532 76.17 122.884-95.64 191.977-109.35 293.683-141.34 85.76-27.004 116.89-136.474 45.23-226.94-81.93-103.462 33.87-251.175-52.87-353.619-81.782-96.598-169.529-57.211-293.516-90.878-114.775-31.181-183.241-111.519-271.274-71.832-87.105 39.354-83.46 167.976-135.161 226.926-38.359 43.726-104.102 70.706-64.397 129.293"/><path d="M534.887 1067.5c37.598 10.08 105.522 178.16 227.372 81.15 126.58-100.83 196.077-113.12 301.261-143.9 88.63-25.86 120.49-139.273 42.17-231.333-88.15-103.625 35.54-253.808-53.31-357.433-84.114-98.096-172.64-52.229-298.759-86.484-117.25-31.896-185.025-118.002-274.267-77.373-88.355 40.251-80.498 174.33-132.721 233.191-39.318 44.307-108.159 70.474-65.031 130.064"/><path d="M531.826 1066.68c36.051 9.66 104.431 188.35 230.224 86 130.268-105.98 200.043-116.95 308.83-146.47 91.55-24.821 124.16-142.121 39.14-235.723-94.37-103.852 37.24-256.413-53.76-361.264-86.408-99.549-175.758-47.231-304.004-82.09-119.701-32.57-186.827-124.352-277.261-82.845-89.631 41.123-77.471 180.7-130.298 239.451-40.276 44.888-112.215 70.242-65.652 130.855"/><path d="M528.748 1065.86c34.553 9.26 103.352 198.56 233.091 90.92 133.944-111.15 204.077-120.78 316.401-148.99 94.44-23.742 127.86-145.048 36.08-240.085-100.57-104.164 38.92-259.043-54.27-365.096-88.688-100.997-178.876-42.233-309.226-77.724-122.179-33.269-188.623-130.787-280.253-88.454-90.831 42.034-74.594 186.996-127.861 245.732-41.219 45.406-116.272 70.01-66.287 131.626"/><path d="M525.671 1065.03c33.054 8.86 102.301 208.74 235.947 95.83 137.588-116.34 208.154-124.57 323.952-151.54 97.34-22.649 131.57-148.034 33.04-244.501-106.78-104.528 40.6-261.656-54.63-368.906-90.981-102.45-182.008-37.239-314.479-73.299-124.662-33.95-190.428-137.188-283.266-93.982-92.059 42.919-71.656 193.377-125.438 252.061-42.222 46.026-120.328 69.778-66.925 132.412"/><path d="M522.594 1064.21c31.554 8.45 101.213 218.98 238.798 100.75 141.344-121.49 212.139-128.42 331.518-154.08 100.23-21.571 135.29-151.078 29.98-248.884-113.01-104.984 42.29-264.297-55.05-372.764-93.277-103.903-185.126-32.241-319.793-68.906-127.121-34.661-192.225-143.623-286.259-99.523-93.325 43.812-68.721 199.706-122.998 258.257-43.24 46.574-124.368 69.551-67.542 133.188"/><path d="M519.516 1063.38c30.056 8.06 100.151 229.2 241.702 105.67 145.016-126.65 216.189-132.24 339.092-156.63 103.13-20.487 139.01-154.173 26.85-253.299-119.18-105.491 43.97-266.894-55.5-376.563-95.553-105.351-188.253-27.263-324.936-64.503-129.604-35.343-194.025-150.041-289.268-105.067-94.578 44.793-65.789 206.051-120.562 264.538-44.183 47.159-128.425 69.319-68.18 133.975"/><path d="M516.439 1062.56c28.557 7.65 99.087 239.42 244.505 110.57 148.756-131.8 220.206-136 346.656-159.19 106.05-19.477 142.74-157.305 23.89-257.661-125.42-105.931 45.64-269.507-55.93-380.389-97.841-106.804-191.396-22.205-330.191-60.114-132.055-36.017-195.814-156.438-292.265-110.591-95.785 45.598-62.838 212.384-118.121 270.802-45.167 47.769-132.482 69.088-68.815 134.746"/><path d="M513.362 1061.74c27.106 7.26 98.028 249.62 247.36 115.47 152.476-136.94 224.286-139.94 354.228-161.73 108.93-18.311 146.46-160.481 20.85-262.051-131.69-106.48 47.28-272.13-56.38-384.204-100.141-108.257-194.498-17.287-335.422-55.664-134.535-36.715-197.611-162.873-295.29-116.14-97.03 46.48-59.915 218.693-115.698 277.062-46.141 48.278-136.534 68.841-69.436 135.538"/><path d="M510.301 1060.92c25.511 6.83 96.964 259.83 250.211 120.39 156.184-142.11 228.306-143.72 361.878-164.26 111.79-17.241 150.1-163.719 17.71-266.471-137.93-107.093 48.98-274.719-56.82-388.035-102.441-109.694-197.616-12.289-340.656-51.318-136.95-37.396-199.412-169.291-298.267-121.676-98.283 47.392-56.999 225.033-113.258 283.327-47.127 48.834-140.595 68.625-70.074 136.324"/><path d="M507.207 1060.09c24.045 6.44 95.918 270.06 253.083 125.3 159.888-147.25 232.34-147.55 369.4-166.83 114.66-16.15 153.85-166.937 14.71-270.832-144.22-107.665 50.66-277.332-57.26-391.845-104.725-111.147-200.723-7.291-345.875-46.92-139.496-38.096-201.148-175.693-301.292-127.225-99.511 48.278-54.059 231.346-110.818 289.591-48.129 49.387-144.651 68.394-70.712 137.112"/><path d="M504.13 1059.26c22.545 6.04 94.866 280.3 255.951 130.17 163.596-152.43 236.347-151.66 376.929-169.4 117.57-15.22 157.58-170.084 11.67-275.156-150.501-108.307 52.34-279.946-57.69-395.677-107.052-112.503-203.864-2.296-351.128-42.526-141.943-38.786-202.997-182.123-304.268-132.761-100.76 49.175-51.178 237.747-108.335 295.885-49.112 49.928-148.692 68.166-71.346 137.882"/><path d="M501.053 1058.44c21.047 5.64 93.807 290.5 258.79 135.13 167.283-157.58 240.387-155.47 384.497-171.94 120.49-14.19 161.24-173.509 8.64-279.606-156.795-108.985 54.01-282.543-58.12-399.503-109.325-114.021-206.976 2.701-356.372-38.117-144.402-39.496-204.777-188.553-307.262-138.301-101.988 50.06-48.284 243.978-105.958 302.132-50.093 50.4-152.748 67.934-71.956 138.626"/><path d="M497.991 1057.62c19.532 5.23 92.744 300.72 261.546 140.02 171.119-162.7 244.523-159.27 392.143-174.47 123.4-13.12 165.01-176.828 5.61-283.997-163.116-109.666 55.65-285.144-58.58-403.317-111.624-115.442-210.101 7.679-361.593-33.735-146.885-40.178-206.582-194.956-310.275-143.83-103.254 51.021-45.313 250.3-103.518 308.397-51.113 51.017-156.805 67.703-72.603 139.444"/><path d="M494.914 1056.79c18.034 4.83 91.697 310.95 264.477 144.97 174.754-167.85 248.479-163.12 399.639-177.05 126.26-12.01 168.69-180.169 2.56-288.403-169.44-110.405 57.35-287.769-58.99-407.16-113.936-116.914-213.24 12.673-366.849-29.325-149.348-40.873-208.379-201.39-313.263-149.386-104.47 51.858-42.41 256.62-101.099 314.673-52.111 51.553-160.861 67.471-73.24 140.231"/><path d="M491.837 1055.97c16.518 4.42 90.649 321.16 267.332 149.87 178.499-173.03 252.521-166.93 407.201-179.59 129.19-10.92 172.38-183.526-.49-292.762-175.797-111.099 58.77-290.126-59.44-410.975-116.461-118.122-216.348 17.656-372.069-24.942-151.83-41.555-210.179-207.809-316.285-154.883-105.714 52.739-39.501 262.924-98.658 320.937-53.125 52.086-164.982 67.223-73.858 141.007"/><path d="M488.759 1055.14c15.02 4.03 89.618 331.4 270.184 154.8 182.222-178.19 256.567-170.76 414.757-182.15 132.09-9.84 176.04-186.912-3.53-297.156-182.164-111.846 60.46-292.752-59.89-414.806-118.737-119.571-219.462 22.653-377.295-20.545-154.278-42.245-211.977-214.174-319.306-160.448-106.942 53.625-36.573 269.218-96.218 327.203-54.14 52.617-168.97 66.991-74.497 141.793"/><path d="M485.682 1054.32c13.457 3.6 88.575 341.6 273.055 159.7 185.927-183.33 260.603-174.56 422.333-184.69 134.99-8.74 179.7-190.285-6.58-301.542-188.576-112.606 62.14-295.365-60.33-418.637-121.021-121.019-222.572 27.604-382.55-16.135-156.757-42.943-213.764-220.64-322.262-165.995-108.498 54.645-33.67 275.537-93.799 333.478-55.133 53.138-173.011 66.764-75.13 142.565"/><path d="M482.605 1053.49c12.022 3.23 87.51 351.89 275.915 164.6 189.658-188.46 264.64-178.36 429.89-187.21 137.9-7.65 183.38-193.776-9.62-305.942-194.933-113.369 63.82-297.994-60.76-422.448-123.311-122.488-225.781 32.629-387.791-11.757-159.207-43.617-215.552-227.107-325.275-171.524-109.723 55.583-30.773 281.822-91.358 339.743-56.148 53.67-177.068 66.533-75.753 143.356"/><path d="M479.527 1052.67c10.524 2.82 86.831 362.39 278.762 169.53 193.741-193.3 268.701-182.23 437.471-189.78 140.81-6.56 187-197.114-12.69-310.337-201.302-114.136 65.53-300.615-61.18-426.274-125.595-123.92-228.836 37.644-393.026-7.343-161.702-44.32-217.366-233.478-328.284-177.069-110.918 56.409-27.861 288.11-88.918 346.008-57.238 54.165-181.124 66.301-76.387 144.127"/><path d="M476.45 1051.84c9.024 2.42 85.744 372.58 281.613 174.46 197.438-198.56 272.747-186.03 445.037-192.34 143.71-5.48 190.66-200.547-15.73-314.727-207.802-114.937 67.2-303.213-61.63-430.089-127.865-125.385-231.881 42.643-398.247-2.961-164.181-45.019-219.166-239.896-331.276-182.609-112.111 57.286-24.962 294.378-86.499 352.284-58.184 54.698-185.181 66.069-77.021 144.897"/><path d="M473.372 1051.02c7.526 2.02 84.658 382.75 284.47 179.36 201.105-203.7 276.788-189.84 452.608-194.88 146.6-4.38 194.27-203.941-18.76-319.181-214.159-115.648 68.8-305.795-62.08-433.851-130.075-126.817-235.089 47.614-403.486 1.364-166.628-45.709-220.947-246.326-334.27-188.15-113.323 58.176-22.058 300.699-84.107 358.536-59.225 55.206-189.236 65.837-77.642 145.689"/><path d="M470.295 1050.2c6.011 1.61 83.571 392.92 287.289 184.26 204.806-208.89 280.866-193.64 460.206-197.42 149.56-3.28 197.92-207.411-21.81-323.508-220.581-116.511 70.56-308.45-62.51-437.745-132.43-128.287-238.208 52.613-408.738 5.842-169.111-46.391-222.8-252.742-337.279-193.695-114.479 59.047-19.166 306.999-81.613 364.729-60.199 55.716-193.282 65.627-78.265 146.481"/><path d="M467.25 1049.38c4.512 1.21 82.484 403.11 290.192 189.19 208.423-214.11 284.828-197.5 467.698-199.99 152.41-2.2 201.52-210.873-24.93-327.899-227.02-117.28 72.27-311.092-62.95-441.577-134.71-129.751-241.324 57.611-413.967 10.24-171.57-47.101-224.5-259.15-340.272-199.234-115.771 59.915-16.269 313.283-79.21 371.069-61.213 56.247-197.323 65.399-78.903 147.267"/><path d="M464.157 1048.55c2.997.8 81.411 413.24 293.091 194.12 212.076-219.32 288.842-201.33 475.242-202.57 155.25-1.11 205.14-214.295-27.9-332.3-233.462-118.116 73.96-313.649-63.36-445.347-137-131.204-244.457 62.605-419.195 14.638C547.982 229.307 495.702 11.514 378.718 72.319c-116.984 60.805-13.476 319.437-76.771 377.334-62.373 56.621-201.374 65.151-79.537 148.038"/><path d="M461.079 1047.73c1.499.4 80.299 423.51 295.879 199.02 215.58-224.49 292.952-205.14 482.882-205.11 158.19 0 208.98-218.227-30.96-336.727-239.71-119.466 75.63-316.314-63.81-449.213-139.43-132.9-247.566 67.587-424.433 19.015C544.096 226.333 492.478 2.816 374.314 64.519c-118.165 61.703-10.529 325.786-74.335 383.614-63.344 57.182-205.383 64.933-80.159 148.83"/><path d="M458.002 1046.9s79.229 433.63 298.766 203.94c219.536-229.69 296.952-208.96 490.412-207.65 161.1 1.08 212.38-221.225-34.07-341.06-246.446-119.834 77.33-318.939-64.25-453.044-141.57-134.105-250.684 72.585-429.683 23.425S489.307-5.885 369.954 56.68c-119.352 62.565-7.581 332.136-71.911 389.875-64.33 57.738-209.535 64.675-80.792 149.6"/></g><defs><clipPath id="clip0"><path fill="#fff" transform="rotate(-165 715.794 659.948)" d="M0 0h1280v1192H0z"/></clipPath></defs></svg>