<svg width="1760" height="1739" fill="none" xmlns="http://www.w3.org/2000/svg"><g opacity=".1" stroke="#0D47A1" stroke-miterlimit="10"><path d="M491.017 603.515c119.5-169.779 353.886-210.635 523.513-91.242 169.63 119.394 210.24 353.81 90.74 523.587-119.495 169.78-353.836 210.69-523.505 91.27"/><path d="M579.118 1125.26c51.705 36.4 107.733 67.99 173.474 71.62 76.501 4.23 148.637-6.24 216.043-35.1 57.855-24.85 108.215-70.21 141.735-127.13 55.46-94.207 84.35-200.847 60.37-302.594-21.35-90.042-75.53-165.255-156.72-222.44-68.985-48.557-143.254-75.97-220.687-74.734-75.92 1.214-147.247 30.869-210.103 73.55-36.521 24.818-71.037 53.983-94.396 93.464"/><path d="M576.471 1123.4c50.416 35.49 103.129 77.06 174.482 77.3 81.839.28 153.867-8.52 224.15-34.88 60.247-22.8 111.277-72.31 140.347-132.38 47.31-97.604 86.92-202.775 61.32-306.398-23.06-92.188-80.26-161.587-163.27-220.069-71.123-50.063-142.743-82.756-221.593-81.08-77.424 1.632-146.585 38.089-209.99 80.383-37.594 25.089-74.825 52.343-95.27 93.978"/><path d="M573.824 1121.54c49.113 34.57 98.495 86.18 175.426 82.95 87.124-3.62 159.067-10.75 232.267-34.67 62.633-20.75 114.303-74.2 138.993-137.63 39.22-100.74 89.4-204.672 62.23-310.21-24.64-94.37-84.93-157.885-169.8-217.62-73.188-51.618-142.134-89.45-222.52-87.398-78.906 2.048-145.891 45.291-209.854 87.213-38.668 25.36-78.614 50.703-96.155 94.505"/><path d="M571.177 1119.67c47.824 33.66 93.847 95.35 176.489 88.67 92.394-7.46 164.314-12.78 240.374-34.45 65.05-18.53 117.38-75.85 137.62-142.87 31.29-103.541 92.15-206.672 63.11-314.03-26.13-96.651-89.7-154.246-176.33-215.348-75.37-53.189-141.641-96.221-223.448-93.753-80.411 2.466-145.234 52.487-209.756 94.037-39.753 25.622-82.402 49.062-97.014 95.028"/><path d="M568.53 1117.81c46.535 32.75 89.216 104.55 177.501 94.37 97.688-11.31 169.496-14.99 248.477-34.25 67.452-16.45 120.522-77.35 136.252-148.13 23.58-106.07 94.75-208.566 64.07-317.805-27.78-98.857-94.41-150.619-182.92-212.922-77.435-54.684-141.113-102.974-224.374-100.071-81.985 2.836-144.554 59.679-209.606 100.875-40.799 25.913-86.191 47.423-97.899 95.556"/><path d="M565.896 1115.96c45.26 31.85 84.562 113.75 178.496 100.03 102.91-15.08 174.691-17.18 256.588-34.02 69.83-14.36 123.78-78.65 134.92-153.44 16.12-108.382 97.3-210.49 64.98-321.599-29.38-101.049-99.17-146.911-189.4-210.639-79.543-56.195-140.577-109.726-225.306-106.399-83.397 3.3-143.928 66.832-209.47 107.705-41.927 26.145-89.979 45.782-98.773 96.069"/><path d="M563.249 1114.09c43.888 30.89 79.916 123.01 179.455 105.78 108.291-18.85 179.941-19.47 264.676-33.91 72.23-12.28 127.15-79.86 133.45-158.57 8.91-110.53 99.87-212.405 65.91-325.408-31.03-103.24-103.89-143.232-195.93-208.258-81.653-57.719-140.04-116.469-226.231-112.755-84.84 3.66-143.168 73.999-209.227 114.528-43.013 26.407-93.744 44.138-99.643 96.606"/><path d="M560.602 1112.23c42.654 30.02 75.274 132.29 180.502 111.4 113.533-22.51 185.107-21.63 272.806-33.58 74.6-10.21 130.72-81.02 132.14-163.9 1.97-112.615 102.44-214.342 66.81-329.197-32.68-105.447-108.6-139.57-202.46-205.917-83.765-59.228-139.507-123.221-227.139-119.063-86.407 4.138-142.663 81.15-209.249 121.349-44.114 26.659-97.574 42.469-100.518 97.12"/><path d="M557.955 1110.37c41.365 29.11 70.604 141.54 181.501 117.09 118.836-26.23 190.258-23.79 280.924-33.37 76.98-8.14 134.41-82.13 130.77-169.15-4.79-114.622 105.01-216.214 67.74-333.001-34.32-107.653-113.34-135.902-209-203.546-85.884-60.776-138.978-129.988-228.078-125.405-87.888 4.552-142.023 88.313-209.154 128.149-45.204 26.897-101.321 40.858-101.401 97.648"/><path d="M555.308 1108.5c40.062 28.2 66.072 150.9 182.509 122.78 124.135-29.92 195.44-26 289.033-33.15 79.36-6.08 138.24-83.23 129.4-174.41-11.33-116.632 107.51-218.163 68.66-336.805-35.97-109.835-118.06-132.224-215.53-201.18-88.018-62.258-138.44-136.753-229.007-131.746-89.38 4.981-141.431 95.484-208.959 135.04-46.295 27.136-105.062 39.15-102.262 98.172"/><path d="M552.661 1106.64c38.773 27.29 61.363 160.21 183.507 128.47 129.444-33.61 200.631-28.22 297.162-32.95 81.76-4.04 142.2-84.35 128.01-179.64-17.68-118.681 110.06-220.088 69.54-340.643-37.62-112.042-122.8-128.58-222.06-198.814-90.118-63.819-137.921-143.492-229.923-138.078-90.875 5.386-140.804 102.576-208.837 141.86-47.423 27.368-108.898 37.578-103.147 98.698"/><path d="M550.014 1104.78c37.484 26.38 56.772 169.5 184.506 134.15 134.687-37.32 205.754-30.48 305.28-32.73 84.11-1.94 146.32-85.51 126.64-184.89-23.9-120.767 112.59-222.003 70.51-344.418-39.29-114.23-127.48-124.85-228.61-196.467-92.236-65.329-137.381-150.235-230.851-144.397-92.38 5.805-140.173 109.693-208.72 148.717-48.547 27.624-112.697 35.952-104.031 99.226"/><path d="M547.367 1102.92c36.194 25.47 52.152 178.83 185.527 139.84 140.084-41 210.986-32.67 313.366-32.52 86.49.12 150.53-86.73 125.27-190.16-30-122.892 115.13-223.908 71.43-348.198-40.93-116.426-132.24-121.225-235.14-194.101-94.331-66.866-136.838-156.978-231.741-150.793-93.871 6.234-139.63 116.789-208.565 155.519-49.651 27.853-116.458 34.331-104.914 99.753"/><path d="M544.72 1101.05c34.905 24.57 47.545 188.18 186.526 145.54 145.371-44.61 216.177-34.89 321.524-32.37 88.86 2.19 154.83-87.98 123.9-195.4-36.05-125.025 117.55-225.822 72.3-351.961-42.59-118.605-136.96-117.548-241.66-191.735-96.46-68.386-136.329-163.703-232.696-157.07-95.366 6.638-138.961 123.911-208.442 162.338-50.769 28.072-120.26 32.681-105.775 100.277"/><path d="M542.073 1099.19c33.616 23.66 42.939 197.52 187.534 151.21 150.678-48.24 221.384-37.16 329.593-32.09 91.26 4.25 159.24-89.29 122.53-200.65-41.95-127.355 120.18-227.749 73.28-355.815-44.22-120.754-141.7-113.88-248.2-189.369-98.571-69.896-135.777-170.482-233.635-163.421-96.857 7.067-138.376 131.035-208.316 169.181-51.887 28.291-124.038 31.028-106.659 100.805"/><path d="M539.426 1097.33c32.34 22.76 38.332 206.86 188.503 156.94 156.018-51.9 226.611-39.31 337.711-31.87 93.59 6.34 163.66-90.7 121.16-205.92-47.84-129.683 122.69-229.672 74.18-359.604-45.91-122.999-146.41-110.216-254.73-187.012-100.682-71.443-135.211-177.29-234.552-169.754-98.363 7.487-137.773 138.133-208.181 176.011-53.005 28.51-127.827 29.388-107.533 101.319"/><path d="M536.793 1095.47c31.01 21.83 33.725 216.2 189.526 162.57 161.338-55.52 231.733-41.57 345.841-31.67 96.01 8.35 168.15-92.14 119.79-211.17-53.68-132.076 125.23-231.563 75.1-363.416-47.6-125.187-151.13-106.538-261.27-184.656-102.789-72.943-134.713-183.977-235.498-176.021-99.886 7.872-137.114 145.269-208.059 182.831-54.123 28.729-131.615 27.747-108.403 101.855"/><path d="M534.146 1093.61c29.72 20.92 29.122 225.57 190.539 168.27 166.654-59.17 236.919-43.81 353.935-31.44 98.39 10.4 172.71-93.62 118.4-216.39-59.49-134.543 127.75-233.484 75.96-367.25-49.27-127.366-155.85-102.861-267.78-182.317-104.908-74.477-134.174-190.744-236.389-182.417-101.349 8.32-136.573 152.28-207.932 189.674-55.203 28.892-135.404 26.107-109.278 102.368"/><path d="M531.499 1091.75c28.431 20.01 24.562 234.9 191.547 173.95 171.943-62.84 242.138-46.02 362.024-31.23 100.78 12.45 177.3-95.18 117.06-221.67-65.29-137.063 130.26-235.392 76.94-371.012-50.94-129.554-160.59-99.193-274.34-179.933-107.036-75.997-133.654-197.483-237.327-188.746-102.83 8.735-136.002 159.395-207.834 196.559-56.378 29.133-139.193 24.467-110.162 102.896"/><path d="M528.852 1089.88c27.142 19.11 19.941 244.3 192.545 179.64 177.328-66.44 247.284-48.28 370.133-30.99 103.16 14.48 181.91-96.79 115.67-226.93-71.08-139.676 132.8-237.313 77.89-374.835-52.63-131.743-165.31-95.516-280.94-177.602-109.14-77.534-133.123-204.248-238.25-195.077-104.349 9.144-135.417 166.459-207.674 203.323-57.541 29.3-142.967 22.836-111.023 103.419"/><path d="M526.205 1088.02c25.853 18.2 15.352 253.67 193.594 185.35 182.636-70.08 252.486-50.52 378.251-30.79 105.55 16.54 186.54-98.43 114.23-232.22-76.79-142.325 135.31-239.214 78.79-378.624-54.29-133.921-170.04-91.862-287.39-175.202-111.267-79.053-132.593-211-239.178-201.418-105.889 9.641-134.84 173.536-207.548 210.166-58.645 29.529-146.755 21.196-111.906 103.947"/><path d="M523.558 1086.16c24.564 17.29 10.763 263.04 194.552 191.01 188.006-73.69 257.633-52.7 386.37-30.58 107.97 18.52 191.19-100.12 112.93-237.43-82.59-144.923 137.81-241.116 79.72-382.419-55.97-136.109-174.81-88.139-293.95-172.854-113.365-80.554-132.057-217.73-240.1-207.737-107.322 9.987-134.24 180.61-207.412 216.995-59.796 29.766-150.544 19.557-112.78 104.461"/><path d="M520.911 1084.29c23.316 16.41 6.184 272.41 195.56 196.69 193.354-77.29 262.902-55.03 394.479-30.35 110.31 20.64 195.85-101.85 111.56-242.68-88.37-147.641 140.3-243.047 80.62-386.219-57.65-138.297-179.48-84.53-300.48-170.437-115.488-82.088-131.523-224.496-241.048-214.088-108.817 10.392-133.658 187.651-207.289 223.815-60.903 29.91-154.323 17.903-113.651 104.998"/><path d="M518.278 1082.44c21.944 15.45 1.595 281.78 196.558 202.38 198.698-80.92 268.06-57.23 402.664-30.09 112.66 22.66 200.45-103.67 110.11-248-94.11-150.404 142.83-244.915 81.54-390.022-59.34-140.472-184.2-80.853-306.99-168.122-117.557-83.582-130.999-231.248-241.954-220.411C649.874 239 627.11 422.895 553.052 458.82c-62.038 30.096-158.12 16.276-114.535 105.525"/><path d="M515.617 1080.57c20.682 14.55-2.98 291.16 197.58 208.06 204.032-84.53 273.247-59.46 410.733-29.91 115.02 24.71 205.16-105.42 108.78-253.2-99.91-153.155 145.34-246.826 82.46-393.812-61.02-142.66-188.92-77.175-313.52-165.756C881.913 360.811 871.239 207.99 758.757 219.19c-111.813 11.24-132.5 201.77-207.018 237.474-63.188 30.273-161.909 14.637-115.419 106.053"/><path d="M512.97 1078.7c19.393 13.65-7.565 300.57 198.617 213.71 209.376-88.17 278.506-61.99 418.813-29.73 117.47 26.62 209.81-107.11 107.39-258.39-105.67-155.96 147.86-248.727 83.39-397.615-62.76-144.767-193.66-73.508-320.06-163.4-121.835-86.655-129.93-244.743-243.802-233.084C644 221.85 625.328 419.074 550.468 454.537c-64.315 30.445-165.684 13.006-116.294 106.567"/><path d="M510.323 1076.84c18.104 12.74-12.144 309.93 199.586 219.44 214.697-91.79 283.698-64.21 426.921-29.51 119.9 28.62 214.51-109.1 106.06-263.69-111.44-158.813 150.36-250.625 84.32-401.419-64.4-147.009-198.38-69.83-326.61-161.03-123.931-88.192-129.378-251.499-244.717-239.416-114.8 12.074-131.41 215.84-206.77 251.137-65.415 30.553-169.472 11.366-117.134 107.063"/><path d="M507.69 1074.99c16.801 11.82-16.734 319.3 200.502 225.07 220.15-95.34 288.967-66.39 435.108-29.25 122.3 30.66 219.26-110.95 104.69-268.94-117.22-161.676 152.85-252.532 85.23-405.218-66.1-149.171-203.11-66.177-333.13-158.678-126.059-89.712-128.858-258.238-245.656-245.744-116.343 12.548-130.787 222.91-206.633 257.966-66.604 30.784-173.261 9.726-118.038 107.618"/><path d="M505.043 1073.12c15.511 10.92-21.309 328.69 201.569 230.81 225.42-98.98 294.088-68.67 443.148-29.08 124.65 32.72 223.95-112.85 103.34-274.21-123-164.592 155.38-254.441 86.17-409.03-67.79-151.382-207.85-62.508-339.681-156.307-128.164-91.235-128.319-265.004-246.561-252.089-117.796 12.921-130.229 229.954-206.521 264.799-67.744 30.946-177.049 8.086-118.922 108.145"/><path d="M502.396 1071.26c14.209 10-25.884 338.07 202.577 236.49 230.801-102.61 299.277-70.9 451.257-28.86 127.05 34.78 228.64-114.76 101.95-279.438-128.83-167.479 157.56-256.192 87.07-412.824-69.77-153.42-212.55-58.845-346.189-153.955-130.294-92.755-127.791-271.757-247.521-258.39-119.291 13.326-129.66 236.985-206.384 271.629-68.898 31.099-180.893 6.407-119.783 108.668"/><path d="M499.749 1069.4c12.919 9.09-30.445 347.47 203.576 242.18 236.158-106.23 304.475-73.13 459.365-28.66 129.44 36.83 233.3-116.71 100.58-284.692-134.64-170.416 160.09-258.103 87.99-416.633-71.44-155.598-217.28-55.167-352.721-151.589-132.387-94.269-127.28-278.458-248.456-264.755-120.772 13.741-129.068 244.012-206.249 278.458-70.051 31.253-184.616 4.793-120.666 109.196"/><path d="M497.102 1067.54c11.575 8.14-35.011 356.83 204.598 247.86 241.492-109.84 309.65-75.35 467.47-28.43 131.83 38.88 237.99-118.65 99.21-289.947-140.48-173.383 162.61-260.01 88.91-420.442-73.1-157.777-221.97-51.531-359.269-149.219-134.507-95.802-126.723-285.251-249.336-271.081-122.612 14.17-128.509 251.057-206.136 285.292-71.181 31.401-188.391 3.161-121.541 109.709"/><path d="M494.455 1065.67c10.341 7.28-39.625 366.28 205.615 253.53 246.845-113.42 314.84-77.56 475.57-28.19 134.21 40.95 242.7-120.69 97.84-295.201-146.28-176.335 165.13-261.931 89.83-424.228-74.77-159.979-226.78-47.861-365.798-146.876-136.61-97.303-126.166-292.045-250.276-277.409-124.109 14.636-127.945 258.064-206 292.121-72.335 31.554-192.18 1.522-122.411 110.247"/><path d="M491.808 1063.81c9.051 6.37-43.949 376.06 206.604 259.23 252.433-116.61 320.068-79.83 483.698-27.99 136.61 43.01 247.33-122.6 96.46-300.464-152.1-179.297 167.67-263.833 90.76-428.028-76.45-162.144-231.45-44.145-372.337-144.497-138.743-98.846-125.667-298.756-251.206-283.75-125.538 15.005-127.367 265.081-205.864 298.95-73.547 31.645-195.968-.118-123.285 110.76"/><path d="M489.161 1061.95c7.762 5.46-48.546 385.39 207.602 264.92 257.798-120.33 325.247-82.03 491.807-27.78 139 45.05 252.03-124.6 95.1-305.719-158.02-182.335 170.17-265.726 91.67-431.823-78.11-164.336-236.11-40.443-378.856-142.144-140.863-100.379-125.139-305.508-252.122-290.083-126.983 15.426-126.794 272.076-205.752 305.784-74.636 31.823-199.757-1.758-124.16 111.274"/><path d="M486.513 1060.08c6.474 4.56-53.142 394.72 208.611 270.61 263.095-123.96 330.436-84.26 499.916-27.56 141.38 47.11 256.66-126.58 93.77-311.028-163.83-185.237 172.6-267.631 92.56-435.568-79.72-166.476-240.92-36.823-385.369-139.852-142.957-101.894-124.589-312.265-253.04-296.415-128.451 15.85-126.235 279.121-205.657 312.584-75.808 31.943-203.545-3.398-125.03 111.812"/><path d="M483.866 1058.22c5.171 3.64-57.739 404.05 209.582 276.28 268.445-127.62 335.672-86.47 508.062-27.33 143.81 49.2 261.35-128.61 92.36-316.227-169.65-188.305 175.22-269.545 93.51-439.432-81.45-168.703-245.63-33.146-391.936-137.418C850.357 310.68 871.332 95.061 741.474 111.337c-129.859 16.276-125.681 286.142-205.445 319.364-76.915 32.088-207.33-5.015-125.901 112.349"/><path d="M481.247 1056.38c3.881 2.73-62.337 413.37 210.631 281.98 273.716-131.32 340.782-88.75 516.102-27.15 146.15 51.22 266-130.65 90.93-321.506-175.53-191.292 177.76-271.47 94.43-443.242-83.11-170.895-250.36-29.468-398.469-135.051C847.687 306.46 871.378 85.671 739.984 102.323c-131.395 16.652-125.116 293.149-205.371 326.252-78.069 32.241-211.105-6.645-126.785 112.876"/><path d="M478.586 1054.5c2.579 1.82-66.905 422.67 211.671 287.71 279.024-135.02 345.963-91.01 524.203-26.98 148.48 53.25 270.65-132.65 89.63-326.743-181.38-194.343 180.27-273.316 95.36-446.98-84.79-173.084-255.09-25.801-404.992-132.686C845.145 302.351 871.466 76.309 738.603 93.386 605.741 110.463 614 393.383 533.368 426.468c-79.305 32.191-214.883-8.299-127.658 113.389"/><path d="M475.939 1052.64c1.289.91-71.56 432.08 212.614 293.36 284.174-138.72 351.217-93.2 532.367-26.73 150.91 55.35 275.7-135.06 88.28-332.034-186.87-197.818 182.8-275.275 96.28-450.827-86.52-175.553-259.8-22.137-411.524-130.343C842.479 298.155 871.434 66.884 737.131 84.405c-134.303 17.52-124.013 307.084-205.109 339.925-80.427 32.386-218.63-9.911-128.529 113.926"/><path d="M473.292 1050.78s-76.118 441.35 213.649 299.05c289.768-142.3 356.369-95.44 540.449-26.52 153.3 57.4 279.98-136.72 86.82-337.249-193.17-200.526 185.33-277.185 97.2-454.636-88.14-177.451-264.53-18.459-418.076-127.973C839.785 293.939 871.452 57.474 735.715 75.402 599.977 93.328 612.291 389.573 530.728 422.145c-81.563 32.573-222.501-11.608-129.403 114.441"/></g></svg>