<svg width="2731" height="2824" fill="none" xmlns="http://www.w3.org/2000/svg"><g opacity=".1" stroke="#0D47A1" stroke-miterlimit="10" clip-path="url(#clip0)"><path d="M552.673 1546.27c134.464-191.04 398.202-237.01 589.077-102.67 190.87 134.35 236.57 398.12 102.1 589.16-134.46 191.04-398.149 237.07-589.066 102.7"/><path d="M651.806 2133.36c58.181 40.95 121.225 76.5 195.198 80.59 86.081 4.75 167.256-7.03 243.096-39.51 65.1-27.96 121.77-78.99 159.49-143.04 62.4-106.01 94.91-226 67.93-340.49-24.02-101.32-84.99-185.95-176.35-250.3-77.62-54.63-161.193-85.48-248.323-84.09-85.427 1.37-165.686 34.74-236.414 82.76-41.095 27.93-79.933 60.75-106.217 105.17"/><path d="M648.827 2131.26c56.731 39.93 116.044 86.72 196.333 86.98 92.087.32 173.14-9.58 252.22-39.25 67.79-25.65 125.21-81.36 157.92-148.96 53.23-109.82 97.8-228.16 69.01-344.76-25.95-103.73-90.32-181.82-183.72-247.63-80.03-56.33-160.623-93.12-249.347-91.23-87.12 1.83-164.942 42.86-236.287 90.45-42.302 28.23-84.196 58.89-107.201 105.74"/><path d="M645.849 2129.17c55.264 38.89 110.83 96.97 197.394 93.33 98.035-4.06 178.987-12.09 261.357-39.01 70.48-23.34 128.62-83.48 156.4-154.86 44.13-113.36 100.6-230.3 70.01-349.06-27.72-106.18-95.55-177.65-191.05-244.87-82.36-58.08-159.938-100.65-250.391-98.34-88.787 2.3-164.161 50.96-236.134 98.13-43.509 28.54-88.459 57.05-108.195 106.34"/><path d="M642.87 2127.07c53.814 37.88 105.6 107.29 198.591 99.77 103.965-8.39 184.889-14.38 270.479-38.76 73.2-20.85 132.07-85.35 154.86-160.77 35.2-116.5 103.68-232.55 71.01-353.35-29.41-108.76-100.94-173.56-198.42-242.32-84.81-59.85-159.376-108.27-251.427-105.49-90.481 2.77-163.422 59.06-236.024 105.81-44.732 28.83-92.721 55.21-109.163 106.93"/><path d="M639.892 2124.97c52.363 36.86 100.388 117.65 199.729 106.19 109.922-12.73 190.719-16.86 279.599-38.53 75.89-18.52 135.61-87.04 153.32-166.68 26.52-119.36 106.61-234.69 72.08-357.61-31.25-111.24-106.23-169.48-205.83-239.59-87.13-61.53-158.778-115.87-252.466-112.6-92.251 3.19-162.656 67.15-235.855 113.51-45.908 29.15-96.984 53.36-110.158 107.52"/><path d="M636.929 2122.89c50.927 35.84 95.151 128 200.848 112.56 115.798-16.97 196.563-19.33 288.713-38.28 78.58-16.16 139.28-88.5 151.83-172.65 18.13-121.96 109.48-236.86 73.11-361.88-33.06-113.7-111.59-165.31-213.11-237.02-89.51-63.23-158.189-123.47-253.528-119.72-93.841 3.71-161.952 75.2-235.702 121.19-47.177 29.42-101.247 51.52-111.142 108.1"/><path d="M633.95 2120.79c49.385 34.76 89.924 138.42 201.929 119.03 121.851-21.21 202.471-21.92 297.811-38.16 81.28-13.83 143.09-89.87 150.18-178.43 10.01-124.37 112.37-239 74.15-366.16-34.91-116.17-116.9-161.17-220.46-234.34-91.88-64.94-157.578-131.05-254.563-126.87-95.464 4.12-161.096 83.26-235.428 128.87-48.4 29.71-105.484 49.66-112.121 108.7"/><path d="M630.972 2118.69c47.995 33.79 84.7 148.86 203.106 125.36 127.75-25.33 208.282-24.34 306.972-37.79 83.94-11.49 147.09-91.16 148.69-184.42 2.21-126.72 115.27-241.19 75.17-370.43-36.77-118.65-122.2-157.05-227.81-231.7-94.26-66.65-156.981-138.65-255.586-133.98-97.228 4.66-160.529 91.32-235.453 136.55-49.639 30-109.793 47.79-113.106 109.28"/><path d="M627.993 2116.6c46.545 32.76 79.446 159.27 204.23 131.76 133.719-29.52 214.087-26.78 316.107-37.55 86.62-9.17 151.24-92.42 147.15-190.34-5.39-128.97 118.16-243.29 76.22-374.7-38.62-121.13-127.53-152.92-235.18-229.04-96.64-68.38-156.379-146.26-256.636-141.11-98.895 5.13-159.809 99.38-235.346 144.2-50.866 30.27-114.01 45.98-114.101 109.88"/><path d="M625.015 2114.5c45.079 31.73 74.345 169.8 205.364 138.15 139.68-33.66 219.911-29.25 325.231-37.3 89.3-6.84 155.55-93.65 145.6-196.25-12.74-131.24 120.98-245.48 77.26-378.98-40.47-123.59-132.84-148.79-242.52-226.38-99.04-70.05-155.777-153.88-257.686-148.24-100.572 5.6-159.142 107.44-235.127 151.95-52.092 30.53-118.218 44.05-115.068 110.47"/><path d="M622.036 2112.41c43.628 30.7 69.048 180.27 206.488 144.55 145.654-37.82 225.756-31.75 334.376-37.08 92-4.54 160.01-94.91 144.04-202.13-19.89-133.54 123.84-247.65 78.24-383.3-42.32-126.07-138.17-144.68-249.86-223.71-101.4-71.81-155.194-161.47-258.717-155.37-102.255 6.06-158.437 115.42-234.989 159.62-53.362 30.8-122.536 42.29-116.064 111.06"/><path d="M619.058 2110.31c42.177 29.69 63.881 190.73 207.611 150.95 151.554-42 231.521-34.29 343.501-36.83 94.65-2.18 164.66-96.22 142.51-208.04-26.9-135.89 126.69-249.81 79.34-387.55-44.22-128.54-143.44-140.49-257.24-221.07-103.79-73.51-154.586-169.05-259.761-162.48-103.949 6.53-157.726 123.43-234.858 167.34-54.626 31.08-126.81 40.45-117.058 111.65"/><path d="M616.079 2108.21c40.727 28.67 58.683 201.23 208.761 157.36 157.626-46.14 237.41-36.76 352.61-36.6 97.32.14 169.38-97.58 140.95-213.96-33.75-138.29 129.55-251.95 80.38-391.81-46.05-131-148.8-136.4-264.59-218.41-106.14-75.24-153.97-176.63-260.758-169.67-105.626 7.01-157.115 131.41-234.683 174.99-55.869 31.34-131.041 38.63-118.053 112.25"/><path d="M613.101 2106.12c39.276 27.64 53.499 211.74 209.884 163.76 163.576-50.2 243.245-39.26 361.785-36.42 100 2.46 174.23-99 139.42-219.88-40.56-140.68 132.27-254.1 81.36-396.03-47.93-133.46-154.12-132.27-271.93-215.75-108.54-76.95-153.401-184.2-261.836-176.74-107.309 7.47-156.363 139.43-234.546 182.67-57.126 31.59-135.319 36.77-119.02 112.84"/><path d="M610.123 2104.02c37.825 26.62 48.315 222.25 211.018 170.15 169.547-54.29 249.109-41.81 370.869-36.11 102.68 4.78 179.18-100.47 137.87-225.78-47.2-143.3 135.23-256.27 82.46-400.37-49.76-135.88-159.45-128.14-279.28-213.09-110.92-78.65-152.782-191.83-262.895-183.88-108.987 7.95-155.705 147.44-234.404 190.37-58.384 31.83-139.571 34.91-120.015 113.42"/><path d="M607.144 2101.92c36.39 25.62 43.132 232.77 212.109 176.6 175.556-58.4 254.987-44.23 379.997-35.87 105.32 7.14 184.16-102.05 136.34-231.69-53.83-145.93 138.05-258.44 83.47-404.64-51.67-138.41-164.74-124.02-286.63-210.44-113.29-80.39-152.146-199.49-263.927-191.01-110.681 8.43-155.026 155.43-234.251 198.06-59.643 32.08-143.835 33.06-121 114"/><path d="M604.181 2099.84c34.893 24.56 37.948 243.27 213.261 182.93 181.542-62.48 260.748-46.78 389.148-35.65 108.03 9.4 189.21-103.67 134.79-237.61-60.4-148.61 140.91-260.56 84.51-408.92-53.56-140.87-170.06-119.88-293.99-207.78-115.66-82.08-151.584-207.02-264.991-198.07-112.393 8.86-154.284 163.46-234.113 205.73-60.901 32.33-148.097 31.22-121.979 114.61"/><path d="M601.202 2097.74c33.443 23.54 32.77 253.82 214.4 189.35 187.528-66.59 266.588-49.3 398.258-35.38 110.71 11.7 194.34-105.35 133.23-243.49-66.94-151.39 143.75-262.72 85.47-413.24-55.44-143.32-175.37-115.74-301.31-205.15-118.05-83.8-150.981-214.63-265.996-205.26-114.041 9.36-153.676 171.35-233.971 213.43-62.116 32.51-152.36 29.37-122.963 115.18"/><path d="M598.224 2095.64c31.992 22.52 27.638 264.32 215.534 195.74 193.472-70.71 272.462-51.78 407.362-35.14 113.4 14.01 199.5-107.1 131.72-249.43-73.47-154.23 146.57-264.87 86.57-417.47-57.32-145.78-180.7-111.62-308.69-202.47-120.44-85.51-150.394-222.21-267.05-212.38-115.708 9.83-153.034 179.36-233.862 221.17-63.437 32.79-156.623 27.53-123.957 115.79"/><path d="M595.245 2093.55c30.541 21.49 22.438 274.89 216.658 202.14 199.537-74.76 278.247-54.33 416.487-34.89 116.08 16.31 204.69-108.9 130.15-255.33-79.98-157.18 149.44-267.04 87.64-421.78-59.21-148.24-186.01-107.48-316.12-199.85-122.8-87.24-149.79-229.82-268.082-219.5-117.416 10.29-152.374 187.3-233.681 228.78-64.746 32.97-160.87 25.7-124.925 116.37"/><path d="M592.267 2091.45c29.09 20.48 17.274 285.44 217.838 208.56 205.505-78.85 284.105-56.84 425.615-34.64 118.77 18.61 209.9-110.76 128.54-261.31-86.4-160.14 152.25-269.16 88.65-426.03-61.09-150.69-191.32-103.37-323.38-197.14-125.19-88.96-149.192-237.43-269.125-226.65-119.149 10.85-151.726 195.27-233.538 236.49-65.989 33.23-165.134 23.85-125.921 116.96"/><path d="M589.288 2089.36c27.64 19.45 12.111 295.98 218.916 214.93 211.546-82.92 289.896-59.3 434.756-34.41 121.49 20.83 215.13-112.66 127.07-267.16-92.93-163.07 155.07-271.31 89.7-430.31-62.98-153.16-196.7-99.18-330.75-194.5-127.57-90.65-148.601-245-270.174-233.76-120.762 11.24-151.051 203.23-233.386 244.17-67.284 33.5-169.396 22.01-126.904 117.55"/><path d="M586.31 2087.26c26.235 18.47 6.958 306.52 220.049 221.32 217.571-86.97 295.821-61.92 443.871-34.15 124.14 23.22 220.38-114.61 125.54-273.08-99.43-166.13 157.87-273.48 90.72-434.58-64.87-155.62-201.96-95.12-338.11-191.78-129.954-92.37-147.997-252.61-271.237-240.9-122.444 11.69-150.396 211.15-233.248 251.84-68.53 33.66-173.649 20.15-127.884 118.15"/><path d="M583.347 2085.17c24.692 17.38 1.794 317.07 221.173 227.73 223.58-91.06 301.63-64.4 453.09-33.86 126.77 25.49 225.55-116.65 123.89-279.05-105.88-169.25 160.72-275.59 91.76-438.87-66.77-158.07-207.27-90.98-345.44-189.18-132.273-94.05-147.398-260.21-272.248-248.01-124.149 12.18-149.763 219.1-233.096 259.53-69.807 33.86-177.922 18.31-128.878 118.74"/><path d="M580.353 2083.07c23.272 16.38-3.354 327.63 222.323 234.12 229.584-95.12 307.464-66.92 462.174-33.66 129.42 27.8 230.85-118.62 122.39-284.91-112.41-172.33 163.55-277.74 92.8-443.13-68.66-160.52-212.59-86.84-352.79-186.51-134.729-95.8-146.741-267.76-273.309-255.16-125.815 12.65-149.093 227.04-232.942 267.21-71.101 34.07-182.185 16.47-129.873 119.34"/><path d="M577.374 2080.97c21.822 15.36-8.512 338.21 223.49 240.47 235.596-99.21 313.386-69.75 471.256-33.46 132.18 29.95 236.09-120.52 120.85-290.74-118.91-175.49 166.37-279.88 93.82-447.41-70.61-162.9-217.91-82.71-360.14-183.86-137.088-97.51-146.196-275.4-274.328-262.28-127.509 13.12-148.519 235.04-232.754 274.95-72.369 34.26-186.433 14.63-130.857 119.91"/><path d="M574.396 2078.87c20.371 14.34-13.665 348.74 224.58 246.92 241.584-103.29 319.224-72.25 480.384-33.2 134.91 32.2 241.38-122.76 119.35-296.71-125.41-178.71 169.18-282.02 94.87-451.69-72.46-165.42-223.22-78.58-367.51-181.2-139.45-99.24-145.58-282.99-275.363-269.4-129.176 13.59-147.867 242.87-232.663 282.59-73.608 34.38-190.695 12.79-131.803 120.47"/><path d="M571.433 2076.79c18.905 13.3-18.829 359.29 225.611 253.25 247.716-107.28 325.156-74.7 489.596-32.9 137.61 34.49 246.72-124.85 117.8-302.63-131.9-181.92 171.99-284.15 95.9-455.96-74.38-167.85-228.54-74.46-374.85-178.55-141.839-100.95-144.989-290.58-276.413-276.52-130.913 14.12-147.165 250.83-232.51 290.27-74.945 34.64-194.958 10.95-132.82 121.1"/><path d="M568.454 2074.69c17.455 12.29-23.976 369.85 226.812 259.72 253.654-111.38 330.914-77.28 498.644-32.73 140.26 36.81 251.99-126.98 116.28-308.55-138.41-185.2 174.84-286.31 96.96-460.25-76.27-170.34-233.87-70.34-382.22-175.88-144.211-102.67-144.386-298.19-277.436-283.66-132.547 14.54-146.536 258.75-232.383 297.96-76.227 34.82-199.221 9.1-133.814 121.69"/><path d="M565.476 2072.59c15.988 11.26-29.125 380.41 227.946 266.11 259.708-115.46 336.758-79.78 507.768-32.47 142.96 39.13 257.27-129.14 114.72-314.44-144.96-188.45 177.29-288.27 97.98-464.52-78.51-172.63-239.17-66.21-389.55-173.23-146.612-104.37-143.796-305.79-278.519-290.75-134.23 14.99-145.898 266.66-232.23 305.64-77.526 35-203.546 7.21-134.783 122.28"/><path d="M562.497 2070.5c14.538 10.23-34.257 390.98 229.07 272.51 265.733-119.53 342.603-82.29 516.893-32.25 145.64 41.44 262.52-131.33 113.17-320.34-151.49-191.76 180.14-290.43 99.01-468.81-80.38-175.09-244.48-62.08-396.89-170.58-148.965-106.07-143.218-313.32-279.569-297.91-135.897 15.47-145.231 274.57-232.077 313.33-78.824 35.17-207.736 5.4-135.777 122.87"/><path d="M559.519 2068.4c13.025 9.17-39.395 401.53 230.219 278.91 271.732-123.6 348.432-84.79 526.012-31.99 148.34 43.75 267.79-133.51 111.64-326.26-158.08-195.1 182.96-292.57 100.04-473.09-82.26-177.54-249.77-57.99-404.26-167.91-151.354-107.8-142.595-320.97-280.562-305.03-137.967 15.95-144.603 282.5-231.95 321.02-80.096 35.33-211.984 3.56-136.762 123.45"/><path d="M556.54 2066.31c11.637 8.19-44.586 412.14 231.365 285.28 277.755-127.63 354.265-87.28 535.125-31.73 151.02 46.08 273.1-135.8 110.1-332.17-164.61-198.41 185.8-294.73 101.07-477.35-84.14-180.01-255.18-53.85-411.6-165.27-153.722-109.49-141.971-328.62-281.622-312.15-139.652 16.47-143.968 290.38-231.798 328.7-81.393 35.51-216.246 1.72-137.74 124.06"/><path d="M553.562 2064.21c10.185 7.17-49.453 423.16 232.477 291.7 284.041-131.22 360.151-89.83 544.271-31.5 153.72 48.39 278.31-137.96 108.54-338.09-171.14-201.75 188.67-296.88 102.12-481.63-86.02-182.45-260.43-49.68-418.96-162.59-156.116-111.23-141.403-336.17-282.663-319.29-141.259 16.89-143.317 298.28-231.644 336.39-82.758 35.61-220.51-.13-138.724 124.63"/><path d="M550.583 2062.11c8.735 6.15-54.625 433.66 233.601 298.11 290.086-135.41 365.976-92.31 553.396-31.27 156.4 50.69 283.59-140.2 107.01-344-177.81-205.17 191.48-299 103.14-485.9-87.88-184.92-265.67-45.51-426.29-159.94-158.505-112.95-140.811-343.772-283.697-326.41-142.885 17.35-142.671 306.14-231.517 344.07-83.984 35.81-224.773-1.98-139.708 125.21"/><path d="M547.605 2060.02c7.284 5.12-59.798 444.15 234.735 304.49 296.04-139.48 371.82-94.8 562.52-31.01 159.08 53.01 288.8-142.43 105.51-349.98-184.35-208.43 194.22-301.14 104.15-490.11-89.7-187.33-271.08-41.44-433.62-157.37-160.863-114.65-140.195-351.367-284.732-333.53-144.537 17.83-142.044 314.07-231.411 351.73-85.302 35.94-229.036-3.83-140.688 125.81"/><path d="M544.626 2057.92c5.819 4.1-64.97 454.65 235.828 310.87 302.066-143.6 377.706-97.29 571.686-30.75 161.82 55.36 294.08-144.71 103.93-355.82-190.9-211.89 197.16-303.3 105.22-494.46-91.65-189.83-276.39-37.3-441.02-154.63-163.257-116.36-139.656-358.985-285.776-340.671-146.121 18.311-141.42 321.971-231.173 359.361-86.547 36.1-233.294-5.65-141.667 126.42"/><path d="M541.679 2055.85c4.367 3.07-70.143 465.14 237.008 317.29 307.993-147.77 383.463-99.87 580.733-30.55 164.46 57.63 299.31-147.01 102.31-361.77-197.5-215.24 200.03-305.46 106.26-498.74-93.52-192.3-281.71-33.16-448.37-151.97-165.612-118.09-138.954-366.532-286.803-347.794-147.849 18.734-140.784 329.864-231.09 367.114-87.845 36.27-237.541-7.48-142.661 127.01"/><path d="M538.685 2053.74c2.901 2.04-75.283 475.59 238.178 323.73 313.967-151.92 389.287-102.4 589.847-30.35 167.07 59.91 304.55-149.27 100.86-367.67-204.09-218.68 202.85-307.54 107.3-502.95-95.41-194.76-287.04-29.03-455.71-149.3-168.012-119.81-138.395-374.156-287.896-354.94-149.501 19.215-140.208 337.57-230.937 374.79-89.236 36.23-241.793-9.33-143.645 127.59"/><path d="M535.706 2051.64c1.451 1.02-80.521 486.19 239.24 330.09 319.764-156.09 395.194-104.86 599.044-30.07 169.8 62.28 310.21-151.97 99.32-373.61-210.27-222.59 205.69-309.75 108.34-507.29-97.35-197.53-292.33-24.91-463.06-146.66-170.443-121.43-137.861-381.661-288.983-361.946-151.121 19.715-139.544 345.546-230.794 382.496-90.5 36.44-246.01-11.15-144.625 128.19"/><path d="M532.727 2049.55s-85.65 496.62 240.405 336.5c326.058-160.12 400.988-107.4 608.128-29.84 172.5 64.58 315.05-153.85 97.69-379.49-217.36-225.63 208.54-311.89 109.37-511.57-99.17-199.67-297.65-20.77-470.43-143.99-172.774-123.23-137.14-389.309-289.876-369.136-152.736 20.172-138.88 353.516-230.657 390.166-91.778 36.65-250.365-13.06-145.609 128.77"/></g><g opacity=".1" stroke="#0D47A1" stroke-miterlimit="10" clip-path="url(#clip1)"><path d="M2180.85 1216.49c-146.81 146.8-384.73 146.92-531.4.24-146.68-146.68-146.55-384.584.26-531.392 146.8-146.807 384.69-146.982 531.4-.269"/><path d="M2183.4 687.358c-44.71-44.71-94.5-85.431-158.65-100.267-74.65-17.263-147.51-19.304-218.86-2.409-61.26 14.576-118.64 50.639-161.42 100.979-70.77 83.316-117.49 183.433-111.29 287.784 5.62 92.365 46.12 175.745 116.31 245.995 59.66 59.65 128.13 99.38 204.64 111.42 75 11.8 150.35-5.2 219.59-36.49 40.23-18.19 79.23-41.02 109.01-75.92"/><path d="M2185.69 689.647c-43.6-43.595-88.41-93.585-158.67-106.033-80.58-14.294-153.05-17.961-226.81-4.019-63.26 12.145-122.01 52.182-160.95 106.389-63.32 88.059-120.35 184.894-112.88 291.368 6.93 94.778 51.41 172.948 123.17 244.778 61.5 61.5 126.47 105.98 204.44 117.83 76.56 11.65 150.94-12.43 220.65-43.24 41.34-18.28 82.69-38.75 109.96-76.27"/><path d="M2187.98 691.936c-42.47-42.469-82.29-101.775-158.63-111.764-86.46-11.361-158.56-16.653-234.78-5.617-65.26 9.713-125.32 53.525-160.5 111.788-55.9 92.54-123.14 186.343-114.43 294.976 8.11 97.191 56.63 170.091 130.02 243.481 63.27 63.39 124.72 112.47 204.27 124.21 78.09 11.5 151.49-19.64 221.69-49.99 42.43-18.36 86.13-36.49 110.91-76.64"/><path d="M2190.27 694.224c-41.36-41.353-76.14-110.012-158.7-117.578-92.31-8.474-164.08-15.546-242.73-7.226-67.26 7.116-128.63 54.63-160.05 117.198-48.56 96.654-126.17 187.839-115.95 298.584 9.19 99.698 61.96 167.328 136.85 242.358 65.15 65.31 123.07 119.06 204.09 130.64 79.65 11.34 152.08-26.85 222.76-56.73 43.55-18.44 89.59-34.23 111.85-77.01"/><path d="M2192.55 696.513c-40.23-40.239-69.99-118.285-158.72-123.368-98.18-5.588-169.55-14.262-250.67-8.813-69.27 4.661-131.99 55.57-159.61 122.609-41.38 100.471-129.06 189.264-117.54 302.144 10.44 102.155 67.22 164.565 143.76 241.105 66.93 67.13 121.39 125.61 203.92 137.01 81.26 11.25 152.64-34.04 223.79-63.49 44.63-18.54 93.03-31.96 112.81-77.38"/><path d="M2194.83 698.79c-39.13-39.136-63.83-126.558-158.73-129.122-103.97-2.762-175.05-12.991-258.62-10.423-71.26 2.194-135.42 56.295-159.21 128.067-34.43 104.026-131.9 190.725-119.08 305.727 11.64 104.591 72.55 161.721 150.52 239.961 68.75 68.98 119.72 132.18 203.76 143.41 82.73 11.03 153.25-41.2 224.82-70.25 45.79-18.57 96.49-29.69 113.77-77.73"/><path d="M2197.12 701.079c-37.95-37.95-57.67-134.879-158.69-134.948-109.92.029-180.62-11.624-266.57-11.914-73.27-.261-138.96 56.913-158.64 133.382-27.7 107.369-134.76 192.162-120.65 309.312 12.89 107.029 77.83 158.909 157.37 238.729 70.56 70.85 118.02 138.73 203.58 149.83 84.21 10.93 153.72-48.39 225.75-77 46.9-18.65 99.91-27.44 114.71-78.12"/><path d="M2199.41 703.368c-36.88-36.883-51.51-143.223-158.76-140.667-115.71 2.737-186.08-10.387-274.53-13.631-75.25-2.716-142.66 57.437-158.25 138.852-21.22 110.617-137.64 193.635-122.2 312.898 14.14 109.48 83.1 156.1 164.21 237.54 72.39 72.7 116.35 145.29 203.4 156.2 85.84 10.72 154.45-55.52 226.93-83.72 48.03-18.71 103.41-25.13 115.67-78.47"/><path d="M2201.7 705.657c-35.77-35.768-45.32-151.544-158.77-146.446-121.57 5.493-191.52-9.138-282.49-15.228-77.24-5.16-146.49 57.902-157.81 144.262-14.91 113.746-140.48 195.036-123.76 316.475 15.38 111.94 88.39 153.31 171.06 236.33 74.21 74.59 114.67 151.87 203.23 162.61 87.37 10.57 155.05-62.68 228.01-90.44 49.15-18.76 106.82-22.9 116.63-78.84"/><path d="M2203.99 707.946c-34.64-34.642-39.26-159.983-158.79-152.213-127.43 8.214-197.01-7.854-290.44-16.838-79.23-7.603-150.46 58.331-157.36 149.672-8.81 116.853-143.28 196.533-125.32 320.073 16.63 114.38 93.67 150.49 177.9 235.12 76.05 76.41 112.97 158.44 203.06 169.02 88.91 10.39 155.69-69.86 229-97.27 50.26-18.8 110.21-20.58 117.56-79.21"/><path d="M2206.28 710.235c-33.53-33.527-33.03-168.351-158.8-157.991-133.29 10.945-202.5-6.558-298.41-18.424-81.25-10.022-154.55 58.748-156.89 155.059-2.9 119.958-146.12 197.993-126.84 323.711 17.87 116.82 98.97 147.7 184.73 233.9 77.86 78.31 111.31 164.99 202.88 175.41 90.46 10.26 156.29-76.95 230.05-104 51.41-18.85 113.72-18.38 118.52-79.58"/><path d="M2208.56 712.524c-32.41-32.412-26.9-176.719-158.8-163.769-139.09 13.712-207.94-5.203-306.37-20.023-83.21-12.501-158.81 59.19-156.44 160.469 2.87 123.076-148.95 199.443-128.45 327.259 19.16 119.27 104.22 144.83 191.6 232.71 79.68 80.16 109.62 171.54 202.71 181.8 92.01 10.1 156.88-84.07 231.1-110.78 52.56-18.91 117.19-16.13 119.49-79.95"/><path d="M2210.85 714.812c-31.29-31.297-20.75-185.122-158.84-169.547-145.03 16.409-213.46-3.942-314.31-21.62-85.18-14.932-163.15 59.666-155.97 165.891 8.5 126.218-151.77 200.892-130 330.824 20.38 121.72 109.53 142.08 198.42 231.5 81.49 82.04 107.94 178.1 202.5 188.25 93.55 9.94 157.56-91.15 232.11-117.5 53.69-18.94 120.62-13.88 120.45-80.32"/><path d="M2213.14 717.101c-30.18-30.182-14.62-193.537-158.85-175.325-150.86 19.057-218.95-2.647-322.31-23.171-87.18-17.376-167.62 60.166-155.53 171.302 14.1 129.347-154.49 202.352-131.51 334.373 21.65 124.15 114.81 139.27 205.26 230.29 83.32 83.89 106.28 184.63 202.36 194.6 95.1 9.79 158.13-98.29 233.16-124.25 54.83-18.96 124.08-11.6 121.39-80.68"/><path d="M2215.43 719.39c-29.07-29.067-8.48-201.952-158.87-181.092-156.71 21.73-224.47-1.303-330.22-24.828-89.18-19.807-172.18 60.703-155.08 176.712 19.53 132.655-157.4 203.801-133.12 338.008 22.88 126.54 120.1 136.46 212.09 229.07 85.15 85.75 104.59 191.22 202.21 201.02 96.64 9.62 158.77-105.41 234.21-131.01 55.96-18.99 127.52-9.33 122.34-81.05"/><path d="M2217.72 721.679c-27.96-27.965-2.34-210.368-158.84-186.906-162.6 24.414-230-.078-338.18-26.426-91.13-22.274-176.78 61.334-154.63 182.122 24.92 135.963-160.21 205.274-134.67 341.591 24.17 129.05 125.37 133.66 218.94 227.87 86.96 87.63 102.86 197.83 202.02 207.41 98.19 9.47 159.39-112.5 235.25-137.76 57.1-19.01 130.97-7.06 123.29-81.41"/><path d="M2220 723.956c-26.82-26.814 3.79-218.783-158.89-192.625-168.46 27.075-235.43 1.277-346.15-28.012-93.17-24.67-181.45 61.977-154.19 187.533 30.27 139.318-163.03 206.698-136.22 345.188 25.46 131.49 130.65 130.84 225.79 226.67 88.78 89.47 101.22 204.33 201.88 213.75 99.75 9.35 159.96-119.65 236.29-144.51 58.24-19.03 134.42-4.79 124.24-81.78"/><path d="M2222.29 726.245c-25.7-25.699 9.93-227.223-158.91-198.415-174.33 29.759-240.93 2.596-354.09-29.634-95.16-27.089-186.2 62.667-153.71 192.919 35.57 142.744-165.85 208.16-137.73 348.815 26.73 133.93 135.94 128.03 232.61 225.48 90.6 91.35 99.53 210.91 201.66 220.21 101.27 9.15 160.63-126.65 237.34-151.27 59.33-19.01 137.87-2.53 125.19-82.14"/><path d="M2224.57 728.534c-24.58-24.585 16.03-235.638-158.92-204.182-180.17 32.468-246.45 3.869-362.03-31.231-97.16-29.521-190.98 63.417-153.29 198.353 40.85 146.218-168.64 209.608-139.34 352.356 28.01 136.36 141.23 125.23 239.48 224.25 92.44 93.21 97.86 217.46 201.5 226.6 102.81 9 161.29-133.75 238.42-158.06 60.54-19.05 141.33-.27 126.16-82.52"/><path d="M2226.86 730.823c-23.47-23.47 22.19-244.101-158.94-209.96-186.08 35.092-251.89 5.224-369.97-32.842-99.15-31.94-195.79 64.203-152.82 203.764 46.11 149.787-171.48 211.069-140.92 355.965 29.28 138.81 146.51 122.41 246.37 223.09 94.25 95.07 96.18 224.02 201.33 232.99 104.37 8.86 161.92-140.81 239.42-164.76 61.71-19.01 144.77 1.98 127.09-82.88"/><path d="M2229.15 733.112c-22.35-22.355 28.32-252.552-158.99-215.762-191.94 37.765-257.41 6.532-377.94-34.44-101.16-34.371-200.63 65.036-152.31 209.233 51.28 153.368-174.27 212.507-142.46 359.537 30.56 141.24 151.79 119.62 253.14 221.83 96.09 96.93 94.51 230.58 201.16 239.4 105.97 8.63 162.56-147.89 240.47-171.52 62.83-19.05 148.22 4.24 128.05-83.25"/><path d="M2231.44 735.4c-21.24-21.24 34.44-261.002-158.97-221.504-197.84 40.401-262.85 7.804-385.89-36.038-103.21-36.732-205.52 65.904-151.92 214.584 56.54 156.925-177.08 213.955-144.03 363.118 31.83 143.69 157.13 116.77 260 220.64 97.9 98.78 92.82 237.13 200.98 245.78 107.45 8.54 163.19-154.95 241.51-178.27 64.01-19.09 151.67 6.51 129-83.6"/><path d="M2233.73 737.689c-20.16-20.161 40.56-269.442-158.99-227.271-203.73 43.039-268.44 9.195-393.85-37.647-105.15-39.223-210.4 66.808-151.47 219.994 61.78 160.589-179.85 215.428-145.57 366.705 33.12 146.13 162.36 114.02 266.86 219.37 99.73 100.66 91.14 243.71 200.83 252.21 108.99 8.39 163.81-161.99 242.55-185.01 65.13-19.04 155.11 8.78 129.95-83.99"/><path d="M2236.01 739.966c-18.98-18.975 46.68-277.892-159-233.049-209.62 45.699-273.9 10.479-401.87-39.304-107.12-41.619-215.24 67.806-150.95 225.475 66.96 164.3-182.66 216.841-147.13 370.302 34.41 148.56 167.64 111.2 273.67 218.21 101.51 102.48 89.46 250.26 200.64 258.58 110.55 8.23 164.47-169.05 243.59-191.76 66.27-19.03 158.57 11.04 130.91-84.35"/><path d="M2238.31 742.267c-17.89-17.884 52.79-286.355-159.03-238.828-215.5 48.348-279.4 11.799-409.79-40.866-109.09-44.038-220.18 68.734-150.53 230.838 72.2 167.999-185.46 218.29-148.69 373.869 35.69 151.01 172.92 108.39 280.51 217 103.39 104.39 87.74 256.78 200.48 265.01 112.08 8.07 165.09-176.1 244.62-198.52 67.44-19.01 162.02 13.3 131.88-84.72"/><path d="M2240.6 744.556c-16.77-16.77 58.92-294.831-159.09-244.559-221.38 51.009-285.01 13.38-417.72-42.429-111.17-46.339-225.05 69.603-150.05 236.178 77.41 171.758-188.27 219.739-150.24 377.464 37.04 153.38 178.21 105.59 287.35 215.8 105.19 106.24 86.1 263.37 200.28 271.39 113.64 7.92 165.81-183.2 245.64-205.32 68.58-18.98 165.46 15.56 132.82-85.08"/><path d="M2242.89 746.845c-15.66-15.655 65.03-303.27-159.07-250.373-227.24 53.669-290.5 14.676-425.66-44.039-113.23-48.723-230.03 70.757-149.65 241.635 82.6 175.553-191.06 221.176-151.81 381.052 38.27 155.87 183.49 102.77 294.21 214.58 106.99 108.11 84.39 269.94 200.1 277.79 115.17 7.76 166.43-190.15 246.72-212.02 69.68-18.9 168.91 17.82 133.74-85.43"/><path d="M2245.16 749.122c-14.53-14.528 71.17-311.721-159-256.08-233.22 56.235-296.06 15.924-433.68-45.696-115.25-51.142-235.03 71.767-149.21 247.045 87.81 179.359-193.83 222.625-153.35 384.639 39.58 158.28 188.77 99.98 301.03 213.38 108.84 109.97 82.74 276.49 199.95 284.18 116.77 7.56 167.02-197.22 247.75-218.77 70.89-18.93 172.37 20.08 134.73-85.82"/><path d="M2247.45 751.41c-13.41-13.413 77.28-320.183-159.07-261.917-239.04 58.92-301.5 17.303-441.58-47.235-117.2-53.573-239.96 72.838-148.77 252.468 93 183.224-196.66 224.074-154.94 388.234 40.86 160.75 194.07 97.17 307.9 212.16 110.65 111.84 81.04 283.07 199.75 290.59 118.27 7.44 167.68-204.26 248.81-225.52 72.05-18.89 175.82 22.35 135.69-86.18"/><path d="M2249.74 753.699c-12.29-12.286 83.39-328.646-159.09-267.683-244.96 61.568-306.99 18.599-449.53-48.845-119.22-56.017-244.91 73.92-148.3 257.854 98.25 187.066-199.1 225.428-156.48 391.815 42.47 163.1 199.34 94.37 314.72 210.97 112.48 113.69 79.37 289.62 199.61 296.95 119.82 7.3 168.33-211.28 249.86-232.27 73.2-18.84 179.31 24.66 136.62-86.55"/><path d="M2252.03 755.988c-11.17-11.171 89.5-337.12-159.1-273.462-250.86 64.217-312.5 19.907-457.48-50.43-121.22-58.449-249.85 75.037-147.85 263.264 103.47 190.955-201.93 226.877-158.04 395.41 43.74 165.54 204.62 91.56 321.56 209.75 114.28 115.55 77.71 296.14 199.44 303.39 121.35 7.15 168.95-218.3 250.89-239.02 74.37-18.8 182.71 26.89 137.58-86.92"/><path d="M2254.32 758.277c-10.01-10.009 95.6-345.572-159.13-279.24-256.74 66.866-317.99 21.214-465.44-52.041-123.22-60.879-254.79 76.144-147.4 268.675 108.72 194.88-204.72 228.326-159.59 399.009 45.01 167.96 209.87 88.78 328.41 208.54 116.12 117.42 76.01 302.73 199.24 309.77 123.22 7.04 169.6-225.34 251.94-245.78 75.51-18.75 186.15 29.15 138.53-87.27"/><path d="M2256.61 760.566c-8.95-8.942 101.76-354.082-159.17-284.995-262.62 69.479-323.46 22.499-473.37-53.662-125.21-63.323-259.79 77.344-146.95 274.085 113.93 198.781-207.54 229.786-161.14 402.576 46.27 170.42 215.23 85.99 335.24 207.35 117.93 119.26 74.29 309.34 199.07 316.17 124.79 6.83 170.25-232.34 252.98-252.53 76.67-18.7 189.61 31.41 139.49-87.66"/><path d="M2258.9 762.855c-7.83-7.827 107.69-362.984-159.16-290.785-268.68 71.665-329.01 23.842-481.35-55.248-127.23-65.767-264.68 78.438-146.49 279.507 119.15 202.694-210.37 231.223-162.71 406.161 47.55 172.84 220.47 83.13 342.09 206.12 119.77 121.15 72.65 315.87 198.9 322.58 126.26 6.71 170.88-239.35 254.02-259.28 77.88-18.58 193.05 33.67 140.43-88.01"/><path d="M2261.18 765.144c-6.71-6.713 113.83-371.387-159.16-296.564-274.6 74.409-334.5 25.127-489.31-56.846-129.22-68.186-269.64 79.604-146.04 284.918 124.46 206.702-213.17 232.66-164.26 409.748 48.81 175.28 225.7 80.28 348.91 204.92 121.6 123.02 70.98 322.42 198.73 328.97 127.75 6.55 171.51-246.34 255.07-266.03 78.99-18.57 196.51 35.94 141.38-88.37"/><path d="M2263.47 767.433c-5.59-5.598 119.95-379.791-159.19-302.331-280.43 77.07-339.98 26.423-497.25-58.455-131.22-70.629-274.54 80.757-145.64 290.375 129.69 210.556-215.88 234.121-165.78 413.288 50.03 177.66 231.05 77.53 355.72 203.77 123.4 124.87 69.28 328.99 198.55 335.37 129.27 6.38 172.17-253.38 256.14-272.75 80.16-18.49 199.96 38.21 142.33-88.75"/><path d="M2265.76 769.721c-4.47-4.471 126.08-388.194-159.17-308.084-286.34 79.766-345.52 27.706-505.24-60.078-133.26-73.096-279.51 81.958-145.15 295.738 134.9 214.576-218.79 235.559-167.38 416.933 51.36 180.15 236.33 74.71 362.62 202.5 125.23 126.73 67.65 335.57 198.37 341.77 130.73 6.21 172.83-260.39 257.1-279.46 81.28-18.44 203.41 40.44 143.28-89.13"/><path d="M2268.03 771.987c-3.36-3.357 132.2-396.598-159.23-313.887-292.16 82.51-350.95 29.086-513.13-61.628-135.23-75.492-284.45 83.17-144.64 301.184 140.17 218.524-221.63 237.019-168.94 420.524 52.62 182.6 241.61 71.9 369.46 201.29 127.03 128.61 65.88 342.08 198.19 348.17 132.3 6.09 173.47-267.39 258.2-286.26 82.44-18.4 206.85 42.69 144.24-89.5"/><path d="M2270.33 774.287c-2.23-2.229 138.29-404.965-159.28-319.7-298.02 85.241-356.43 30.417-521.07-63.19-137.17-77.888-289.38 84.347-144.27 306.57 145.42 222.532-224.41 238.409-170.49 424.053 53.9 185.04 246.9 69.1 376.29 200.07 128.87 130.47 64.23 348.67 198.06 354.59 133.82 5.93 174.13-274.23 259.24-293.01 83.65-18.14 210.29 44.97 145.19-89.86"/><path d="M2272.62 776.576c-1.12-1.115 144.49-413.44-159.24-325.431-303.73 88.008-361.99 31.677-529.08-64.836-139.2-80.366-294.75 85.857-143.83 312.016 150.23 226.896-227.24 239.905-172.06 427.685 55.17 187.77 252.17 66.29 383.12 198.88 130.76 132.26 62.63 355.16 197.95 360.89 135.32 5.74 174.77-281.31 260.29-299.78 84.78-18.13 213.7 47.2 146.14-90.23"/><path d="M2274.91 778.865s150.57-421.796-159.29-331.221c-309.85 90.574-367.44 33.009-537.01-66.422-141.2-82.798-299.25 86.761-143.28 317.403 155.98 230.642-230.06 241.354-173.62 431.275 56.45 189.92 257.46 63.48 389.99 197.67 132.52 134.19 60.83 361.74 197.63 367.33 136.81 5.58 175.4-288.4 261.34-306.53 85.94-18.12 217.23 49.54 147.09-90.59"/></g><defs><clipPath id="clip0"><path fill="#fff" transform="rotate(-144.86 1045.385 1222.387)" d="M0 0h1463.38v1362.77H0z"/></clipPath><clipPath id="clip1"><path fill="#fff" transform="rotate(45 905.69 2186.53)" d="M0 0h1300.51v1211.1H0z"/></clipPath></defs></svg>