<svg id="zip-compressed-file-outlined-interface-symbol" xmlns="http://www.w3.org/2000/svg" width="64" height="57.601"><g id="Сгруппировать_719" data-name="Сгруппировать 719" fill="#b7a78a"><path id="Контур_1411" data-name="Контур 1411" d="M325.125 279.445h2.133v10.667h-2.133v2.133h6.4v-2.133h-2.133v-10.667h2.133v-2.133h-6.4z" transform="translate(-288.858 -249.578)"/><path id="Контур_1412" data-name="Контур 1412" d="M210.375 279.445h8.533l-8.533 10.667v2.133h10.667v-2.133h-8.533l8.533-10.667v-2.133h-10.667z" transform="translate(-186.908 -249.578)"/><path id="Контур_1413" data-name="Контур 1413" d="M57.6 50.022H40.533v-6.4l-12.8-14.934H4.267A4.279 4.279 0 000 32.955v49.067a4.279 4.279 0 004.267 4.267h32a4.279 4.279 0 004.267-4.267v-4.267H57.6a6.286 6.286 0 006.4-6.4V56.422a6.286 6.286 0 00-6.4-6.4zM27.733 31.888L37.76 43.622h-7.893a2.294 2.294 0 01-2.133-2.133zM38.4 82.022a2.138 2.138 0 01-2.133 2.133h-32a2.138 2.138 0 01-2.133-2.133V32.955a2.138 2.138 0 012.133-2.133H25.6v10.666a4.279 4.279 0 004.267 4.267H38.4v4.267H21.333a6.286 6.286 0 00-6.4 6.4v14.933a6.286 6.286 0 006.4 6.4H38.4zm23.467-10.667a4.279 4.279 0 01-4.267 4.267H21.333a4.279 4.279 0 01-4.267-4.267V56.422a4.279 4.279 0 014.267-4.267H57.6a4.279 4.279 0 014.267 4.267z" transform="translate(0 -28.688)"/><path id="Контур_1414" data-name="Контур 1414" d="M408.025 277.312h-6.4v14.934h2.133v-6.4h4.267a4.267 4.267 0 000-8.534zm0 6.4h-4.267v-4.267h4.267a2.133 2.133 0 010 4.267z" transform="translate(-356.825 -249.578)"/></g></svg>