<svg width="50" height="50" fill="none" xmlns="http://www.w3.org/2000/svg"><g clip-path="url(#clip0)" fill="#4141FF"><path d="M1.535 13.008a.666.666 0 00.629.449H5.32v4.75c0 .367.298.664.664.664h.694v5.064c0 10.102 8.22 18.321 18.322 18.321 10.103 0 18.322-8.219 18.322-18.321V18.87h.694a.663.663 0 00.664-.664v-4.75h3.157c.283 0 .536-.18.628-.45l1.5-4.394a.664.664 0 00-.629-.878H.664a.663.663 0 00-.628.878l1.5 4.395zm40.46 10.927c0 9.37-7.624 16.994-16.995 16.994-9.37 0-16.994-7.624-16.994-16.994V18.87h33.988v5.064zm1.358-6.392H6.648v-4.086h36.705v4.086zm5.056-8.48l-1.047 3.066h-3.189a.65.65 0 00-.313 0H6.14a.653.653 0 00-.313 0H2.64L1.592 9.064h46.817z"/><path d="M25 31.69a6.745 6.745 0 005.645-3.051 2.489 2.489 0 001.006-4.834 6.748 6.748 0 10-6.65 7.884zm7.003-5.532a1.162 1.162 0 11-2.323 0 1.162 1.162 0 012.323 0zM25 19.521a5.4 5.4 0 015.285 4.212 2.485 2.485 0 00-.92 4.424A5.42 5.42 0 1125 19.521z"/></g><defs><clipPath id="clip0"><path fill="#fff" transform="matrix(1 0 0 -1 0 50)" d="M0 0h50v50H0z"/></clipPath></defs></svg>