<svg width="47" height="47" fill="none" xmlns="http://www.w3.org/2000/svg"><g clip-path="url(#clip0)"><path d="M42.57 4.43c-5.906-5.906-15.517-5.906-21.423 0-5.578 5.579-5.887 14.46-.93 20.406l-3.94 3.94-1.947-1.948L0 41.158l5.843 5.843 14.332-14.328-1.95-1.95 3.94-3.94c5.954 4.965 14.833 4.643 20.405-.929 5.907-5.906 5.907-15.517 0-21.423zM5.843 43.107l-1.948-1.948L14.33 30.723l1.95 1.95L5.842 43.106zm34.78-19.2c-4.833 4.833-12.696 4.833-17.529 0-4.832-4.832-4.832-12.695 0-17.528 4.832-4.832 12.695-4.833 17.529 0 4.832 4.833 4.832 12.696 0 17.529z" fill="#4141FF"/></g><defs><clipPath id="clip0"><path fill="#fff" d="M0 0h47v47H0z"/></clipPath></defs></svg>