<svg width="29" height="29" fill="none" xmlns="http://www.w3.org/2000/svg"><mask id="path-1-inside-1" fill="#fff"><path fill-rule="evenodd" clip-rule="evenodd" d="M19.766 9.738c-.45-.395-1.1-.386-1.472-.271.244-.3.812-.546.98-.575.127.047.492.423.492.846zM21.207 8.1c-.297-1.588-3.986-.536-5.844-1.21-.036.463.572 1.204 1.153 1.479-.993.862-1.885 2.6-2.065 4.722-.18-2.123-1.072-3.86-2.065-4.722.58-.275 1.189-1.016 1.153-1.48-1.858.675-5.548-.377-5.845 1.21-.063.337.099.849.274.996.03-.106.194-.455.708-.533 2.6-.393 4.77 3.614 2.811 5.234-.03.024-.013.07.027.07h5.874c.04 0 .056-.046.027-.07-1.96-1.62.21-5.627 2.81-5.234.515.078.678.427.71.533.174-.147.335-.66.272-.995zm.633-3.644c-.047-.15 1.477-.154 1.477.8 0 .64-.912.942-.912 1.606 0 .309.333.536.435.536-.235-1.066.736-.508.998-.309-.52-1.432.652-1.423.537-2.08-.08-.46-1.1-.32-1.47-.553-.654-.412-1.429-2.016-1.94-.412.953.883.399 2.184-.81 2.184 0 0-.006.19.005.206 1.441-.071 1.943-1.13 1.68-1.978zM5.028 7.089c.263-.2 1.233-.757 1 .309.1 0 .433-.227.433-.536 0-.664-.912-.966-.912-1.606 0-.954 1.525-.95 1.478-.8-.263.848.24 1.907 1.68 1.978.01-.016.004-.206.004-.206-1.208 0-1.762-1.3-.81-2.184-.51-1.604-1.285 0-1.94.412-.37.232-1.389.094-1.469.553-.115.657 1.057.648.536 2.08zm4.092 2.65c.452-.397 1.1-.387 1.473-.273-.243-.3-.813-.545-.98-.575-.127.048-.493.424-.493.847zM15.136.856L14.433 0l-.703.857.703.902.703-.902zm4.013 2.591l-.5-.609-.5.61.5.595.5-.596zm4.054 17.605l-.634-.67-.633.67.633.589.634-.589zM10.718 3.448l-.5-.609-.5.61.5.595.5-.596zM9.286 6.433h1.864c1.567 0 2.273-.962 2.486-1.796h1.595c.213.834.918 1.797 2.486 1.797h1.864s.326-.443.408-.662c.295-.788-.082-1.156-.63-1.156l-.71.643-.71-.643c-.549 0-.925.368-.63 1.156.037.1.127.249.212.379-.662-.09-1.506-.544-1.691-1.514 0 0 .489-.776.611-1.09.441-1.13-.122-1.593-.945-1.593l-1.063 1.25-1.063-1.25c-.823 0-1.386.462-.944 1.592.122.315.611 1.091.611 1.091-.186.97-1.03 1.423-1.692 1.514a2.27 2.27 0 00.213-.379c.294-.788-.081-1.156-.63-1.156l-.71.643-.71-.643c-.55 0-.925.368-.63 1.156.081.22.408.662.408.662zm19.275 5.78c-.36.182-2.471 1.17-5.176.805.028-.129.052-.259.071-.39 1.8-.215 3.264-.52 4.196-1.039 1.063-.591 1.527-2.003.991-3.054a.045.045 0 00-.072-.009c-.294.338-2.142 2.35-5.054 2.974a5.363 5.363 0 00-.042-.45c1.415-.803 2.796-1.727 3.453-2.572.994-1.278.903-2.908-.043-3.739a.045.045 0 00-.067.01c-.3.493-3.1 5.02-6.175 6.975a5.108 5.108 0 01-.114.07.145.145 0 00-.023.237 1.7 1.7 0 01.575 1.265c0 .863-.665 1.58-1.544 1.737-.447.086-1.093.061-1.712-.144-.028-.009-.057.01-.057.038v2.733c0 .044.067.055.083.013.376-.998 1.504-1.21 1.997-1.21.178 1.067.495 1.95.907 2.426.67.773 1.765.762 2.24.227a.039.039 0 00-.01-.06c-.28-.16-1.876-1.14-2.195-2.746a3.28 3.28 0 00.367-.15c.515.852 1.265 1.611 1.869 1.902 1.014.486 1.943.25 2.355-.463.014-.025-.004-.056-.034-.059-.628-.05-2.553-.602-3.373-1.946a3.93 3.93 0 00.272-.272c.857.653 2.07 1.23 2.939 1.348 1.016.138 2.167-.186 2.195-1.367 0-.024-.02-.043-.046-.042-.36.022-2.753.126-4.457-.852.06-.113.115-.227.166-.344 0 0 2.575.609 3.795.407 1.212-.2 1.922-1.104 1.785-2.228a.044.044 0 00-.062-.032zM5.824 14.065c.05.117.106.231.166.344-1.704.977-4.095.874-4.457.852-.026-.001-.047.019-.047.042.029 1.181 1.18 1.505 2.196 1.367.868-.117 2.081-.695 2.939-1.348.086.096.177.186.271.272-.82 1.344-2.745 1.896-3.372 1.946-.03.003-.049.034-.034.06.412.711 1.34.948 2.355.462.603-.29 1.353-1.05 1.869-1.903.118.058.241.108.367.151-.32 1.606-1.916 2.586-2.195 2.747a.039.039 0 00-.01.06c.474.534 1.57.545 2.24-.228.412-.476.729-1.36.906-2.426.494 0 1.621.212 1.998 1.21.016.042.083.031.083-.013v-2.733c0-.028-.03-.047-.057-.038-.62.205-1.265.23-1.711.144-.88-.156-1.546-.874-1.546-1.737 0-.497.221-.944.575-1.266a.145.145 0 00-.022-.235 5.215 5.215 0 01-.115-.07C5.15 9.77 2.35 5.246 2.05 4.75a.046.046 0 00-.069-.01c-.945.83-1.037 2.46-.043 3.738.658.845 2.039 1.77 3.453 2.571-.02.15-.034.3-.041.451C2.44 10.876.593 8.868.296 8.527c-.02-.023-.06-.018-.073.008-.535 1.051-.07 2.463.992 3.054.932.519 2.395.824 4.195 1.04.02.13.043.26.071.389-2.701.365-4.812-.621-5.174-.805-.027-.014-.06.003-.063.032-.137 1.124.573 2.027 1.785 2.227 1.22.202 3.795-.407 3.795-.407zm16.745 8.44l-.938-.738c-.374.223-.65.577-.756.992-.564.079-2.103-.263-1.953-.49 1.686-2.371.396-3.783-1.154-3.705v1.593c0 .512-.447.926-.997.926h-1.07c-.768 0-1.268.772-1.268.772s-.5-.772-1.268-.772h-1.07c-.55 0-.996-.414-.996-.926v-1.593c-1.55-.078-2.84 1.334-1.154 3.706.148.224-1.433.583-2.175.492a1.097 1.097 0 00-.793-.33c-.134 0-.267.024-.393.07 0 0-2.915-2.76-2.969-2.786l.024-.056c.166-.31-.088-.649-.248-.625.186-.224.195-1.204-.84-1.43.03.196.045.598.045.598s-.799-.432-1.2-.06c-.353.418.137 1.175.137 1.175s-.41.01-.61-.007c.296 1.002 1.29.931 1.505.734-.014.16.345.386.65.204l.133-.065c.024.032 2.863 2.714 2.863 2.714a.933.933 0 00-.15.684c.068.396.397.724.818.81.298.059.577.001.801-.13l.752.698c.067.06.157.098.258.091.184-.012.322-.161.308-.332a.295.295 0 00-.1-.194c-.012-.013-.765-.712-.765-.712.621-.436 1.78-.743 2.74-.743.17 0 .249-.143.19-.284-.435-1.047.501-1.805 1.47-1.188.422.27.851.8 1.175 1.685-1.59.385-3.585 1.445-3.988 2.602-.156.446.358 1.055.981 1.178a.042.042 0 00.05-.032c.326-1.728 2.184-3.015 3.15-3.234.05.13.033.088.082.218-1.053.498-2.074 1.548-2.365 2.796-.134.572.504 1.087 1.03 1.228a.043.043 0 00.054-.037c.1-1.578.797-2.919 1.421-3.529.018.12.03.24.039.36 0 0-.64 1.781-.64 3.081 0 .605.9 1.027 1.032 1.086.166-.06 1.064-.481 1.064-1.086 0-1.3-.64-3.082-.64-3.082.01-.12.023-.24.04-.359.624.61 1.321 1.95 1.421 3.529a.043.043 0 00.054.037c.527-.14 1.164-.656 1.03-1.228-.292-1.248-1.312-2.298-2.365-2.796l.081-.218c.967.219 2.824 1.506 3.15 3.233a.042.042 0 00.05.033c.624-.122 1.138-.732.982-1.178-.403-1.157-2.399-2.217-3.988-2.602.324-.885.753-1.415 1.175-1.685.968-.617 1.905.141 1.47 1.189-.059.14.02.283.19.283 1.087 0 2.426.392 2.956.92.339.507.965.832 1.671.763.803-.079 1.457-.682 1.547-1.427.08-.653-.258-1.24-.797-1.559l-.939.739zm-6.915-4.757c.335-.124.859-.024.84.459-.003.11.15.11.161-.002.1-.723-.388-.931-.9-.847-.063-.248-.115-.465-.174-.68-.047-.175-.064-.502.137-.502.11 0 .065.305.055.436-.009.115.032.184.126.188.058.002.13-.072.174-.122.293-.33.36-.842.018-1.09-.287-.207-1.005-.052-1.202.243-.03-.111-.172-.295-.24-.375-.067-.078-.084-.131.008-.2.043-.033.174-.163.174-.298 0-.08-.062-.226-.258-.226-.154 0-.326.107-.326.346 0 .053.013.11.047.17a1.74 1.74 0 00-.499.025l1.883 5.166c.539-.266.934-.687.934-1.14 0-.385-.567-.257-.843.044-.089-.489-.168-.94-.254-1.39-.023-.123.04-.168.14-.205zm-2.662-3.51l.396 1.1c-.339.08-.883.327-.883.654 0 .435.77.719 1.215.684a.3.3 0 00.073.27c-.162 0-.467.075-.567.182-.236-.22-.606-.3-.781-.166-.177.135-.182.364.002.622.129.18.177.356.033.563.536 0 .339-.698.549-.698a.883.883 0 00.05.465c.04.116.04.198-.028.309-.174.277-.443.913-.406 1.488-.177-.001-.266-.044-.204-.284.023-.09-.032-.154-.105-.044a.923.923 0 00-.12.419c0 .512.61.615.843.506.673.652 1.996.479 2.44.26l-2.33-6.392c-.048-.12-.219-.063-.177.062zm-.08 5.266c-.049-.264.317-.734.783-1.188-.099.296-.037.806.157.981-.338 0-.739.064-.94.207z"/></mask><path fill-rule="evenodd" clip-rule="evenodd" d="M19.766 9.738c-.45-.395-1.1-.386-1.472-.271.244-.3.812-.546.98-.575.127.047.492.423.492.846h0zM21.207 8.1c-.297-1.588-3.986-.536-5.844-1.21-.036.463.572 1.204 1.153 1.479-.993.862-1.885 2.6-2.065 4.722-.18-2.123-1.072-3.86-2.065-4.722.58-.275 1.189-1.016 1.153-1.48-1.858.675-5.548-.377-5.845 1.21-.063.337.099.849.274.996.03-.106.194-.455.708-.533 2.6-.393 4.77 3.614 2.811 5.234-.03.024-.013.07.027.07h5.874c.04 0 .056-.046.027-.07-1.96-1.62.21-5.627 2.81-5.234.515.078.678.427.71.533.174-.147.335-.66.272-.995v0zm.633-3.644c-.047-.15 1.477-.154 1.477.8 0 .64-.912.942-.912 1.606 0 .309.333.536.435.536-.235-1.066.736-.508.998-.309-.52-1.432.652-1.423.537-2.08-.08-.46-1.1-.32-1.47-.553-.654-.412-1.429-2.016-1.94-.412.953.883.399 2.184-.81 2.184 0 0-.006.19.005.206 1.441-.071 1.943-1.13 1.68-1.978h0zM5.028 7.089c.263-.2 1.233-.757 1 .309.1 0 .433-.227.433-.536 0-.664-.912-.966-.912-1.606 0-.954 1.525-.95 1.478-.8-.263.848.24 1.907 1.68 1.978.01-.016.004-.206.004-.206-1.208 0-1.762-1.3-.81-2.184-.51-1.604-1.285 0-1.94.412-.37.232-1.389.094-1.469.553-.115.657 1.057.648.536 2.08h0zm4.092 2.65c.452-.397 1.1-.387 1.473-.273-.243-.3-.813-.545-.98-.575-.127.048-.493.424-.493.847h0zM15.136.856L14.433 0l-.703.857.703.902.703-.902h0zm4.013 2.591l-.5-.609-.5.61.5.595.5-.596v0zm4.054 17.605l-.634-.67-.633.67.633.589.634-.589v0zM10.718 3.448l-.5-.609-.5.61.5.595.5-.596h0zM9.286 6.433h1.864c1.567 0 2.273-.962 2.486-1.796h1.595c.213.834.918 1.797 2.486 1.797h1.864s.326-.443.408-.662c.295-.788-.082-1.156-.63-1.156l-.71.643-.71-.643c-.549 0-.925.368-.63 1.156.037.1.127.249.212.379-.662-.09-1.506-.544-1.691-1.514 0 0 .489-.776.611-1.09.441-1.13-.122-1.593-.945-1.593l-1.063 1.25-1.063-1.25c-.823 0-1.386.462-.944 1.592.122.315.611 1.091.611 1.091-.186.97-1.03 1.423-1.692 1.514a2.27 2.27 0 00.213-.379c.294-.788-.081-1.156-.63-1.156l-.71.643-.71-.643c-.55 0-.925.368-.63 1.156.081.22.408.662.408.662h0zm19.275 5.78c-.36.182-2.471 1.17-5.176.805.028-.129.052-.259.071-.39 1.8-.215 3.264-.52 4.196-1.039 1.063-.591 1.527-2.003.991-3.054a.045.045 0 00-.072-.009c-.294.338-2.142 2.35-5.054 2.974a5.363 5.363 0 00-.042-.45c1.415-.803 2.796-1.727 3.453-2.572.994-1.278.903-2.908-.043-3.739a.045.045 0 00-.067.01c-.3.493-3.1 5.02-6.175 6.975a5.108 5.108 0 01-.114.07.145.145 0 00-.023.237 1.7 1.7 0 01.575 1.265c0 .863-.665 1.58-1.544 1.737-.447.086-1.093.061-1.712-.144-.028-.009-.057.01-.057.038v2.733c0 .044.067.055.083.013.376-.998 1.504-1.21 1.997-1.21.178 1.067.495 1.95.907 2.426.67.773 1.765.762 2.24.227a.039.039 0 00-.01-.06c-.28-.16-1.876-1.14-2.195-2.746a3.28 3.28 0 00.367-.15c.515.852 1.265 1.611 1.869 1.902 1.014.486 1.943.25 2.355-.463.014-.025-.004-.056-.034-.059-.628-.05-2.553-.602-3.373-1.946a3.93 3.93 0 00.272-.272c.857.653 2.07 1.23 2.939 1.348 1.016.138 2.167-.186 2.195-1.367 0-.024-.02-.043-.046-.042-.36.022-2.753.126-4.457-.852.06-.113.115-.227.166-.344 0 0 2.575.609 3.795.407 1.212-.2 1.922-1.104 1.785-2.228a.044.044 0 00-.062-.032h0zM5.824 14.065c.05.117.106.231.166.344-1.704.977-4.095.874-4.457.852-.026-.001-.047.019-.047.042.029 1.181 1.18 1.505 2.196 1.367.868-.117 2.081-.695 2.939-1.348.086.096.177.186.271.272-.82 1.344-2.745 1.896-3.372 1.946-.03.003-.049.034-.034.06.412.711 1.34.948 2.355.462.603-.29 1.353-1.05 1.869-1.903.118.058.241.108.367.151-.32 1.606-1.916 2.586-2.195 2.747a.039.039 0 00-.01.06c.474.534 1.57.545 2.24-.228.412-.476.729-1.36.906-2.426.494 0 1.621.212 1.998 1.21.016.042.083.031.083-.013v-2.733c0-.028-.03-.047-.057-.038-.62.205-1.265.23-1.711.144-.88-.156-1.546-.874-1.546-1.737 0-.497.221-.944.575-1.266a.145.145 0 00-.022-.235 5.215 5.215 0 01-.115-.07C5.15 9.77 2.35 5.246 2.05 4.75a.046.046 0 00-.069-.01c-.945.83-1.037 2.46-.043 3.738.658.845 2.039 1.77 3.453 2.571-.02.15-.034.3-.041.451C2.44 10.876.593 8.868.296 8.527c-.02-.023-.06-.018-.073.008-.535 1.051-.07 2.463.992 3.054.932.519 2.395.824 4.195 1.04.02.13.043.26.071.389-2.701.365-4.812-.621-5.174-.805-.027-.014-.06.003-.063.032-.137 1.124.573 2.027 1.785 2.227 1.22.202 3.795-.407 3.795-.407v0zm16.745 8.44l-.938-.738c-.374.223-.65.577-.756.992-.564.079-2.103-.263-1.953-.49 1.686-2.371.396-3.783-1.154-3.705v1.593c0 .512-.447.926-.997.926h-1.07c-.768 0-1.268.772-1.268.772s-.5-.772-1.268-.772h-1.07c-.55 0-.996-.414-.996-.926v-1.593c-1.55-.078-2.84 1.334-1.154 3.706.148.224-1.433.583-2.175.492a1.097 1.097 0 00-.793-.33c-.134 0-.267.024-.393.07 0 0-2.915-2.76-2.969-2.786l.024-.056c.166-.31-.088-.649-.248-.625.186-.224.195-1.204-.84-1.43.03.196.045.598.045.598s-.799-.432-1.2-.06c-.353.418.137 1.175.137 1.175s-.41.01-.61-.007c.296 1.002 1.29.931 1.505.734-.014.16.345.386.65.204l.133-.065c.024.032 2.863 2.714 2.863 2.714a.933.933 0 00-.15.684c.068.396.397.724.818.81.298.059.577.001.801-.13l.752.698c.067.06.157.098.258.091.184-.012.322-.161.308-.332a.295.295 0 00-.1-.194c-.012-.013-.765-.712-.765-.712.621-.436 1.78-.743 2.74-.743.17 0 .249-.143.19-.284-.435-1.047.501-1.805 1.47-1.188.422.27.851.8 1.175 1.685-1.59.385-3.585 1.445-3.988 2.602-.156.446.358 1.055.981 1.178a.042.042 0 00.05-.032c.326-1.728 2.184-3.015 3.15-3.234.05.13.033.088.082.218-1.053.498-2.074 1.548-2.365 2.796-.134.572.504 1.087 1.03 1.228a.043.043 0 00.054-.037c.1-1.578.797-2.919 1.421-3.529.018.12.03.24.039.36 0 0-.64 1.781-.64 3.081 0 .605.9 1.027 1.032 1.086.166-.06 1.064-.481 1.064-1.086 0-1.3-.64-3.082-.64-3.082.01-.12.023-.24.04-.359.624.61 1.321 1.95 1.421 3.529a.043.043 0 00.054.037c.527-.14 1.164-.656 1.03-1.228-.292-1.248-1.312-2.298-2.365-2.796l.081-.218c.967.219 2.824 1.506 3.15 3.233a.042.042 0 00.05.033c.624-.122 1.138-.732.982-1.178-.403-1.157-2.399-2.217-3.988-2.602.324-.885.753-1.415 1.175-1.685.968-.617 1.905.141 1.47 1.189-.059.14.02.283.19.283 1.087 0 2.426.392 2.956.92.339.507.965.832 1.671.763.803-.079 1.457-.682 1.547-1.427.08-.653-.258-1.24-.797-1.559l-.939.739h0zm-6.915-4.757c.335-.124.859-.024.84.459-.003.11.15.11.161-.002.1-.723-.388-.931-.9-.847-.063-.248-.115-.465-.174-.68-.047-.175-.064-.502.137-.502.11 0 .065.305.055.436-.009.115.032.184.126.188.058.002.13-.072.174-.122.293-.33.36-.842.018-1.09-.287-.207-1.005-.052-1.202.243-.03-.111-.172-.295-.24-.375-.067-.078-.084-.131.008-.2.043-.033.174-.163.174-.298 0-.08-.062-.226-.258-.226-.154 0-.326.107-.326.346 0 .053.013.11.047.17a1.74 1.74 0 00-.499.025l1.883 5.166c.539-.266.934-.687.934-1.14 0-.385-.567-.257-.843.044-.089-.489-.168-.94-.254-1.39-.023-.123.04-.168.14-.205h0zm-2.662-3.51l.396 1.1c-.339.08-.883.327-.883.654 0 .435.77.719 1.215.684a.3.3 0 00.073.27c-.162 0-.467.075-.567.182-.236-.22-.606-.3-.781-.166-.177.135-.182.364.002.622.129.18.177.356.033.563.536 0 .339-.698.549-.698a.883.883 0 00.05.465c.04.116.04.198-.028.309-.174.277-.443.913-.406 1.488-.177-.001-.266-.044-.204-.284.023-.09-.032-.154-.105-.044a.923.923 0 00-.12.419c0 .512.61.615.843.506.673.652 1.996.479 2.44.26l-2.33-6.392c-.048-.12-.219-.063-.177.062h0zm-.08 5.266c-.049-.264.317-.734.783-1.188-.099.296-.037.806.157.981-.338 0-.739.064-.94.207h0z" fill="#4141FF" stroke="url(#paint0_linear)" stroke-width="2" mask="url(#path-1-inside-1)"/><defs><linearGradient id="paint0_linear" x1=".535" y1="29" x2="28.867" y2="29" gradientUnits="userSpaceOnUse"><stop stop-color="#A5A5FF"/><stop offset="1" stop-color="#4141FF"/></linearGradient></defs></svg>