<svg width="32" height="32" fill="none" xmlns="http://www.w3.org/2000/svg"><g clip-path="url(#clip0)"><path d="M11.61 27.95l5.771-5.766-2.38-4.744-.26-.14-4.497 2.412L7.85 24.19l3.76 3.76z" fill="#EDF5FF"/><path d="M14.74 17.3l-4.853-2.61-5.77 5.766L7.85 24.19l6.89-6.89zm10.597-9.398L32 1.377l-.661-.675-3.673 3.115-2.922 3.48.593.605z" fill="#D6E8FD"/><path d="M31.34.702L30.691.04l-6.663 6.525.715.73L31.34.703z" fill="#B6DCFE"/><path d="M5.194 31.96l1.323-1.323-1.864-1.864 9.871-9.87-.693-.694-5.548 5.032-5.645 6.162 2.556 2.556z" fill="#D6E8FD"/><path d="M13.83 18.21l-.628-.63-9.871 9.871-2.01-2.009L0 26.765l2.638 2.638L13.83 18.209z" fill="#B6DCFE"/><path d="M21.81 10.458l2.735.746L27.22 8.53l-1.855-1.854-2.158.899-1.451 2.71.054.174z" fill="#D50000"/><path d="M25.365 6.675l-1.77-1.77-2.675 2.674.836 2.705 3.61-3.609z" fill="#BD0000"/><path d="M17.382 22.184l7.233-7.227-.077-3.746.007-.007-1.854-1.854-5.841 3.55-3.23 5.522 3.762 3.762z" fill="#D50000"/><path d="M22.691 9.35l-1.77-1.77-.003.002-3.791-.124-7.239 7.232 3.732 3.732 9.07-9.072zm-6.283 8.627l2.591 2.591 1.323-1.322-2.592-2.592-1.322 1.323zm2.658-2.634l2.58 2.58 1.323-1.321-2.58-2.581-1.323 1.322z" fill="#BD0000"/></g><defs><clipPath id="clip0"><path fill="#fff" transform="rotate(-180 16 16)" d="M0 0h32v32H0z"/></clipPath></defs></svg>