<svg width="47" height="47" fill="none" xmlns="http://www.w3.org/2000/svg"><path d="M45.366 44.797v-27.63c0-.285-.358-.643-.707-.91l-7.224-5.241V5.223a.96.96 0 00-.955-.954h-8.234L24.05 1.212c-.285-.193-.762-.193-1.056 0L18.8 4.269h-8.234a.96.96 0 00-.955.954v5.729l-7.316 5.315c-.432.266-.707.615-.707.908V44.99c0 .541.431.918.881.955h41.933c.615-.01.964-.487.964-1.148zm-1.818-25.914V43.08L27.75 30.43l15.798-11.548zm-.707-1.68l-5.406 3.938v-7.913l5.406 3.975zM23.481 3.02l1.68 1.24h-3.369l1.69-1.24zm12.044 3.158v16.358l-12.044 8.776-12.043-8.776V6.178h24.087zM3.415 18.883L19.213 30.43 3.415 43.154V18.883zm6.205 2.332l-5.544-4.04 5.544-4.03v8.07zM5.131 44.117L20.746 31.55l2.157 1.579c.413.312.725.312 1.148 0l2.157-1.58 15.706 12.568H5.131z" fill="#4141FF"/><path d="M29.981 10.86H17.084v1.817h12.897V10.86zm0 5.829H17.084v1.817h12.897V16.69zm0 5.829H17.084v1.818h12.897v-1.818z" fill="#4141FF"/></svg>