<svg width="44" height="45" fill="none" xmlns="http://www.w3.org/2000/svg"><path d="M34.793 27.297c-.902-.94-1.99-1.442-3.143-1.442-1.144 0-2.242.493-3.181 1.432l-2.939 2.93c-.242-.13-.484-.251-.716-.372-.335-.168-.651-.326-.92-.493-2.754-1.749-5.255-4.027-7.655-6.975-1.162-1.47-1.944-2.707-2.51-3.962.762-.698 1.469-1.423 2.157-2.12.26-.261.52-.53.78-.791 1.954-1.953 1.954-4.483 0-6.436L14.129 6.53a38.747 38.747 0 01-.865-.883 43.912 43.912 0 00-1.748-1.73C10.614 3.024 9.535 2.55 8.4 2.55s-2.232.474-3.162 1.367l-.019.019-3.162 3.19A6.804 6.804 0 00.039 11.45c-.223 2.716.577 5.245 1.19 6.9 1.507 4.065 3.758 7.831 7.115 11.868 4.074 4.864 8.975 8.705 14.574 11.411 2.139 1.014 4.994 2.214 8.184 2.418.195.01.4.019.586.019 2.148 0 3.952-.772 5.366-2.307.01-.018.028-.028.037-.046.484-.586 1.042-1.116 1.628-1.684.4-.38.809-.78 1.209-1.2.92-.957 1.404-2.073 1.404-3.217 0-1.153-.493-2.26-1.432-3.19l-5.106-5.124zm3.33 9.793c-.01 0-.01.009 0 0-.363.39-.735.744-1.135 1.134-.605.577-1.219 1.181-1.795 1.86-.94 1.005-2.046 1.479-3.497 1.479-.14 0-.288 0-.428-.01-2.762-.176-5.329-1.255-7.254-2.176-5.264-2.548-9.886-6.166-13.727-10.75-3.171-3.823-5.292-7.357-6.696-11.151-.865-2.316-1.181-4.12-1.042-5.822a4.27 4.27 0 011.284-2.762L7.004 5.72c.456-.428.94-.66 1.414-.66.586 0 1.06.353 1.358.65l.027.029c.568.53 1.107 1.079 1.674 1.665.289.297.586.595.884.902l2.539 2.539c.986.985.986 1.897 0 2.883-.27.27-.53.539-.8.8-.781.8-1.525 1.543-2.334 2.269-.019.018-.037.028-.047.046-.8.8-.65 1.581-.483 2.111l.027.084c.66 1.6 1.59 3.106 3.005 4.901l.009.01c2.567 3.161 5.273 5.626 8.258 7.514.382.242.772.437 1.144.623.335.168.651.326.921.493.037.019.074.047.112.065.316.158.613.233.92.233.772 0 1.256-.484 1.414-.642l3.18-3.18c.317-.317.819-.698 1.405-.698.577 0 1.05.362 1.34.679l.018.018 5.124 5.125c.958.948.958 1.925.01 2.91zM23.782 10.481c2.436.41 4.65 1.563 6.417 3.33a11.856 11.856 0 013.33 6.417 1.248 1.248 0 001.236 1.041c.074 0 .14-.009.214-.018a1.257 1.257 0 001.032-1.45 14.344 14.344 0 00-4.027-7.766 14.344 14.344 0 00-7.765-4.027 1.262 1.262 0 00-1.451 1.023 1.24 1.24 0 001.014 1.45zm20.198 8.957c-.827-4.855-3.115-9.272-6.63-12.788C33.834 3.135 29.415.847 24.561.02a1.25 1.25 0 00-1.442 1.022 1.262 1.262 0 001.033 1.451c4.334.735 8.286 2.79 11.43 5.924 3.143 3.144 5.189 7.096 5.924 11.43a1.248 1.248 0 001.237 1.042c.074 0 .14-.01.214-.019a1.232 1.232 0 001.023-1.432z" fill="#4141FF"/></svg>