<svg width="20" height="20" fill="none" xmlns="http://www.w3.org/2000/svg"><path d="M19.376 16.728h-5.188a.625.625 0 010-1.248h4.564V8.616h-17.5v6.86H5.56a.625.625 0 010 1.248H.624A.625.625 0 010 16.1V7.992c0-.344.28-.624.624-.624h18.752c.344 0 .624.28.624.624v8.112c0 .344-.28.624-.624.624z" fill="#C4C4C4"/><path d="M14.316 8.64H5.684a.625.625 0 01-.624-.624V.944c0-.344.28-.624.624-.624h8.628c.344 0 .624.28.624.624v7.072a.619.619 0 01-.62.624zM6.312 7.392h7.38v-5.82h-7.38v5.82zm7.876 12.188H5.56a.625.625 0 01-.624-.624v-5.204c0-.344.28-.624.624-.624h8.628c.343 0 .623.28.623.624v5.204c0 .344-.28.624-.623.624zm-8.004-1.248h7.375v-3.956H6.184v3.956z" fill="#C4C4C4"/></svg>