<svg width="22" height="17" fill="none" xmlns="http://www.w3.org/2000/svg"><path d="M13.503 8.188L9.438 5.601a.37.37 0 00-.568.312v5.174a.37.37 0 00.568.312l4.065-2.587a.37.37 0 000-.624zM9.61 10.414V6.586L12.616 8.5 9.61 10.414z" fill="#4141FF"/><path d="M21.065 0H.37A.37.37 0 000 .37v16.26c0 .205.166.37.37.37h20.695a.37.37 0 00.37-.37V.37a.37.37 0 00-.37-.37zM3.695 8.13H.74V4.804h2.957V8.13zM.74 8.87h2.957v3.326H.739V8.87zm3.696 3.695V.74H17v15.522H4.435v-3.696zm16.26-4.435H17.74V4.804h2.957V8.13zm-2.956.74h2.957v3.326H17.74V8.87zM20.696.74v3.325h-2.957V.74h2.957zM.739.74h2.957v3.325H.739V.74zm0 15.52v-3.325h2.957v3.326H.739zm19.957 0h-2.957v-3.325h2.957v3.326z" fill="#4141FF"/></svg>